SplineFontDB: 3.0
FontName: Nobile-italic002
FullName: Nobile-italic002
FamilyName: Nobile-italic002
Weight: Normal
Copyright: Copyright (c) 2007 by vernon adams. All rights reserved.
Version: 002
ItalicAngle: -8
UnderlinePosition: -292
UnderlineWidth: 40
Ascent: 1638
Descent: 410
LayerCount: 3
Layer: 0 0 "Back"  1
Layer: 1 0 "Fore"  0
Layer: 2 0 "store"  1
NeedsXUIDChange: 1
XUID: [1021 929 2108387364 15105211]
FSType: 0
OS2Version: 2
OS2_WeightWidthSlopeOnly: 0
OS2_UseTypoMetrics: 1
CreationTime: 1248129682
ModificationTime: 1273314764
PfmFamily: 17
TTFWeight: 250
TTFWidth: 5
LineGap: 116
VLineGap: 0
Panose: 2 0 0 0 0 0 0 0 0 0
OS2TypoAscent: -120
OS2TypoAOffset: 1
OS2TypoDescent: -48
OS2TypoDOffset: 1
OS2TypoLinegap: 116
OS2WinAscent: -1076
OS2WinAOffset: 1
OS2WinDescent: -4
OS2WinDOffset: 1
HheadAscent: -1646
HheadAOffset: 1
HheadDescent: 84
HheadDOffset: 1
OS2SubXSize: 1434
OS2SubYSize: 1332
OS2SubXOff: 0
OS2SubYOff: 286
OS2SupXSize: 1434
OS2SupYSize: 1332
OS2SupXOff: 0
OS2SupYOff: 976
OS2StrikeYSize: 102
OS2StrikeYPos: 512
OS2Vendor: 'pyrs'
OS2CodePages: 00000001.00000000
OS2UnicodeRanges: 00000001.00000000.00000000.00000000
Lookup: 4 0 1 "'liga' Standard Ligatures lookup 0"  {"'liga' Standard Ligatures lookup 0-1"  } ['liga' ('DFLT' <'dflt' > 'cyrl' <'dflt' > 'grek' <'dflt' > 'latn' <'dflt' > ) ]
Lookup: 258 0 0 "'kern' Horizontal Kerning lookup 1"  {"'kern' Horizontal Kerning lookup 1-1"  } ['kern' ('DFLT' <'dflt' > 'cyrl' <'dflt' > 'grek' <'dflt' > 'latn' <'dflt' > ) ]
DEI: 91125
LangName: 1033 "" "" "Regular" "" "" "Version 1.000;PS 001.000;hotconv 1.0.38" "" "Nobile-italic is a trademark of vernon adams." "vernon adams" "" "Copyright (c) 2010 by vernon adams. All rights reserved." 
Encoding: iso8859-4
UnicodeInterp: none
NameList: Adobe Glyph List
DisplaySize: -36
AntiAlias: 1
FitToEm: 0
ExtremaBound: 10
WinInfo: 52 26 13
BeginPrivate: 11
BlueValues 37 [-40 2 1110 1131 1344 1362 1570 1610]
OtherBlues 11 [-502 -372]

StartChar: exclam
Encoding: 33 33 3
Width: 810
GlyphClass: 2
Flags: W
HStem: -16 202<292 458> 1560 20G<477.122 700>
VStem: 374 100<400 468.782>
LayerCount: 3
Fore
SplineSet
488 186 m 1
 458 -16 l 1
 264 -16 l 1
 292 186 l 1
 488 186 l 1
474 400 m 1
 374 400 l 1
 440 1302 l 1
 480 1580 l 1
 700 1580 l 1
 662 1302 l 1
 474 400 l 1
EndSplineSet
Validated: 1
EndChar

StartChar: numbersign
Encoding: 35 35 4
Width: 1486
GlyphClass: 2
Flags: W
HStem: 562 122<324 460 620 766 924 1062> 906 124<406 542 704 846 1008 1132>
LayerCount: 3
Fore
SplineSet
766 562 m 1
 592 562 l 1
 524 294 l 1
 394 294 l 1
 460 562 l 1
 296 562 l 1
 324 684 l 1
 488 684 l 1
 542 906 l 1
 374 906 l 1
 406 1030 l 1
 574 1030 l 1
 642 1308 l 1
 772 1308 l 1
 704 1030 l 1
 878 1030 l 1
 944 1306 l 1
 1076 1306 l 1
 1008 1030 l 1
 1166 1030 l 1
 1132 906 l 1
 978 906 l 1
 924 684 l 1
 1088 684 l 1
 1062 562 l 1
 894 562 l 1
 830 294 l 1
 698 294 l 1
 766 562 l 1
620 684 m 1
 790 684 l 1
 846 906 l 1
 676 906 l 1
 620 684 l 1
EndSplineSet
Validated: 1
EndChar

StartChar: dollar
Encoding: 36 36 5
Width: 973
GlyphClass: 2
Flags: W
HStem: -23 150<322.365 678.645> 1042 148<463.484 812.475>
LayerCount: 3
Fore
SplineSet
399 -159 m 5
 665 1329 l 5
 734 1329 l 5
 474 -159 l 5
 399 -159 l 5
142 100 m 9
 222 245 l 1
 293 169 412 127 490 127 c 0
 629 127 757 178 776 314 c 0
 792 430 721 470 625 505 c 2
 472 562 l 2
 251 644 223 740 244 891 c 0
 261 1011 373 1190 655 1190 c 0
 808 1190 957 1106 993 1067 c 1
 915 924 l 1
 842 994 746 1042 644 1042 c 0
 464 1042 403 964 391 880 c 0
 383 820 404 785 523 737 c 2
 671 678 l 2
 933 574 956 461 935 309 c 0
 899 53 667 -23 481 -23 c 0
 348 -23 194 46 142 100 c 9
EndSplineSet
EndChar

StartChar: percent
Encoding: 37 37 6
Width: 1832
GlyphClass: 2
Flags: W
HStem: -23 111<1147.81 1370.33> 698 101<1222.82 1446.61> 762 104<433.631 654.183> 1481 98<508.33 731.954>
LayerCount: 3
Fore
SplineSet
1248 88 m 4xd0
 1399 88 1457 235 1474 356 c 4
 1494 498 1521 698 1339 698 c 4
 1189 698 1138 550 1116 392 c 4
 1093 225 1108 88 1248 88 c 4xd0
766 1176 m 4
 798 1406 736 1481 625 1481 c 4
 504 1481 430 1379 401 1176 c 4
 368 944 430 866 539 866 c 4xb0
 662 866 737 969 766 1176 c 4
453 -51 m 5
 1314 1659 l 5
 1413 1614 l 5
 546 -92 l 5
 453 -51 l 5
1253 -23 m 4
 1003 -23 972 199 996 371 c 4
 1039 679 1173 799 1347 799 c 4xd0
 1589 799 1618 581 1592 397 c 4
 1545 61 1366 -23 1253 -23 c 4
278 1155 m 4
 321 1460 455 1579 632 1579 c 4
 875 1579 905 1361 879 1178 c 4
 853 994 761 762 524 762 c 4xb0
 283 762 257 1004 278 1155 c 4
EndSplineSet
EndChar

StartChar: quotesingle
Encoding: 39 39 7
Width: 492
GlyphClass: 2
Flags: W
HStem: 1188 64<321.156 368.171> 1378 194<346 436>
VStem: 304 242
LayerCount: 3
Fore
SplineSet
320 1378 m 1
 346 1572 l 1
 546 1572 l 1
 546 1572 546.125 1568.12 546.125 1560.91 c 0
 546.125 1539.25 545 1487.5 536 1420 c 0
 518 1282 468 1228 326 1188 c 1
 320 1200 312 1240 304 1252 c 1
 368 1274 406 1302 436 1374 c 1
 320 1378 l 1
EndSplineSet
Validated: 1
EndChar

StartChar: parenleft
Encoding: 40 40 8
Width: 794
GlyphClass: 2
Flags: W
HStem: 1580 20G<751.159 776.4>
VStem: 255.723 173.431<147.417 833.534>
LayerCount: 3
Fore
SplineSet
272 696 m 0
 364 1354 762 1600 762 1600 c 1
 834 1500 l 1
 834 1500 528 1278 446 694 c 0
 434.204 610.561 429.154 534.573 429.154 465.619 c 0
 429.154 55.2548 608 -106 608 -106 c 1
 508 -204 l 1
 508 -204 255.723 -17.8685 255.723 471.764 c 0
 255.723 540.432 260.684 615.07 272 696 c 0
EndSplineSet
Validated: 1
EndChar

StartChar: parenright
Encoding: 41 41 9
Width: 794
GlyphClass: 2
Flags: W
HStem: 1580 20G<382 409.38>
VStem: 478.959 173.402<556.952 1251.85>
LayerCount: 3
Fore
SplineSet
636 696 m 0
 544 38 148 -204 148 -204 c 1
 76 -106 l 1
 76 -106 380 114 462 694 c 0
 473.88 778.608 478.959 855.617 478.959 925.455 c 0
 478.959 1337.67 302 1500 302 1500 c 1
 402 1600 l 1
 402 1600 652.361 1411.08 652.361 921.511 c 0
 652.361 852.431 647.376 777.366 636 696 c 0
EndSplineSet
Validated: 1
EndChar

StartChar: asterisk
Encoding: 42 42 10
Width: 864
GlyphClass: 2
Flags: W
HStem: 1136 112<198 472 638 916> 1550 20G<740.906 785.429>
LayerCount: 3
Fore
SplineSet
542 1090 m 1
 362 816 l 1
 274 872 l 1
 472 1144 l 1
 182 1136 l 1
 198 1248 l 1
 486 1236 l 1
 376 1510 l 1
 482 1566 l 1
 572 1292 l 1
 754 1570 l 1
 842 1514 l 1
 638 1236 l 1
 932 1248 l 1
 916 1136 l 1
 628 1144 l 1
 740 872 l 1
 626 816 l 1
 542 1090 l 1
EndSplineSet
Validated: 1
EndChar

StartChar: plus
Encoding: 43 43 11
Width: 926
GlyphClass: 2
Flags: W
HStem: 518 134<152 424 574 846>
LayerCount: 3
Fore
SplineSet
846 518 m 1
 556 518 l 1
 508 174 l 1
 374 174 l 1
 424 518 l 1
 134 518 l 1
 152 652 l 1
 442 652 l 1
 492 996 l 1
 622 996 l 1
 574 652 l 1
 866 652 l 1
 846 518 l 1
EndSplineSet
Validated: 1
EndChar

StartChar: comma
Encoding: 44 44 12
Width: 456
GlyphClass: 2
Flags: W
HStem: -200 62<116.485 159.561> -12 196<142 232>
VStem: 98 244
LayerCount: 3
Fore
SplineSet
114 -12 m 1
 142 184 l 1
 342 184 l 1
 342 184 342.125 180 342.125 172.594 c 0
 342.125 150.375 341 97.5 332 30 c 0
 314 -108 264 -160 122 -200 c 1
 116 -188 106 -150 98 -138 c 1
 162 -116 202 -86 232 -14 c 1
 114 -12 l 1
EndSplineSet
Validated: 1
EndChar

StartChar: hyphen
Encoding: 45 45 13
Width: 796
GlyphClass: 2
Flags: W
HStem: 508 130<176 704>
VStem: 158 564
LayerCount: 3
Fore
SplineSet
704 508 m 1
 158 508 l 1
 176 638 l 1
 722 638 l 1
 704 508 l 1
EndSplineSet
Validated: 1
EndChar

StartChar: period
Encoding: 46 46 14
Width: 474
GlyphClass: 2
Flags: W
HStem: -21 256<179.534 324.57>
VStem: 136.164 232<22.2301 192.05>
LayerCount: 3
Fore
SplineSet
368.164 129 m 0
 368.164 51 302.164 -21 236.164 -21 c 0
 176.164 -21 136.164 27 136.164 87 c 0
 136.164 163 200.164 235 272.164 235 c 0
 328.164 235 368.164 187 368.164 129 c 0
EndSplineSet
EndChar

StartChar: slash
Encoding: 47 47 15
Width: 1386
GlyphClass: 2
Flags: W
LayerCount: 3
Fore
SplineSet
268 -168 m 1
 1128 1730 l 1
 1272 1730 l 1
 420 -168 l 1
 268 -168 l 1
EndSplineSet
Validated: 1
EndChar

StartChar: zero
Encoding: 48 48 16
Width: 1249
GlyphClass: 2
Flags: W
HStem: -30 140<381.722 732.94> 1070 140<505.409 854.559>
VStem: 85.8145 170.286<249.528 740.613> 987.49 173.51<439.834 931.023>
LayerCount: 3
Fore
SplineSet
978.11 592 m 0
 984.11 636.815 987.49 680.697 987.49 722.579 c 0
 987.49 918.071 913.767 1070 688.11 1070 c 0
 416.11 1070 300.11 846 266.11 592 c 0
 259.899 547.749 256.1 502.518 256.1 458.355 c 0
 256.1 274.973 321.618 110 552.11 110 c 0
 838.11 110 946.11 364 978.11 592 c 0
708.11 1210 m 0
 1048.99 1210 1161 964.995 1161 714.982 c 0
 1161 673.086 1157.85 631.048 1152.11 590 c 0
 1112.11 298 920.11 -30 534.11 -30 c 0
 203.776 -30 85.8145 215.275 85.8145 470.445 c 0
 85.8145 510.355 88.7002 550.507 94.1104 590 c 0
 134.11 876 312.11 1210 708.11 1210 c 0
EndSplineSet
EndChar

StartChar: one
Encoding: 49 49 17
Width: 658
GlyphClass: 2
Flags: W
HStem: 0 21G<222 398.803>
VStem: 132 428
LayerCount: 3
Fore
SplineSet
222 0 m 1
 370 1056 l 1
 160 966 l 1
 132 1084 l 1
 424 1202 l 1
 560 1170 l 1
 396 0 l 1
 222 0 l 1
EndSplineSet
Validated: 1
EndChar

StartChar: two
Encoding: 50 50 18
Width: 951
GlyphClass: 2
Flags: W
HStem: 0 152<243.788 745.788> 1050 148<290.312 678.857>
VStem: 734.72 167.28<726.204 998.961>
LayerCount: 3
Fore
SplineSet
897.788 842 m 0
 871.788 658 753.788 544 611.788 430 c 0
 489.788 332 243.788 150 243.788 150 c 1
 431.788 152 l 1
 765.788 152 l 1
 745.788 0 l 1
 19.7881 0 l 1
 37.7881 142 l 1
 425.788 484 699.788 604 731.788 844 c 0
 733.733 858.046 734.72 871.462 734.72 884.22 c 0
 734.72 989.536 667.42 1050 515.788 1050 c 0
 335.788 1050 161.788 968 161.788 968 c 1
 197.788 1116 l 1
 197.788 1116 355.788 1198 557.788 1198 c 0
 814.569 1198 902 1055.31 902 901.824 c 0
 902 881.968 900.537 861.932 897.788 842 c 0
EndSplineSet
EndChar

StartChar: three
Encoding: 51 51 19
Width: 962
GlyphClass: 2
Flags: W
HStem: -198 138<65.6777 548.634> 1062 144<234.026 689.841>
VStem: 672.46 166.748<66.2981 364.617> 743.987 155.207<744.64 1004.9>
LayerCount: 3
Fore
SplineSet
159.1 1004 m 1xd0
 191.1 1148 l 1
 191.1 1148 353.1 1206 503.1 1206 c 0
 793.589 1206 899.194 1082.21 899.194 916.786 c 0xd0
 899.194 897.703 897.789 878.065 895.1 858 c 1
 843.1 548 563.1 546 555.1 546 c 1
 555.1 546 839.208 516.186 839.208 233.214 c 0
 839.208 214 837.897 193.618 835.1 172 c 1
 801.1 -72 593.1 -198 325.1 -198 c 0
 133.1 -198 -16.9004 -122 -16.9004 -122 c 1
 1.09961 10 l 1
 1.09961 10 143.1 -60 345.1 -60 c 0
 557.1 -60 647.1 24 669.1 186 c 0
 671.353 201.957 672.46 217.245 672.46 231.866 c 0xe0
 672.46 373.013 569.265 452.065 397.1 472 c 1
 417.1 614 l 1
 595.1 628 713.1 686 739.1 842 c 1
 741.1 862 l 2
 743.026 875.872 743.987 888.927 743.987 901.194 c 0
 743.987 1016.27 659.375 1062 493.1 1062 c 0
 323.1 1062 159.1 1004 159.1 1004 c 1xd0
EndSplineSet
EndChar

StartChar: four
Encoding: 52 52 20
Width: 1045
GlyphClass: 2
Flags: W
HStem: 68 136<164.201 620.201 788.201 950.201>
LayerCount: 3
Fore
SplineSet
788.201 1208 m 1
 924.201 1170 l 1
 788.201 206 l 1
 970.201 206 l 1
 950.201 68 l 1
 768.201 68 l 1
 722.201 -258 l 1
 568.201 -286 l 1
 620.201 68 l 1
 18.2012 68 l 1
 10.2012 204 l 1
 788.201 1208 l 1
164.201 204 m 1
 308.201 204 l 1
 638.201 204 l 1
 696.201 610 l 1
 768.201 1004 l 1
 538.201 668 l 1
 538.201 668 226.201 268 164.201 204 c 1
EndSplineSet
EndChar

StartChar: five
Encoding: 53 53 21
Width: 1018
GlyphClass: 2
Flags: W
HStem: -206 134<110.618 556.682> 556 130<342.021 655.889> 1042 130<355.325 903.325>
VStem: 744.344 143.5<120.953 465.652>
LayerCount: 3
Fore
SplineSet
881.325 236 m 0
 845.325 -20 647.325 -206 347.325 -206 c 0
 137.326 -206 19.3262 -132 19.3262 -132 c 1
 33.3262 8 l 1
 33.3262 8 157.326 -72 369.325 -72 c 0
 557.325 -72 709.325 32 739.325 244 c 0
 742.654 267.814 744.344 290.645 744.344 312.353 c 0
 744.344 460.199 665.976 556 493.325 556 c 0
 367.325 556 251.326 498 223.326 484 c 1
 199.326 502 129.326 564 129.326 564 c 1
 243.326 1172 l 1
 921.325 1172 l 1
 903.325 1042 l 1
 355.325 1042 l 1
 355.325 1042 283.325 674 271.326 612 c 1
 315.325 628 419.325 686 539.325 686 c 0
 760.58 686 887.844 554.413 887.844 328.673 c 0
 887.844 299.344 885.694 268.425 881.325 236 c 0
EndSplineSet
EndChar

StartChar: six
Encoding: 54 54 22
Width: 1146
GlyphClass: 2
Flags: W
HStem: -112 140<363.844 682.797> 700 136<444.317 781.463> 1216 146<758.371 882.193>
VStem: 78.3691 167.506<154.316 551.027> 863.157 155.033<259.92 621.968>
LayerCount: 3
Back
SplineSet
649.36 -146.166 m 4xe8
 400.162 -146.166 162.938 -28.7539 162.938 246.804 c 4
 162.938 599.04 445.686 668.53 445.686 668.53 c 5
 445.686 668.53 203.674 730.828 194.088 994.406 c 4
 184.504 1250.79 371.404 1399.36 649.356 1399.36 c 4
 929.708 1399.36 1119 1250.79 1109.42 994.406 c 4xf0
 1099.83 730.828 855.426 668.53 855.426 668.53 c 5
 855.426 668.53 1140.57 599.04 1140.57 246.804 c 4
 1140.57 -28.7539 903.352 -146.166 649.36 -146.166 c 4xe8
651.752 606.229 m 5
 419.324 572.682 342.654 440.892 342.654 270.766 c 4
 342.654 74.2793 450.482 2.39648 642.176 2.39648 c 4
 857.826 2.39648 960.86 74.2793 960.86 270.766 c 4xe8
 960.86 428.912 886.574 572.682 651.752 606.229 c 5
654.156 721.244 m 5
 831.472 742.81 932.12 802.712 941.7 980.03 c 4xf0
 951.284 1174.12 838.664 1250.79 654.16 1250.79 c 4
 474.448 1250.79 349.848 1174.12 361.828 980.03 c 4
 371.412 802.712 467.256 742.81 654.156 721.244 c 5
EndSplineSet
Fore
SplineSet
858.426 410 m 0
 861.639 433.493 863.157 455.192 863.157 475.22 c 0
 863.157 654.68 741.173 700 622.426 700 c 0
 418.426 700 274.426 550 274.426 550 c 1
 264.426 516 258.426 476 252.426 440 c 0
 248.339 410.372 245.875 378.888 245.875 347.04 c 0
 245.875 191.849 304.356 28 518.426 28 c 0
 710.426 28 800.426 154 844.426 346 c 0
 848.426 368 856.426 390 858.426 410 c 0
648.426 836 m 0
 885.92 836 1018.19 679.758 1018.19 456.952 c 0
 1018.19 430.208 1016.29 402.506 1012.43 374 c 0
 982.426 156 838.426 -112 500.426 -112 c 0
 217.701 -112 78.3691 79.1904 78.3691 331.607 c 0
 78.3691 366.673 81.0586 402.92 86.4258 440 c 0
 90.4258 462 94.4258 486 98.4258 508 c 0
 204.426 1002 498.426 1270 880.426 1362 c 1
 898.426 1216 l 1
 560.426 1142 406.426 936 312.426 692 c 1
 398.426 784 508.426 836 648.426 836 c 0
EndSplineSet
EndChar

StartChar: seven
Encoding: 55 55 23
Width: 975
GlyphClass: 2
Flags: W
HStem: 1030 140<154 794>
LayerCount: 3
Fore
SplineSet
932 1170 m 1
 966 1046 l 1
 216 -236 l 1
 70 -160 l 1
 650 796 l 1
 794 1034 l 1
 578 1030 l 1
 136 1030 l 1
 154 1170 l 1
 932 1170 l 1
EndSplineSet
Validated: 1
EndChar

StartChar: eight
Encoding: 56 56 24
Width: 1126
GlyphClass: 2
Flags: W
HStem: -140 142<300.534 683.672> 1208 136<473.549 831.468>
VStem: 60.2822 169.804<67.4346 376.634> 194.052 155.806<777.558 1085.31> 812.662 167.764<134.533 474.861> 896.196 156.464<841.341 1142.47>
LayerCount: 3
Fore
SplineSet
1048.43 970 m 0xd4
 1012.43 704 766.426 642 766.426 642 c 1
 766.426 642 980.426 585.158 980.426 318.619 c 0
 980.426 293.631 978.536 266.8 974.426 238 c 0
 938.426 -28 700.426 -140 464.426 -140 c 0
 250.444 -140 60.2822 -44.7217 60.2822 178.791 c 0xe8
 60.2822 197.612 61.6299 217.341 64.4268 238 c 0
 112.427 574 384.426 642 384.426 642 c 1
 382.584 643.842 194.052 691.509 194.052 913.2 c 0
 194.052 932.166 195.432 952.406 198.427 974 c 0
 230.427 1208 420.426 1344 672.426 1344 c 0
 905.729 1344 1052.66 1229.39 1052.66 1030.44 c 0
 1052.66 1011.08 1051.27 990.925 1048.43 970 c 0xd4
566.426 582 m 1
 346.426 552 256.426 424 234.427 260 c 0
 231.518 238.969 230.086 219.415 230.086 201.27 c 0
 230.086 57.2148 320.338 2 478.426 2 c 0
 678.426 2 782.426 72 808.426 260 c 0
 811.162 280.79 812.662 301.355 812.662 321.446 c 0
 812.662 448.239 752.882 556.104 566.426 582 c 1
586.426 698 m 1
 712.426 714 862.426 750 892.426 966 c 0
 894.955 984.122 896.196 1001.11 896.196 1017.01 c 0
 896.196 1151.97 806.726 1208 656.426 1208 c 0
 498.426 1208 378.426 1140 354.426 972 c 0
 351.366 949.17 349.858 928.224 349.858 908.998 c 0xd4
 349.858 764.848 434.667 717.411 586.426 698 c 1
EndSplineSet
EndChar

StartChar: nine
Encoding: 57 57 25
Width: 1145
GlyphClass: 2
Flags: W
HStem: -282 144<240.949 365.128> 244 134<344.903 676.661> 1050 142<441.894 767.537>
VStem: 107.176 157.032<455.802 829.417> 879.647 167.353<527.972 931.424>
LayerCount: 3
Fore
SplineSet
268.94 674 m 0
 265.728 650.105 264.208 628.025 264.208 607.635 c 0
 264.208 424.938 386.193 378 504.94 378 c 0
 708.94 378 850.94 528 850.94 528 c 1
 860.94 562 866.94 598 872.94 634 c 0
 877.107 664.561 879.647 697.052 879.647 729.881 c 0
 879.647 886.112 822.141 1050 608.94 1050 c 0
 378.94 1050 294.94 862 268.94 674 c 0
476.94 244 m 0
 239.446 244 107.176 395.459 107.176 617.24 c 0
 107.176 643.861 109.082 671.494 112.94 700 c 0
 152.94 994 344.94 1192 624.94 1192 c 0
 907.664 1192 1047 997.726 1047 745.91 c 0
 1047 710.929 1044.31 674.836 1038.94 638 c 0
 1034.94 616 1032.94 594 1028.94 572 c 0
 922.94 78 624.94 -190 242.94 -282 c 1
 222.94 -138 l 1
 560.94 -64 716.94 144 808.94 388 c 1
 722.94 296 614.94 244 476.94 244 c 0
EndSplineSet
EndChar

StartChar: colon
Encoding: 58 58 26
Width: 474
GlyphClass: 2
Flags: W
HStem: 12 196<156 324> 652 196<246 412>
VStem: 130 310
LayerCount: 3
Fore
SplineSet
246 848 m 1
 440 848 l 1
 412 652 l 1
 220 652 l 1
 246 848 l 1
156 208 m 1
 350 208 l 1
 324 12 l 1
 130 12 l 1
 156 208 l 1
EndSplineSet
Validated: 1
EndChar

StartChar: semicolon
Encoding: 59 59 27
Width: 492
GlyphClass: 2
Flags: W
HStem: -186 62<128.136 171.246> 2 196<154 244> 632 222<238 418>
VStem: 108 340
LayerCount: 3
Fore
SplineSet
124 2 m 1
 154 198 l 1
 352 198 l 1
 352 198 352.125 194 352.125 186.594 c 0
 352.125 164.375 351 111.5 342 44 c 0
 324 -94 276 -146 134 -186 c 1
 128 -174 116 -136 108 -124 c 1
 172 -102 214 -72 244 0 c 1
 124 2 l 1
238 854 m 1
 448 854 l 1
 418 632 l 1
 206 632 l 1
 238 854 l 1
EndSplineSet
Validated: 1
EndChar

StartChar: at
Encoding: 64 64 28
Width: 1844
GlyphClass: 2
Flags: W
HStem: -130 134<576.051 1124.44> 198 132<646.292 918.7 1206 1375.88> 988 108<1065.8 1222> 1008 120<884.174 1219.85> 1316 134<814.301 1309.4>
VStem: 137.079 147.265<275.103 738.285> 454.447 143.116<378.887 709.809> 1572.35 148.45<613.611 1078.77>
LayerCount: 3
Fore
SplineSet
1062 1008 m 0xdf
 844 1008 636 824 602 574 c 0
 599.039 551.928 597.563 531.377 597.563 512.338 c 0
 597.563 389.915 658.573 330 778 330 c 0
 974 330 1098 488 1166 750 c 1
 1222 988 l 1xef
 1214 988 1128 1008 1062 1008 c 0xdf
146 592 m 0
 216 1094 622 1450 1056 1450 c 0
 1444.4 1450 1720.8 1252.36 1720.8 876.513 c 0
 1720.8 838.188 1717.92 798.01 1712 756 c 0
 1644 280 1328 200 1194 200 c 1
 1119.76 201.65 1097.23 237.321 1097.23 292.422 c 0
 1097.23 304.119 1098.25 316.691 1100 330 c 0
 1104 362 1106 364 1142 496 c 1
 1132 498 l 1
 1132 498 1040 198 740 198 c 0
 559.749 198 454.447 316.67 454.447 509.86 c 0
 454.447 535.313 456.275 562.06 460 590 c 0
 496 852 760 1128 1062 1128 c 0xdf
 1142 1128 1298 1096 1324 1096 c 1
 1360 986 l 1
 1206 318 l 1
 1308 318 1508 370 1564 758 c 0
 1569.61 797.673 1572.35 835.124 1572.35 870.386 c 0
 1572.35 1174.66 1368.4 1316 1044 1316 c 0
 638 1316 346 974 292 588 c 0
 286.885 552.193 284.344 517.599 284.344 484.347 c 0
 284.344 192.57 479.946 4 848 4 c 0
 1176 4 1332 158 1332 158 c 1
 1344 140 1382 84 1394 68 c 1
 1394 68 1230 -126 822 -130 c 1
 410.545 -130 137.079 93.4094 137.079 470.256 c 0
 137.079 509.223 140.002 549.83 146 592 c 0
EndSplineSet
Validated: 1
EndChar

StartChar: A
Encoding: 65 65 29
Width: 1370
GlyphClass: 2
Flags: W
HStem: 0 21G<0 202.377 1039.38 1240> 382 104<396 978> 1554 20G<695.055 975.405>
LayerCount: 3
Fore
SplineSet
992 382 m 1
 354 382 l 1
 194 0 l 1
 0 0 l 1
 704 1574 l 1
 972 1574 l 1
 1240 0 l 1
 1042 0 l 1
 992 382 l 1
834 1530 m 1
 702 1202 l 1
 396 486 l 1
 978 486 l 1
 870 1202 l 1
 834 1530 l 1
EndSplineSet
Validated: 1
EndChar

StartChar: B
Encoding: 66 66 30
Width: 1320
GlyphClass: 2
Flags: W
HStem: 0 144<310 859.157> 786 130<418 903.523> 1436 138<492 1020.07>
VStem: 1072 168<330.954 684.305> 1110 156<1061.94 1355.51>
LayerCount: 3
Fore
SplineSet
678 916 m 2xe8
 920 916 1110 974 1110 1208 c 0
 1110 1220 1110 1234 1110 1244 c 0
 1110 1388 1000 1436 670 1436 c 2
 492 1436 l 1
 418 916 l 1
 678 916 l 2xe8
538 144 m 2
 818 144 1072 184 1072 532 c 0xf0
 1072 730 934 786 664 786 c 2
 400 786 l 1
 310 144 l 1
 538 144 l 2
1240 528 m 0
 1240 106 910 0 518 0 c 2
 108 0 l 1
 332 1574 l 1
 684 1574 l 2
 1110 1574 1266 1492 1266 1270 c 0xe8
 1266 944 1044 882 912 862 c 1
 1038 848 1240 780 1240 528 c 0
EndSplineSet
Validated: 1
EndChar

StartChar: C
Encoding: 67 67 31
Width: 1265
GlyphClass: 2
Flags: W
HStem: -40 150<499.735 900.432> 1458 152<712.855 1113.22>
VStem: 142 186<307.385 908.405>
LayerCount: 3
Back
SplineSet
958 1458 m 4xbc
 472 1458 372 856 372 556 c 0
 372 230 514 110 740 110 c 0xbc
 1005 110 1122 243 1140 387 c 2
 1178 684 l 1
 1016 684 l 1
 794 684 l 1
 814 812 l 1
 1360 812 l 1
 1246 0 l 1
 1149 0 l 1x7c
 1149 171 l 1
 1149 171 1032 -40 708 -40 c 0
 384 -40 186 138 186 552 c 0
 186 952 352 1610 972 1610 c 4
 1106 1610 1264 1547 1351 1461 c 5
 1293 1323 l 5
 1205 1406 1092 1458 958 1458 c 4xbc
EndSplineSet
Fore
SplineSet
926 1610 m 0
 1060 1610 1218 1547 1305 1461 c 1
 1247 1323 l 1
 1159 1406 1046 1458 912 1458 c 0
 424 1458 328 824 328 562 c 0
 328 218 480 110 698 110 c 0
 920 110 1048 239 1048 239 c 1
 1065 90 l 2
 1065 90 902 -40 656 -40 c 0
 362 -40 142 122 142 558 c 0
 142 956 308 1610 926 1610 c 0
EndSplineSet
EndChar

StartChar: D
Encoding: 68 68 32
Width: 1420
GlyphClass: 2
Flags: W
HStem: 0 144<310 832.008> 1436 138<492 1018.42>
VStem: 1180 184<631.835 1260.55>
LayerCount: 3
Fore
SplineSet
644 144 m 2
 1102 144 1180 728 1180 1012 c 0
 1180 1316 1058 1436 826 1436 c 2
 492 1436 l 1
 310 144 l 1
 644 144 l 2
1364 1010 m 0
 1364 688 1258 0 622 0 c 2
 108 0 l 1
 332 1574 l 1
 846 1574 l 2
 1158 1574 1364 1422 1364 1010 c 0
EndSplineSet
Validated: 1
EndChar

StartChar: E
Encoding: 69 69 33
Width: 1181
GlyphClass: 2
Flags: W
HStem: 0 144<310 1024> 776 114<416 1030> 1436 138<492 1212>
LayerCount: 3
Fore
SplineSet
1024 0 m 1
 108 0 l 1
 332 1574 l 1
 1232 1574 l 1
 1212 1436 l 1
 492 1436 l 1
 416 890 l 1
 1044 890 l 1
 1030 776 l 1
 400 776 l 1
 310 144 l 1
 1042 144 l 1
 1024 0 l 1
EndSplineSet
Validated: 1
EndChar

StartChar: F
Encoding: 70 70 34
Width: 1068
GlyphClass: 2
Flags: W
HStem: 0 21G<108 292.887> 762 116<416 1016> 1436 138<494 1168>
LayerCount: 3
Fore
SplineSet
400 762 m 1
 290 0 l 1
 108 0 l 1
 332 1574 l 1
 1188 1574 l 1
 1168 1436 l 1
 494 1436 l 1
 416 878 l 1
 1032 878 l 1
 1016 762 l 1
 400 762 l 1
EndSplineSet
Validated: 1
EndChar

StartChar: G
Encoding: 71 71 35
Width: 1412
GlyphClass: 2
Flags: W
HStem: -40 150<505.591 897.176> 0 21G<1105 1204.81> 684 128<770 1134> 1458 152<714.793 1115.22>
VStem: 142 186<298.822 912.557> 1105 97<0 102.113>
LayerCount: 3
Back
SplineSet
938 1458 m 4xbc
 452 1458 372 856 372 556 c 4
 372 230 508 110 740 110 c 4xbc
 980 110 1122 250 1122 250 c 5
 1178 684 l 5
 1016 684 l 5
 794 684 l 5
 814 812 l 5
 1360 812 l 5
 1246 0 l 5
 1164 0 l 5x7c
 1134 132 l 5
 1134 132 982 -40 708 -40 c 4
 384 -40 186 138 186 552 c 4
 186 952 332 1610 952 1610 c 4
 1086 1610 1232 1576 1338 1514 c 5
 1316 1366 l 5
 1210 1424 1072 1458 938 1458 c 4xbc
EndSplineSet
Fore
SplineSet
914 1458 m 4xbc
 428 1458 328 856 328 556 c 4
 328 230 470 110 696 110 c 4xbc
 961 110 1078 243 1096 387 c 6
 1134 684 l 5
 972 684 l 5
 750 684 l 5
 770 812 l 5
 1316 812 l 5
 1202 0 l 5
 1105 0 l 5x7c
 1105 171 l 5
 1105 171 988 -40 664 -40 c 4
 340 -40 142 138 142 552 c 4
 142 952 308 1610 928 1610 c 4
 1062 1610 1220 1547 1307 1461 c 5
 1249 1323 l 5
 1161 1406 1048 1458 914 1458 c 4xbc
EndSplineSet
EndChar

StartChar: H
Encoding: 72 72 36
Width: 1466
GlyphClass: 2
Flags: W
HStem: 0 21G<108 292.827 1062 1246.82> 764 114<414 1172> 1554 20G<329.154 512 1281.18 1466>
LayerCount: 3
Fore
SplineSet
1062 0 m 1
 1172 764 l 1
 398 764 l 1
 290 0 l 1
 108 0 l 1
 332 1574 l 1
 512 1574 l 1
 414 878 l 1
 1186 878 l 1
 1284 1574 l 1
 1466 1574 l 1
 1244 0 l 1
 1062 0 l 1
EndSplineSet
Validated: 1
EndChar

StartChar: I
Encoding: 73 73 37
Width: 749
GlyphClass: 2
Flags: W
HStem: 0 102<44.3369 236.337 406.337 584.337> 1482 92<254.337 430.337 600.337 792.337>
LayerCount: 3
Fore
SplineSet
44.3369 102 m 1
 236.337 102 l 1
 430.337 1482 l 1
 240.337 1482 l 1
 254.337 1574 l 1
 804.337 1574 l 1
 792.337 1482 l 1
 600.337 1482 l 1
 406.337 102 l 1
 598.337 102 l 1
 584.337 0 l 1
 30.3369 0 l 1
 44.3369 102 l 1
EndSplineSet
EndChar

StartChar: J
Encoding: 74 74 38
Width: 718
GlyphClass: 2
Flags: W
HStem: -90 124<28 155.027> 1554 20G<515.185 698>
LayerCount: 3
Fore
SplineSet
28 -90 m 1
 0 34 l 1
 304 84 328 214 364 480 c 2
 518 1574 l 1
 698 1574 l 1
 548 514 l 2
 512 258 454 -90 28 -90 c 1
EndSplineSet
Validated: 1
EndChar

StartChar: K
Encoding: 75 75 39
Width: 1264
GlyphClass: 2
Flags: W
HStem: 0 21G<108 292.811 991.081 1206> 740 106<410 598> 1554 20G<329.154 512 1160.62 1374>
LayerCount: 3
Fore
SplineSet
394 740 m 1
 290 0 l 1
 108 0 l 1
 332 1574 l 1
 512 1574 l 1
 410 846 l 1
 616 846 l 1
 1176 1574 l 1
 1374 1574 l 1
 866 938 l 1
 722 784 l 1
 902 542 1044 262 1206 0 c 1
 1002 0 l 1
 598 740 l 1
 394 740 l 1
EndSplineSet
Validated: 1
EndChar

StartChar: L
Encoding: 76 76 40
Width: 1094
GlyphClass: 2
Flags: W
HStem: 0 144<290 964> 1554 20G<309.154 492>
LayerCount: 3
Fore
SplineSet
964 0 m 1
 88 0 l 1
 312 1574 l 1
 492 1574 l 1
 290 144 l 1
 984 144 l 1
 964 0 l 1
EndSplineSet
EndChar

StartChar: M
Encoding: 77 77 41
Width: 1812
GlyphClass: 2
Flags: W
HStem: 0 21G<72.002 252.961 722.489 950.958 1420 1598.41> 1554 20G<322.775 625.292 1483.05 1786>
LayerCount: 3
Fore
SplineSet
726.002 0 m 1
 524.002 1150 l 1
 474.002 1514 l 1
 250.002 0 l 1
 72.002 0 l 1
 326.002 1574 l 1
 622.002 1574 l 1
 800.002 492 l 1
 846.002 82 l 1
 1008 492 l 1
 1492 1574 l 1
 1786 1574 l 1
 1596 0 l 1
 1420 0 l 1
 1574 1224 l 1
 1620 1514 l 1
 942.002 0 l 1
 726.002 0 l 1
EndSplineSet
EndChar

StartChar: N
Encoding: 78 78 42
Width: 1506
GlyphClass: 2
Flags: W
HStem: 0 21G<76 247.212 1005.92 1268.85> 1554 20G<295.179 566.083 1319.18 1490>
VStem: 76 168<0 89.2675> 1322 168<1473.26 1574>
LayerCount: 3
Fore
SplineSet
1266 0 m 1
 1014 0 l 1
 508 1252 l 1
 438 1472 l 1
 438 1208 l 1
 244 0 l 1
 76 0 l 1
 298 1574 l 1
 558 1574 l 1
 1064 322 l 1
 1150 114 l 1
 1150 354 l 1
 1322 1574 l 1
 1490 1574 l 1
 1266 0 l 1
EndSplineSet
EndChar

StartChar: O
Encoding: 79 79 43
Width: 1453
GlyphClass: 2
Flags: W
HStem: -40 150<493.514 855.523> 1458 152<686.345 1053.9>
VStem: 142.998 186<292.96 934.166> 1211 186<636.655 1276.75>
LayerCount: 3
Fore
SplineSet
1397 1014 m 0
 1397 616 1247 -40 654.998 -40 c 0
 352.998 -40 142.998 122 142.998 552 c 0
 142.998 950 292.998 1610 886.998 1610 c 0
 1181 1610 1397 1446 1397 1014 c 0
676.998 110 m 0
 1103 110 1211 674 1211 1018 c 0
 1211 1334 1089 1458 866.998 1458 c 0
 436.998 1458 328.998 904 328.998 558 c 0
 328.998 238 456.998 110 676.998 110 c 0
EndSplineSet
EndChar

StartChar: P
Encoding: 80 80 44
Width: 1266
GlyphClass: 2
Flags: W
HStem: 0 21G<108 292.759> 638 146<400 902.109> 1436 138<492 1000.22>
VStem: 1124 170<972.974 1342.19>
LayerCount: 3
Fore
SplineSet
560 784 m 2
 936 784 1124 860 1124 1200 c 0
 1124 1364 1030 1436 692 1436 c 2
 492 1436 l 1
 400 784 l 1
 560 784 l 2
1294 1214 m 0
 1294 754 964 638 538 638 c 2
 378 638 l 1
 290 0 l 1
 108 0 l 1
 332 1574 l 1
 700 1574 l 2
 1126 1574 1294 1470 1294 1214 c 0
EndSplineSet
Validated: 1
EndChar

StartChar: Q
Encoding: 81 81 45
Width: 1467
GlyphClass: 2
Flags: W
HStem: -424 21G<954.282 994.394> 1458 152<691.449 1063.16>
VStem: 143 186<299.414 934.473> 1227 184<627.132 1274.43>
LayerCount: 3
Back
SplineSet
749.568 -49.1523 m 4
 747.172 -27.5859 661.34 -45.5312 661.34 -35.9453 c 5
 347.444 2.39258 95.8457 232.424 95.8457 817.09 c 4
 95.8457 1461.66 402.558 1677.31 759.586 1677.31 c 4
 1116.62 1677.31 1423.32 1461.66 1423.32 817.088 c 4
 1423.32 196.484 1142.97 -21.5684 807.51 -40.7363 c 5
297.128 817.088 m 4
 297.128 323.48 457.67 115.014 759.586 115.014 c 4
 1061.5 115.014 1222.04 323.48 1222.04 817.088 c 4
 1222.04 1310.69 1061.5 1519.16 759.586 1519.16 c 4
 457.67 1519.16 297.128 1310.69 297.128 817.088 c 4
EndSplineSet
Fore
SplineSet
873 1458 m 0
 439 1458 329 904 329 558 c 0
 329 246 453 110 685 110 c 0
 1119 110 1227 666 1227 1012 c 0
 1227 1324 1105 1458 873 1458 c 0
1411 1010 m 0
 1411 686 1305 62 791 -28 c 1
 1103 -292 l 1
 975 -424 l 1
 571 -34 l 1
 327 -4 143 162 143 556 c 0
 143 948 295 1610 895 1610 c 0
 1181 1610 1411 1454 1411 1010 c 0
EndSplineSet
EndChar

StartChar: R
Encoding: 82 82 46
Width: 1327
GlyphClass: 2
Flags: W
HStem: 0 21G<108 292.834 968 1138.21> 734 128<412 845.503> 1436 138<492 1034.54>
VStem: 1018 168<293.871 627.948> 1134 160<1034.52 1348.27>
LayerCount: 3
Fore
SplineSet
1294 1244 m 0xe8
 1294 888 1000 796 854 796 c 1
 1078 770 1186 676 1186 486 c 0
 1186 458 1180 428 1180 398 c 1
 1136 0 l 5
 968 0 l 5
 1012 412 l 2
 1014 438 1018 462 1018 484 c 0xf0
 1018 678 878 734 562 734 c 2
 394 734 l 1
 290 0 l 1
 108 0 l 1
 332 1574 l 1
 682 1574 l 2
 1016 1574 1294 1558 1294 1244 c 0xe8
552 862 m 2
 882 862 1134 894 1134 1216 c 0xe8
 1134 1422 958 1436 662 1436 c 2
 492 1436 l 1
 412 862 l 1
 552 862 l 2
EndSplineSet
Validated: 1
EndChar

StartChar: S
Encoding: 83 83 47
Width: 1246
GlyphClass: 2
Flags: W
HStem: -40 150<294.112 754.453> 1458 152<542.823 967.722>
VStem: 204.995 170<1067.11 1310.08> 942.995 174.005<280.362 584.785>
LayerCount: 3
Back
SplineSet
846 1458 m 4xbc
 360 1458 260 856 260 556 c 0
 260 230 402 110 628 110 c 0xbc
 893 110 1010 243 1028 387 c 2
 1066 684 l 1
 904 684 l 1
 682 684 l 1
 702 812 l 1
 1248 812 l 1
 1134 0 l 1
 1037 0 l 1x7c
 1037 171 l 1
 1037 171 920 -40 596 -40 c 0
 272 -40 74 138 74 552 c 0
 74 952 240 1610 860 1610 c 4
 994 1610 1152 1547 1239 1461 c 5
 1181 1323 l 5
 1093 1406 980 1458 846 1458 c 4xbc
EndSplineSet
Fore
SplineSet
773.995 1610 m 0
 907.995 1610 1079 1547 1166 1461 c 1
 1108 1323 l 1
 1020 1406 893.995 1458 759.995 1458 c 0
 537.995 1458 374.995 1347 374.995 1169 c 0
 374.995 869 1117 992 1117 494 c 0
 1117 344 1039 -40 526.995 -40 c 0
 262.995 -40 108.995 88 108.995 88 c 1
 166.995 233 l 1
 166.995 233 290.995 110 512.995 110 c 0
 876.995 110 942.995 318 942.995 458 c 0
 942.995 836 204.995 684 204.995 1150 c 0
 204.995 1424 441.995 1610 773.995 1610 c 0
  Spiro
    773.994 1610 o
    915.701 1590.52 o
    1055.61 1537.79 o
    1166 1461 v
    1108 1323 v
    1008.55 1394.83 o
    890.091 1441.48 o
    759.994 1458 o
    561.684 1422.7 o
    425.378 1322.91 o
    374.994 1169 o
    567.035 971.467 o
    924.953 823.467 o
    1117 494 o
    1077.91 289.126 o
    907.25 64.9238 o
    526.994 -40 o
    301.476 -6.87169 o
    158.6 54.8717 o
    108.994 88 v
    166.994 233 v
    207.285 201.166 o
    324.777 141.834 o
    512.994 110 o
    786.062 169.003 o
    912.471 305.71 o
    942.994 458 o
    751.989 701.7 o
    395.999 847.663 o
    204.994 1150 o
    278.593 1390.83 o
    479.173 1551.74 o
    0 0 z
  EndSpiro
EndSplineSet
EndChar

StartChar: T
Encoding: 84 84 48
Width: 1045
GlyphClass: 2
Flags: W
HStem: 0 21G<360.997 541.81> 1436 138<154.997 564.997 740.997 1165>
LayerCount: 3
Fore
SplineSet
1165 1436 m 1
 740.997 1436 l 1
 538.997 0 l 1
 360.997 0 l 1
 564.997 1436 l 1
 134.997 1436 l 1
 154.997 1574 l 1
 1185 1574 l 1
 1165 1436 l 1
EndSplineSet
EndChar

StartChar: U
Encoding: 85 85 49
Width: 1428
GlyphClass: 2
Flags: W
HStem: -40 140<447.527 870.127> 1554 20G<277.158 457.995 1265.13 1448>
VStem: 139.995 176<234.131 873.625>
LayerCount: 3
Fore
SplineSet
653.995 100 m 0
 939.995 100 1078 242 1144 710 c 2
 1268 1574 l 1
 1448 1574 l 1
 1326 714 l 2
 1242 112 961.995 -40 633.995 -40 c 0
 351.995 -40 139.995 74 139.995 490 c 0
 139.995 556 145.995 630 157.995 714 c 2
 279.995 1574 l 1
 457.995 1574 l 1
 337.995 710 l 2
 325.995 616 315.995 536 315.995 468 c 0
 315.995 190 423.995 100 653.995 100 c 0
EndSplineSet
EndChar

StartChar: V
Encoding: 86 86 50
Width: 1196
GlyphClass: 2
Flags: W
HStem: 0 21G<420.976 688.691> 1554 20G<186 376.66 1165.89 1364>
VStem: 186 188<1479.19 1574>
LayerCount: 3
Fore
SplineSet
680 0 m 1
 424 0 l 1
 186 1574 l 1
 374 1574 l 1
 528 416 l 1
 562 64 l 1
 1174 1574 l 1
 1364 1574 l 1
 680 0 l 1
EndSplineSet
Validated: 1
EndChar

StartChar: W
Encoding: 87 87 51
Width: 1817
GlyphClass: 2
Flags: W
HStem: 0 21G<269.843 545.777 1139.7 1417.75> 1554 20G<180.987 363.749 1754.63 1942.99>
VStem: 180.987 182<1323.28 1574>
LayerCount: 3
Fore
SplineSet
416.987 52 m 1
 922.987 1566 l 1
 1198.99 1566 l 1
 1262.99 310 l 5
 1276.99 52 l 1
 1760.99 1574 l 1
 1942.99 1574 l 1
 1410.99 0 l 1
 1140.99 0 l 1
 1066.99 1144 l 1
 1052.99 1514 l 1
 538.987 0 l 1
 270.987 0 l 1
 180.987 1574 l 1
 362.987 1574 l 1
 410.987 314 l 1
 416.987 52 l 1
EndSplineSet
EndChar

StartChar: X
Encoding: 88 88 52
Width: 1246
GlyphClass: 2
Flags: W
HStem: 0 21G<-4.33691 218.937 901.984 1115.66> 1554 20G<221.663 435.2 1114.43 1335.66>
LayerCount: 3
Fore
SplineSet
651.663 672 m 1
 205.663 0 l 1
 -4.33691 0 l 1
 561.663 790 l 1
 221.663 1574 l 1
 427.663 1574 l 1
 681.663 900 l 1
 1127.66 1574 l 1
 1335.66 1574 l 1
 773.663 790 l 1
 1115.66 0 l 1
 909.663 0 l 1
 651.663 672 l 1
EndSplineSet
EndChar

StartChar: Y
Encoding: 89 89 53
Width: 956
GlyphClass: 2
Flags: W
HStem: 0 21G<344.313 525.111> 1554 20G<88.3135 295.555 1009.26 1220.31>
LayerCount: 3
Fore
SplineSet
632.313 872 m 1
 1020.31 1574 l 1
 1220.31 1574 l 1
 590.313 486 l 1
 522.313 0 l 1
 344.313 0 l 1
 412.313 486 l 1
 88.3135 1574 l 1
 290.313 1574 l 1
 474.313 872 l 1
 510.313 586 l 1
 632.313 872 l 1
EndSplineSet
EndChar

StartChar: Z
Encoding: 90 90 54
Width: 1148
GlyphClass: 2
Flags: W
HStem: 0 144<236 1004> 1436 138<266 1036>
LayerCount: 3
Fore
SplineSet
1224 1574 m 1
 1202 1420 l 1
 428 378 l 1
 236 144 l 1
 474 144 l 1
 1024 144 l 1
 1004 0 l 1
 46 0 l 1
 70 180 l 1
 860 1226 l 1
 1036 1436 l 1
 796 1436 l 1
 246 1436 l 1
 266 1574 l 1
 1224 1574 l 1
EndSplineSet
EndChar

StartChar: bracketleft
Encoding: 91 91 55
Width: 1188
GlyphClass: 2
Flags: W
HStem: 0 144<482 900> 1436 144<662 1100>
LayerCount: 3
Fore
SplineSet
504 1580 m 1
 1120 1580 l 1
 1100 1436 l 1
 662 1436 l 1
 482 144 l 1
 920 144 l 1
 900 0 l 1
 280 0 l 1
 504 1580 l 1
EndSplineSet
Validated: 1
EndChar

StartChar: backslash
Encoding: 92 92 56
Width: 1386
GlyphClass: 2
Flags: W
VStem: 536 468
LayerCount: 3
Fore
SplineSet
678 1730 m 1
 1004 -168 l 1
 852 -168 l 1
 536 1730 l 1
 678 1730 l 1
EndSplineSet
Validated: 1
EndChar

StartChar: bracketright
Encoding: 93 93 57
Width: 1188
GlyphClass: 2
Flags: W
HStem: 0 144<302 740> 1436 144<504 922>
LayerCount: 3
Fore
SplineSet
504 1580 m 1
 1120 1580 l 1
 900 0 l 1
 280 0 l 1
 302 144 l 1
 740 144 l 1
 922 1436 l 1
 484 1436 l 1
 504 1580 l 1
EndSplineSet
Validated: 1
EndChar

StartChar: asciicircum
Encoding: 94 94 58
Width: 1324
GlyphClass: 2
Flags: W
HStem: 358 530<702 726>
VStem: 400 624
LayerCount: 3
Fore
SplineSet
848 888 m 1
 918 688 l 2
 1024 358 l 1
 824 358 l 1
 780 794 l 1
 764 794 l 1
 598 358 l 1
 400 358 l 1
 602 688 l 2
 726 888 l 1
 848 888 l 1
EndSplineSet
EndChar

StartChar: underscore
Encoding: 95 95 59
Width: 1168
GlyphClass: 2
Flags: W
HStem: -110 142<120 974>
LayerCount: 3
Fore
SplineSet
974 -110 m 1
 100 -110 l 1
 120 32 l 1
 996 32 l 1
 974 -110 l 1
EndSplineSet
Validated: 1
EndChar

StartChar: grave
Encoding: 96 96 60
Width: 714
GlyphClass: 2
Flags: W
HStem: 356 620<406 474>
VStem: 406 74<356 407.082>
LayerCount: 3
Fore
SplineSet
480 356 m 1
 406 356 l 1
 232 976 l 1
 474 976 l 1
 480 356 l 1
EndSplineSet
Validated: 1
EndChar

StartChar: a
Encoding: 97 97 61
Width: 1092
GlyphClass: 2
Flags: W
HStem: -20 130<305.372 573.586> 0 21G<747 879.835> 1012 118<507.575 846.995>
VStem: 68 155<195.685 662.428> 754 123<0 101.148>
LayerCount: 3
Back
SplineSet
734 0 m 5xf0
 890 1110 l 5
 1060 1110 l 5xe8
 904 0 l 5
 734 0 l 5xf0
EndSplineSet
Fore
SplineSet
1021 1016 m 5xb8
 877 0 l 5
 747 0 l 5x78
 754 214 l 5
 678 74 549 -20 415 -20 c 4
 161 -20 68 190 68 416 c 4
 68 736 300 1130 648 1130 c 4
 814 1130 1021 1016 1021 1016 c 5xb8
223 422 m 4
 223 206 287.888 110 435 110 c 4xb8
 576 110 710 238 754 304 c 5
 850.004 975 l 5
 796 995 740.447 1010.74 667 1012 c 5
 428 1012 223 742 223 422 c 4
EndSplineSet
Layer: 2
SplineSet
1020 1018 m 1
 802 -517 l 1
 629 -575 l 1
 747.001 253.672 l 1
 686.333 132.334 524 -19 367 -19 c 0
 115 -19 63 193 63 417 c 0
 63 725 213 1131 561 1131 c 0
 695 1131 903 1096 1020 1018 c 1
565 1018 m 0
 289 1018 223 543 223 405 c 0
 223 263 227 113 385 113 c 0
 529 113 690 261 762 379 c 1
 849 979 l 1
 849 979 739 1018 565 1018 c 0
EndSplineSet
EndChar

StartChar: b
Encoding: 98 98 62
Width: 1094
GlyphClass: 2
Flags: W
HStem: -20 113<222.834 633.682> 998 132<548.383 795.974>
VStem: 846 160<423.741 947.432>
LayerCount: 3
Back
SplineSet
60.0137 0 m 5xf0
 216.014 1110 l 5
 386.014 1110 l 5xe8
 230.014 0 l 5
 60.0137 0 l 5xf0
EndSplineSet
Fore
SplineSet
49 93 m 5
 267 1628 l 5
 440 1686 l 5
 321.999 857.329 l 5
 382.667 978.667 545 1130 702 1130 c 4
 954 1130 1006 918 1006 694 c 4
 1006 386 856 -20 508 -20 c 4
 374 -20 166 15 49 93 c 5
504 93 m 4
 780 93 846 568 846 706 c 4
 846 848 842 998 684 998 c 4
 540 998 379 850 307 732 c 5
 220 132 l 5
 220 132 330 93 504 93 c 4
EndSplineSet
Layer: 2
SplineSet
725 0 m 5xd8
 817 636 l 6
 821 674 829.884 761 829.884 791 c 4
 829.884 929 805 999 703 999 c 4xd8
 583 999 382 850 307 732 c 5
 202 0 l 5
 35 0 l 5
 195 1110 l 5
 317 1110 l 5xb8
 317 849 l 5
 517 1110.02 649 1130 781 1130 c 4
 943 1130 1003.88 1020 1003.88 837 c 4
 1003.88 801 991 680 985 636 c 6
 891 0 l 5
 725 0 l 5xd8
EndSplineSet
EndChar

StartChar: c
Encoding: 99 99 63
Width: 946
GlyphClass: 2
Flags: W
HStem: -22 132<343.645 656.256> 997 133<467.205 779.472>
VStem: 86 162<211.518 699.473>
LayerCount: 3
Back
SplineSet
591.872 1056.77 m 0
 415.744 1056.77 286.72 952.32 264.192 681.984 c 1
 872.448 681.984 l 1
 872.448 696.32 872.448 704.512 872.448 716.8 c 0
 872.448 978.944 739.328 1056.77 591.872 1056.77 c 0
917.504 243.712 m 5
 974.216 110.594 l 5
 974.216 110.594 798.72 -22.5273 600.064 -22.5273 c 4
 278.528 -22.5273 75.7754 192.512 75.7754 577.536 c 0
 75.7754 995.328 315.392 1189.89 593.92 1189.89 c 0
 882.688 1189.89 1028.1 976.896 1028.1 675.84 c 0
 1028.1 636.928 1026.05 610.304 1019.9 567.296 c 1
 258.048 567.296 l 1
 258.048 239.616 393.216 126.977 604.16 126.977 c 4
 796.672 126.977 917.504 243.712 917.504 243.712 c 5
EndSplineSet
Fore
SplineSet
86 408 m 4
 86 654 194 1130 628 1130 c 4
 800 1130 934 1000 934 1000 c 5
 866 872 l 5
 866 872 788 997 624 997 c 4
 332 997 248 646 248 410 c 4
 248 210 329 110 491 110 c 4
 655 110 778 236 778 236 c 5
 810 110 l 5
 810 110 640 -22 468 -22 c 4
 230 -22 86 128 86 408 c 4
EndSplineSet
Layer: 2
SplineSet
637 998 m 4
 341 998 258 620 258 426 c 4
 258 232 338 110 504 110 c 4
 798 110 872 486 872 682 c 4
 872 876 803 998 637 998 c 4
96 426 m 4
 96 686 228 1130 646 1130 c 4
 926 1130 1034 924 1034 680 c 4
 1034 342 852 -21 484 -21 c 4
 206 -21 96 182 96 426 c 4
EndSplineSet
EndChar

StartChar: d
Encoding: 100 100 64
Width: 1099
GlyphClass: 2
Flags: W
HStem: -20 130<323.868 585.055> 0 21G<776 895.869> 998 132<446.592 724.077>
VStem: 86 160<195.556 698.509> 776 117<0 99.9286>
LayerCount: 3
Back
SplineSet
732.404 0 m 5xf0
 888.404 1110 l 5
 1058.4 1110 l 5xe8
 902.404 0 l 5
 732.404 0 l 5xf0
EndSplineSet
Fore
SplineSet
86 416 m 0xb8
 86 718 234 1130 582 1130 c 0
 768 1130 862 950 862 950 c 1
 960 1652 l 1
 1130 1652 l 1
 893 0 l 1
 776 0 l 1x78
 776 182 l 1
 690 76 556 -20 422 -20 c 0
 168 -20 86 190 86 416 c 0xb8
573 998 m 0
 313 998 246 584 246 408 c 0
 246 264 284 110 444 110 c 0xb8
 618 110 767 282 767 282 c 1
 846 838 l 1
 846 838 747 998 573 998 c 0
EndSplineSet
Layer: 2
SplineSet
1263 1658 m 4
 1363 1658 1451 1572 1451 1566 c 5
 1379 1442 l 5
 1349 1478 1305 1516 1245 1516 c 4
 1151 1516 1105 1474 1073 1244 c 6
 1051 1110 l 5
 1357 1110 l 5
 1348 1036 l 5
 1046 1036 l 5
 898 12 l 6
 864.435 -224.475 764.314 -426 763 -426 c 5
 620 -357 l 5
 620 -357 698.106 -211.453 729.812 9 c 6
 880 1036 l 5
 712 1036 l 5
 725 1110 l 5
 895 1110 l 5
 907 1198 l 6
 963 1588 1094 1658 1263 1658 c 4
EndSplineSet
EndChar

StartChar: e
Encoding: 101 101 65
Width: 978
GlyphClass: 2
Flags: W
HStem: -21 131<334.716 654.305> 434 87<240 501.509> 1000 130<520.931 775.165>
VStem: 81 157<216.491 434 521 672.577> 805.686 133.389<731.055 970.074>
LayerCount: 3
Back
SplineSet
626 992 m 4
 330 992 258 620 258 426 c 4
 258 232 338 116 504 116 c 4
 798 116 872 486 872 682 c 4
 872 876 792 992 626 992 c 4
96 426 m 4
 96 686 228 1130 646 1130 c 4
 926 1130 1034 924 1034 680 c 4
 1034 342 852 -20 484 -20 c 4
 206 -20 96 182 96 426 c 4
EndSplineSet
Fore
SplineSet
240 521 m 1
 482 520 805.686 647.999 805.686 853.128 c 0
 805.686 928 779 1000 659 1000 c 0
 487 1000 249 756 240 521 c 1
238 434 m 1
 239 208 320.075 110 481.075 110 c 0
 648.075 110 773.075 237 773.075 237 c 2
 805.075 110 l 1
 754.075 74 623.075 -21 451.075 -21 c 0
 207.075 -21 81 155 81 412 c 0
 81 802 373 1130 649 1130 c 0
 857 1130 939.075 1000 939.075 864.521 c 0
 939.075 552 567 434 238 434 c 1
EndSplineSet
Layer: 2
SplineSet
92 408 m 4
 92 654 200 1130 634 1130 c 4
 806 1130 940 1000 940 1000 c 5
 872 872 l 5
 872 872 794 997 630 997 c 4
 338 997 254 646 254 410 c 4
 254 210 335 110 497 110 c 4
 661 110 784 236 784 236 c 5
 816 110 l 5
 816 110 646 -22 474 -22 c 4
 236 -22 92 128 92 408 c 4
EndSplineSet
EndChar

StartChar: f
Encoding: 102 102 66
Width: 720
GlyphClass: 2
Flags: W
HStem: 1036 74<142 297 468 765> 1516 142<559.452 767.618>
DStem2: 125.723 -147 291 -147 0.139173 0.990268<23.0021 1195.32 1292.4 1646.5>
LayerCount: 3
Back
SplineSet
627.1 204 m 5
 671.1 94 l 5
 671.1 94 521.1 -16 399.1 -16 c 4
 249.1 -16 191.1 72 191.1 224 c 4
 191.1 262 194.389 302.1 201.1 350 c 6
 297.204 1036.01 l 5
 143.203 1036.01 l 5
 153.1 1110 l 5
 323.1 1110 l 5
 399.1 1556 l 5
 543.1 1602 l 5
 475.1 1110 l 5
 729.1 1110 l 5
 717.204 1036.01 l 5
 463.204 1036.01 l 5
 361.1 300 l 6
 357.758 275.906 353.1 234 353.1 210 c 4
 353.1 158 367.1 118 429.1 118 c 4
 495.1 118 627.1 204 627.1 204 c 5
EndSplineSet
Fore
SplineSet
125.806 -146.411 m 1
 297 1036 l 1
 129 1036 l 1
 142 1110 l 1
 312 1110 l 1
 324 1198 l 2
 380 1588 511 1658 680 1658 c 0
 780 1658 868 1572 868 1566 c 1
 796 1442 l 1
 766 1478 722 1516 662 1516 c 0
 568 1516 522 1474 490 1244 c 2
 468 1110 l 1
 774 1110 l 1
 765 1036 l 1
 463 1036 l 1
 291 -147 l 2
 125.806 -146.411 l 1
EndSplineSet
Layer: 2
SplineSet
1114 696 m 0xec
 1114 396 968 -20 620 -20 c 0
 498 -20 394 60 338 158 c 1
 250 -464 l 1
 78 -488 l 1
 302 1110 l 1
 426 1110 l 1xdc
 426 918 l 1
 520 1032 648 1130 782 1130 c 0
 1034 1130 1114 918 1114 696 c 0xec
432 826 m 1
 354 272 l 1
 354 272 464 122 638 122 c 0
 854 122 918 384 942 556 c 0
 948 604 954 652 954 706 c 0
 954 848 916 988 758 988 c 0xec
 584 988 432 826 432 826 c 1
EndSplineSet
EndChar

StartChar: g
Encoding: 103 103 67
Width: 1073
GlyphClass: 2
Flags: W
HStem: -434 140<189.767 683.228> 990 154<946.898 1139> 1008 126<419.46 743.171>
VStem: -20 142<-231.643 -32.9984> 75 137<217.5 345.236> 158 152<628.209 904.06> 810 148<-194.811 -5.4551 674.716 942.103>
LayerCount: 3
Back
SplineSet
713.508 -175.99 m 4
 685.658 -359.656 618.866 -444.814 496.594 -426.274 c 4
 320.826 -399.622 216.418 -227.27 216.36 -227.222 c 6
 150.334 -338.652 l 5
 156.457 -343.518 291.104 -548.186 492.534 -578.73 c 4
 694.676 -609.382 841.53 -451.692 880 -198 c 4
EndSplineSet
Fore
SplineSet
590 1008 m 0xa6
 374 1008 310 874 310 748 c 0
 310 627 400 568 526 568 c 0
 742 568 805 691 805 820 c 0
 805 944 724 1008 590 1008 c 0xa6
437 -294 m 0
 586 -294 810 -252 810 -89 c 0
 810 22 662 61 545 77 c 2
 340 105 l 1
 260 54 122 -16 122 -138 c 0x92
 122 -250 235 -294 437 -294 c 0
418 -434 m 0
 154 -434 -20 -334 -20 -172 c 0xd2
 -20 -7 143 83 245 136 c 1
 139 174 75 171 75 264 c 0xca
 75 415 194 431 392 480 c 1
 262 505 158 614 158 756 c 0
 158 870 223 1134 604 1134 c 0xa6
 753 1134 849 1052 849 1052 c 1
 926 1090 l 2
 967 1110 1074 1144 1134 1144 c 2
 1161 1144 l 1
 1139 990 l 1
 898 990 l 1
 920 947 l 1
 940 905 952 861 952 818 c 0
 952 675 850 514 660 460 c 2
 254 345 l 2
 242 342 212 348 212 305 c 0xca
 212 283 227 278 245 272 c 0
 527 186 958 238 958 -77 c 0
 958 -360 676 -434 418 -434 c 0
EndSplineSet
Layer: 2
SplineSet
590 1008 m 4xa5
 374 1008 310 874 310 748 c 4
 310 627 400 568 526 568 c 4
 742 568 805 691 805 820 c 4
 805 944 724 1008 590 1008 c 4xa5
333 -294 m 4
 580 -294 790 -268 790 -82 c 4
 790 29 662 61 545 77 c 6
 340 105 l 5
 260 54 122 4 122 -118 c 4x92
 122 -230 232 -294 333 -294 c 4
314 -434 m 4
 149 -434 -20 -314 -20 -152 c 4xd2
 -20 13 143 83 245 136 c 5
 139 174 75 171 75 264 c 4xc8
 75 415 194 431 392 480 c 5
 262 505 158 614 158 756 c 4
 158 870 223 1134 604 1134 c 4xa4
 753 1134 849 1052 849 1052 c 5
 926 1090 l 6
 967 1110 1074 1144 1134 1144 c 6
 1161 1144 l 5
 1139 990 l 5
 898 990 l 5
 920 947 l 5
 940 905 952 861 952 818 c 4
 952 675 850 514 660 460 c 6
 254 345 l 6
 242 342 212 348 212 305 c 4xc9
 212 283 227 278 245 272 c 4
 527 186 938 245 938 -70 c 4
 938 -372 682 -434 314 -434 c 4
EndSplineSet
EndChar

StartChar: h
Encoding: 104 104 68
Width: 1085
GlyphClass: 2
Flags: W
HStem: 0 21G<49.9717 218.841 740.972 910.874> 998 132<591.881 810.662>
VStem: 842.972 171.998<431.25 970.916>
LayerCount: 3
Back
SplineSet
747.994 0 m 1xf0
 903.994 1110 l 1
 1073.99 1110 l 1xe8
 917.994 0 l 1
 747.994 0 l 1xf0
EndSplineSet
Fore
SplineSet
740.972 0 m 1
 836.972 684 l 2
 840.972 722 842.972 762 842.972 792 c 0
 842.972 926 825.972 998 717.972 998 c 0
 587.972 999 432.972 904 320.972 732 c 1
 215.972 0 l 1
 49.9717 0 l 1
 281.972 1628 l 1
 453.472 1686 l 1
 337.171 857.197 l 1
 431.972 999 584.972 1130 770.972 1130 c 0
 948.972 1130 1014.97 1028 1014.97 816 c 0
 1014.97 780 1015.76 742.757 1008.97 696 c 2
 907.972 0 l 1
 740.972 0 l 1
EndSplineSet
Layer: 2
SplineSet
739 0 m 5xd8
 831 636 l 6
 835 674 843.884 761 843.884 791 c 4
 843.884 929 819 999 717 999 c 4xd8
 597 999 396 850 321 732 c 5
 216 0 l 5
 49 0 l 5
 209 1110 l 5
 331 1110 l 5xb8
 331 849 l 5
 531 1110.02 663 1130 795 1130 c 4
 957 1130 1017.88 1020 1017.88 837 c 4
 1017.88 801 1005 680 999 636 c 6
 905 0 l 5
 739 0 l 5xd8
EndSplineSet
EndChar

StartChar: j
Encoding: 106 106 70
Width: 526
GlyphClass: 2
Flags: W
HStem: -372 21G<-54.2105 33> 1090 20G<273.164 445> 1382 256<351.37 497.453>
VStem: 308 232<1423.17 1595.05>
LayerCount: 3
Back
SplineSet
120 0 m 5xf0
 276 1110 l 5
 446 1110 l 5xe8
 290 0 l 5
 120 0 l 5xf0
EndSplineSet
Fore
SplineSet
276 1110 m 1
 445 1110 l 1
 307 156 l 2
 267 -140 116 -328 -50 -372 c 1
 -74 -258 l 1
 86 -150 113 -40 143 172 c 6
 276 1110 l 1
540 1532 m 0
 540 1454 476 1382 410 1382 c 0
 350 1382 308 1430 308 1490 c 0
 308 1566 372 1638 444 1638 c 0
 500 1638 540 1590 540 1532 c 0
EndSplineSet
Layer: 2
SplineSet
649 1658 m 4
 749 1658 837 1572 837 1566 c 5
 765 1442 l 5
 735 1478 691 1516 631 1516 c 4
 537 1516 491 1474 459 1244 c 6
 437 1110 l 5
 743 1110 l 5
 734 1036 l 5
 432 1036 l 5
 284 12 l 6
 250.435 -224.475 150.314 -426 149 -426 c 5
 6 -357 l 5
 6 -357 84.1064 -211.453 115.812 9 c 6
 266 1036 l 5
 98 1036 l 5
 111 1110 l 5
 281 1110 l 5
 293 1198 l 6
 349 1588 480 1658 649 1658 c 4
EndSplineSet
EndChar

StartChar: k
Encoding: 107 107 71
Width: 990
GlyphClass: 2
Flags: W
HStem: 0 21G<49 216.944 720.176 921> 1090 20G<835.366 1049>
DStem2: 49 0 214 0 0.139173 0.990268<22.9636 455.566 625.271 1645.01> 301 596 495 602 0.734297 0.678828<146.527 757.187>
LayerCount: 3
Back
SplineSet
54.0078 0 m 5xf0
 210.008 1110 l 5
 380.008 1110 l 5xe8
 224.008 0 l 5
 54.0078 0 l 5xf0
EndSplineSet
Fore
SplineSet
857 1110 m 1
 1049 1110 l 1
 495 602 l 1
 605 466 l 1
 921 0 l 1
 733 0 l 1
 397 524 l 1
 277 428 l 5
 214 0 l 5
 49 0 l 1
 281.5 1628.5 l 1
 454 1686 l 1
 301 596 l 1
 857 1110 l 1
EndSplineSet
Layer: 2
SplineSet
70 93 m 5
 288 1628 l 5
 461 1686 l 5
 359 954 l 5
 359 954 507 1130 693 1130 c 4
 945 1130 1027 918 1027 694 c 4
 1027 386 877 -20 529 -20 c 4
 395 -20 187 15 70 93 c 5
525 93 m 4
 801 93 867 568 867 706 c 4
 867 848 833 998 675 998 c 4
 501 998 343 838 343 838 c 5
 241 132 l 5
 241 132 351 93 525 93 c 4
EndSplineSet
EndChar

StartChar: l
Encoding: 108 108 72
Width: 520
GlyphClass: 2
Flags: W
HStem: 0 21G<107 274.839>
VStem: 107 404.33
LayerCount: 3
Back
SplineSet
111.5 0 m 5xf0
 267.5 1110 l 5
 437.5 1110 l 5xe8
 281.5 0 l 5
 111.5 0 l 5xf0
EndSplineSet
Fore
SplineSet
107 0 m 5
 339.333 1626.66 l 5
 511.33 1686 l 5
 272 0 l 5
 107 0 l 5
EndSplineSet
Layer: 2
SplineSet
123 93 m 5
 340 1628 l 5
 510 1686 l 5
 414 954 l 5
 414 954 560 1130 746 1130 c 4
 998 1130 1080 918 1080 694 c 4
 1080 386 930 -20 582 -20 c 4
 448 -20 240 15 123 93 c 5
578 93 m 4
 854 93 920 568 920 706 c 4
 920 848 886 998 728 998 c 4
 554 998 396 838 396 838 c 5
 294 132 l 5
 294 132 404 93 578 93 c 4
EndSplineSet
EndChar

StartChar: m
Encoding: 109 109 73
Width: 1651
GlyphClass: 2
Flags: W
HStem: 0 21G<49 218.849 669 838.901 1301 1470.87> 998 132<532.523 753.735 1154.47 1390.62> 1090 20G<205.135 331>
VStem: 208 123<1009.92 1110> 781 163<823 975.903> 1415 166<639.133 972.275>
LayerCount: 3
Back
SplineSet
1312 0 m 1xf0
 1468 1110 l 1
 1638 1110 l 1xe8
 1482 0 l 1
 1312 0 l 1xf0
EndSplineSet
Fore
SplineSet
941 724 m 1xdc
 836 0 l 1
 669 0 l 1
 771 724 l 2
 777 764 781 802 781 832 c 0
 781 932 760 998 658 998 c 0xdc
 532 998 436 918 320 730 c 1
 216 0 l 1
 49 0 l 1
 208 1110 l 1
 331 1110 l 1xbc
 331 849 l 1
 445 1058 560 1130 696 1130 c 0
 852 1130 944 1039 944 823 c 1
 1024 1064 1209 1130 1333 1130 c 0
 1497 1130 1581 1022 1581 832 c 0
 1581 802 1578 766 1573 732 c 2
 1468 0 l 1
 1301 0 l 1
 1405 728 l 2
 1410 766 1415 804 1415 834 c 0
 1415 934 1391 998 1291 998 c 0
 1175 998 1052 932 941 724 c 1xdc
EndSplineSet
Layer: 2
SplineSet
738 0 m 5xd8
 830 636 l 6
 834 674 842.884 761 842.884 791 c 4
 842.884 929 818 999 716 999 c 4xd8
 596 999 395 850 320 732 c 5
 215 0 l 5
 48 0 l 5
 208 1110 l 5
 330 1110 l 5xb8
 330 849 l 5
 530 1110.02 662 1130 794 1130 c 4
 956 1130 1016.88 1020 1016.88 837 c 4
 1016.88 801 1004 680 998 636 c 6
 904 0 l 5
 738 0 l 5xd8
EndSplineSet
EndChar

StartChar: n
Encoding: 110 110 74
Width: 1088
GlyphClass: 2
Flags: W
HStem: 0 21G<49.1162 218.985 739.116 908.072> 999 131<587.909 811.57> 1090 20G<206.233 331.116>
VStem: 209.116 122<1010.54 1110> 844 174<467.062 969.327>
LayerCount: 3
Back
SplineSet
746 0 m 5xf0
 902 1110 l 5
 1072 1110 l 5xe8
 916 0 l 5
 746 0 l 5xf0
EndSplineSet
Fore
SplineSet
739.116 0 m 5xd8
 831.116 636 l 6
 835.116 674 844 761 844 791 c 4
 844 929 819.116 999 717.116 999 c 4xd8
 597.116 999 396.116 850 321.116 732 c 5
 216.116 0 l 5
 49.1162 0 l 5
 209.116 1110 l 5
 331.116 1110 l 5xb8
 331.116 849 l 5
 531.116 1110.02 663.116 1130 795.116 1130 c 4
 957.116 1130 1018 1020 1018 837 c 4
 1018 801 1005.12 680 999.116 636 c 6
 905.116 0 l 5
 739.116 0 l 5xd8
EndSplineSet
Layer: 2
SplineSet
941 724 m 5xdc
 836 0 l 5
 669 0 l 5
 771 724 l 6
 777 764 781 802 781 832 c 4
 781 932 759 998 657 998 c 4xdc
 531 998 436 918 320 730 c 5
 216 0 l 5
 49 0 l 5
 208 1110 l 5
 331 1110 l 5xbc
 318 826 l 5
 428 1058 559 1130 695 1130 c 4
 851 1130 948 1039 944 823 c 5
 1024 1064 1203 1130 1327 1130 c 4
 1491 1130 1581 1022 1581 832 c 4
 1581 802 1578 766 1573 732 c 6
 1468 0 l 5
 1301 0 l 5
 1405 728 l 6
 1410 766 1415 804 1415 834 c 4
 1415 934 1385 998 1285 998 c 4
 1169 998 1052 932 941 724 c 5xdc
EndSplineSet
EndChar

StartChar: o
Encoding: 111 111 75
Width: 1104
GlyphClass: 2
Flags: W
HStem: -21 131<348.643 642.846> 998 132<470.369 762.825>
VStem: 86 162<220.336 704.283> 854 162<394.397 894.604>
LayerCount: 3
Back
SplineSet
92.2598 415.174 m 4xb8
 92.2598 716.952 239.336 1130.5 587.516 1130.5 c 4
 773.884 1130.5 872.448 968.704 872.448 968.704 c 5
 890.88 1110.02 l 5
 1060.6 1110.02 l 5
 904.956 0 l 5
 771.836 0 l 5x78
 769.788 182.271 l 5
 683.771 75.7754 560.892 -20.4805 427.772 -20.4805 c 4
 174.996 -20.4805 92.2598 190.316 92.2598 415.174 c 4xb8
856.064 866.304 m 5
 856.064 866.304 745.21 987.136 571.132 987.136 c 4
 356.092 987.136 288.508 727.04 263.932 555.008 c 4
 257.458 509.69 252.406 458.26 252.406 407.082 c 4
 252.406 263.992 291.908 122.881 450.3 122.881 c 4xb8
 624.378 122.881 771.836 274.432 771.836 274.432 c 5
 856.064 866.304 l 5
EndSplineSet
Fore
SplineSet
623 998 m 0
 327 998 248 620 248 426 c 0
 248 232 324 110 490 110 c 0
 784 110 854 486 854 682 c 4
 854 876 789 998 623 998 c 0
86 426 m 0
 86 686 214 1130 632 1130 c 0
 912 1130 1016 924 1016 680 c 4
 1016 342 838 -21 470 -21 c 0
 192 -21 86 182 86 426 c 0
EndSplineSet
Layer: 2
SplineSet
653 1000 m 4
 501 1000 379 904 323 652 c 5
 845 652 l 5
 849 682 l 6
 853 714 857 744 857 770 c 4
 857 944 763 1000 653 1000 c 4
873 164 m 5
 866 160 685 -21 481 -21 c 4
 251 -21 133 155 133 412 c 4
 133 802 343 1130 673 1130 c 4
 885 1130 989 984 989 760 c 4
 989 680 979 606 961 536 c 5
 303 536 l 5
 297 488 290 448 290 410 c 4
 290 224 342 110 503 110 c 4
 672 110 825 284 825 284 c 6
 873 164 l 5
EndSplineSet
EndChar

StartChar: p
Encoding: 112 112 76
Width: 1129
GlyphClass: 2
Flags: W
HStem: -20 130<407.592 685.686> 998 132<583.365 826.834> 1090 20G<226.039 350>
VStem: 229 121<1013.18 1110> 880.999 160.001<400.43 946.175>
LayerCount: 3
Back
SplineSet
84 0 m 1xf0
 240 1110 l 1
 410 1110 l 1xe8
 254 0 l 1
 84 0 l 1xf0
EndSplineSet
Fore
SplineSet
178 -369 m 17xd8
 10 -369 l 9
 229 1110 l 1
 350 1110 l 1xb8
 350 848 l 1
 456 1026 605 1130 739 1130 c 0
 991 1130 1041 918 1041 696 c 0
 1041 396 895 -20 547 -20 c 0
 425 -20 316 64 260 162 c 1
 178 -369 l 17xd8
880.999 706 m 0
 880.999 852.667 876 998 718 998 c 0xd8
 589 998 416 860 339 732 c 1
 275 273 l 1
 275 273 390 110 564 110 c 0
 780 110 880.999 420 880.999 706 c 0
EndSplineSet
Layer: 2
SplineSet
178 -369 m 21xec
 10 -369 l 13
 229 1110 l 5
 350 1110 l 5xdc
 350 848 l 5
 456 1026 605 1130 739 1130 c 4
 991 1130 1041 918 1041 696 c 4
 1041 396 895 -20 547 -20 c 4
 425 -20 316 64 260 162 c 5
 178 -369 l 21xec
339 732 m 5
 275 273 l 5
 275 273 390 110 564 110 c 4
 780 110 845 384 869 556 c 4
 875 604 881 652 881 706 c 4
 881 848 876 998 718 998 c 4xec
 589 998 416 860 339 732 c 5
EndSplineSet
EndChar

StartChar: q
Encoding: 113 113 77
Width: 1108
GlyphClass: 2
Flags: W
HStem: -502 21G<666.831 816.727> -20 130<330.624 587.358> 998 132<430.546 710.133> 1090 20G<933.958 1060>
VStem: 92 160<199.294 711.701> 940 120<1062.54 1110>
LayerCount: 3
Back
SplineSet
739.13 0 m 5xf0
 895.13 1110 l 5
 1065.13 1110 l 5xe8
 909.13 0 l 5
 739.13 0 l 5xf0
EndSplineSet
Fore
SplineSet
92 418 m 0xdc
 92 698 228 1130 582 1130 c 0xec
 790 1130 882 918 882 918 c 1
 940 1110 l 1
 1060 1110 l 5
 832 -480 l 1
 664 -502 l 1
 758 162 l 1
 676 64 550 -20 428 -20 c 0
 176 -20 92 194 92 418 c 0xdc
774 276 m 1
 850 822 l 1
 850 822 732 998 564 998 c 0
 348 998 288 728 264 556 c 0
 258 510 252 460 252 408 c 0
 252 264 292 110 450 110 c 0
 624 110 774 276 774 276 c 1
EndSplineSet
Layer: 2
SplineSet
1272 1658 m 4
 1372 1658 1460 1572 1460 1566 c 5
 1388 1442 l 5
 1358 1478 1314 1516 1254 1516 c 4
 1160 1516 1114 1474 1082 1244 c 6
 1060 1110 l 5
 1366 1110 l 5
 1357 1036 l 5
 1055 1036 l 5
 907 12 l 6
 873.435 -224.475 773.314 -426 772 -426 c 5
 629 -357 l 5
 629 -357 707.106 -211.453 738.812 9 c 6
 889 1036 l 5
 721 1036 l 5
 734 1110 l 5
 904 1110 l 5
 916 1198 l 6
 972 1588 1103 1658 1272 1658 c 4
EndSplineSet
EndChar

StartChar: r
Encoding: 114 114 78
Width: 725
GlyphClass: 2
Flags: W
HStem: 0 21G<49 218.869> 970 160<545.788 736.091> 1090 20G<206.117 331>
VStem: 209 122<1010.54 1110>
LayerCount: 3
Back
SplineSet
88 0 m 5xf0
 244 1110 l 5
 414 1110 l 5xe8
 258 0 l 5
 88 0 l 5xf0
EndSplineSet
Fore
SplineSet
673 1130 m 0xd0
 733 1130 757 1118 757 1118 c 1
 735 963 l 1
 735 963 709 970 679 970 c 0xd0
 496 970 321 732 321 732 c 1
 216 0 l 1
 49 0 l 1
 209 1110 l 1
 331 1110 l 1xb0
 331 849 l 1
 422 1021 575 1130 673 1130 c 0xd0
EndSplineSet
Layer: 2
SplineSet
739 0 m 5xd8
 831 636 l 6
 835 674 843.884 761 843.884 791 c 4
 843.884 929 819 999 717 999 c 4xd8
 597 999 396 850 321 732 c 5
 216 0 l 5
 49 0 l 5
 209 1110 l 5
 331 1110 l 5xb8
 331 849 l 5
 531 1110.02 663 1130 795 1130 c 4
 957 1130 1017.88 1020 1017.88 837 c 4
 1017.88 801 1005 680 999 636 c 6
 905 0 l 5
 739 0 l 5xd8
EndSplineSet
EndChar

StartChar: s
Encoding: 115 115 79
Width: 894
VWidth: 0
GlyphClass: 2
Flags: W
HStem: -22 132<223.832 555.593> 998 133<354.973 684.693>
VStem: 140 146<737.992 931.91> 642 154<193.533 429.651>
LayerCount: 3
Back
SplineSet
493.568 110.592 m 4
 317.44 110.592 188.416 215.04 165.889 485.376 c 5
 774.144 485.376 l 5
 774.144 471.04 774.144 462.848 774.144 450.56 c 4
 774.144 188.416 641.024 110.592 493.568 110.592 c 4
819.2 923.648 m 5
 875.914 1056.77 l 5
 875.914 1056.77 700.416 1189.89 501.76 1189.89 c 4
 180.225 1189.89 -22.5273 974.848 -22.5273 589.824 c 4
 -22.5273 172.031 217.088 -22.5273 495.616 -22.5273 c 4
 784.384 -22.5273 929.792 190.465 929.792 491.52 c 4
 929.792 530.432 927.744 557.056 921.6 600.064 c 5
 159.744 600.064 l 5
 159.744 927.744 294.912 1040.38 505.856 1040.38 c 4
 698.368 1040.38 819.2 923.648 819.2 923.648 c 5
EndSplineSet
Fore
SplineSet
397 110 m 0
 607 110 642 260 642 333 c 0
 642 402 612 439 499 485 c 2
 357 543 l 2
 165 621 140 721 140 805 c 0
 140 1023 312 1131 516 1131 c 0
 622 1131 758 1095 853 1002 c 1
 787 873 l 1
 724 945 626 998 518 998 c 0
 344 998 286 897 286 822 c 0
 286 752 328 733 411 694 c 2
 544 631 l 2
 710 552 796 497 796 349 c 0
 796 191 708 -22 385 -22 c 0
 254 -22 171 12 52 106 c 1
 120 241 l 1
 205 147 286 110 397 110 c 0
EndSplineSet
Layer: 2
SplineSet
167 786 m 4
 167 926 257 1130 569 1130 c 4
 745 1130 861 1008 861 1008 c 5
 795 884 l 5
 795 884 705 998 553 998 c 4
 449 998 313 964 313 814 c 4
 313 754 360 730 438 694 c 6
 571 631 l 5
 710 572 823 516 823 356 c 4
 823 194 727 -22 389 -22 c 4
 229 -22 125 74 79 106 c 5
 147 238 l 21
 199 192 267 110 417 110 c 4
 613 110 669 254 669 340 c 4
 669 410 622 446 526 485 c 6
 384 543 l 6
 239 605 167 666 167 786 c 4
EndSplineSet
EndChar

StartChar: t
Encoding: 116 116 80
Width: 761
GlyphClass: 2
Flags: W
HStem: -16 133.627<326.666 516.589>
VStem: 154 163<127.981 224 331 423.198> 366 144<1507.96 1556>
LayerCount: 3
Back
SplineSet
126.9 0 m 5xf0
 282.9 1110 l 5
 452.9 1110 l 5xe8
 296.9 0 l 5
 126.9 0 l 5xf0
EndSplineSet
Fore
SplineSet
385.209 117.627 m 16
 343.164 117.627 317 161.558 317 210 c 0
 317 234 317 260 327 331 c 2
 426 1032 l 1
 684 1032 l 1
 696 1110 l 1
 435 1110 l 1
 510 1602 l 1
 366 1556 l 1
 290 1110 l 1
 120 1110 l 1
 110 1032 l 1
 264 1032 l 1
 164 350 l 2
 157 302 154 262 154 224 c 0
 154 72 242 -16 366 -16 c 0
 512 -16 595 61 672 123 c 1
 624 243 l 1
 624 239 490.394 117.628 385.209 117.627 c 16
EndSplineSet
Layer: 2
SplineSet
653 1658 m 4
 753 1658 841 1572 841 1566 c 5
 769 1442 l 5
 739 1478 695 1516 635 1516 c 4
 541 1516 495 1474 463 1244 c 6
 441 1110 l 5
 747 1110 l 5
 738 1036 l 5
 436 1036 l 5
 288 12 l 6
 254.435 -224.475 154.314 -426 153 -426 c 5
 10 -357 l 5
 10 -357 88.1064 -211.453 119.812 9 c 6
 270 1036 l 5
 102 1036 l 5
 115 1110 l 5
 285 1110 l 5
 297 1198 l 6
 353 1588 484 1658 653 1658 c 4
EndSplineSet
EndChar

StartChar: u
Encoding: 117 117 81
Width: 1060
GlyphClass: 2
Flags: W
HStem: -20 130<294.685 564.434> 0 21G<738.988 869.871> 1090 20G<180.114 348.988 856.188 1026.99>
VStem: 74.9883 168<167.523 506.388> 738.988 128<0 99.4548>
LayerCount: 3
Back
SplineSet
738 8 m 5xf0
 894 1118 l 5
 1064 1118 l 5xe8
 908 8 l 5
 738 8 l 5xf0
EndSplineSet
Fore
SplineSet
1026.99 1110 m 5xb8
 866.988 0 l 5
 738.988 0 l 5x78
 744.664 213.997 l 5
 647.333 45.3333 528.988 -20 384.988 -20 c 4
 196.988 -20 74.9883 80 74.9883 306 c 4
 74.9883 340 76.9883 374 82.9883 414 c 6
 182.988 1110 l 5
 348.988 1110 l 5
 250.988 428 l 6
 244.988 390 242.988 350 242.988 320 c 4
 242.988 182 302.988 110 412.988 110 c 4
 610.988 110 746 303.002 746 303.002 c 5
 858.988 1110 l 5
 1026.99 1110 l 5xb8
EndSplineSet
Layer: 2
SplineSet
1012 1016 m 5xb8
 868 0 l 5
 738 0 l 5x78
 745 214 l 5
 669 74 540 -20 406 -20 c 4
 152 -20 59 190 59 416 c 4
 59 736 291 1130 639 1130 c 4
 805 1130 1012 1016 1012 1016 c 5xb8
214 422 m 4
 214 206 278.888 110 426 110 c 4xb8
 567 110 701 238 745 304 c 5
 841.004 975 l 5
 787 995 731.447 1010.74 658 1012 c 5
 419 1012 214 742 214 422 c 4
EndSplineSet
EndChar

StartChar: v
Encoding: 118 118 82
Width: 951
GlyphClass: 2
Flags: W
HStem: 0 21G<293.721 497.937> 1090 20G<115 283.45 806.813 985>
VStem: 115 166<1022.57 1110>
LayerCount: 3
Fore
SplineSet
404 106 m 1
 815 1110 l 1
 985 1110 l 1
 489 0 l 1
 297 0 l 1
 115 1110 l 1
 281 1110 l 1
 404 106 l 1
EndSplineSet
EndChar

StartChar: w
Encoding: 119 119 83
Width: 1396
GlyphClass: 2
Flags: W
HStem: 0 21G<210.928 407.444 800.918 1007.82> 1090 20G<98 253.6 668.903 851.477 1262.86 1434>
LayerCount: 3
Fore
SplineSet
751 943 m 1
 400 0 l 1
 213 0 l 1
 98 1110 l 1
 252 1110 l 1
 330 135 l 5
 676 1110 l 1
 850 1110 l 1
 922 135 l 5
 1270 1110 l 1
 1434 1110 l 1
 1000 0 l 1
 802 0 l 1
 751 943 l 1
EndSplineSet
EndChar

StartChar: x
Encoding: 120 120 84
Width: 927
GlyphClass: 2
Flags: W
HStem: 0 21G<-28.999 166.54 633.124 817> 1090 20G<125 318.964 785.154 977>
LayerCount: 3
Fore
SplineSet
125 1110 m 1
 311 1110 l 1
 487 668 l 1
 493 668 l 1
 799 1110 l 1
 977 1110 l 1
 553 556 l 1
 817 0 l 1
 641 0 l 1
 463 452 l 1
 459 452 l 1
 153 0 l 1
 -28.999 0 l 1
 399 556 l 1
 125 1110 l 1
EndSplineSet
EndChar

StartChar: y
Encoding: 121 121 85
Width: 900
GlyphClass: 2
Flags: W
HStem: -458 124<12.7628 120.41> 1090 20G<90 267.604 793.807 976>
VStem: 90 174<1041.41 1110>
LayerCount: 3
Back
SplineSet
92.2598 415.174 m 4xb8
 92.2598 716.952 239.336 1130.5 587.516 1130.5 c 4
 773.884 1130.5 872.448 968.704 872.448 968.704 c 5
 890.88 1110.02 l 5
 1060.6 1110.02 l 5
 904.956 0 l 5
 771.836 0 l 5x78
 769.788 182.271 l 5
 683.771 75.7754 560.892 -20.4805 427.772 -20.4805 c 4
 174.996 -20.4805 92.2598 190.316 92.2598 415.174 c 4xb8
856.064 866.304 m 5
 856.064 866.304 745.21 987.136 571.132 987.136 c 4
 356.092 987.136 288.508 727.04 263.932 555.008 c 4
 257.458 509.69 252.406 458.26 252.406 407.082 c 4
 252.406 263.992 291.908 122.881 450.3 122.881 c 4xb8
 624.378 122.881 771.836 274.432 771.836 274.432 c 5
 856.064 866.304 l 5
EndSplineSet
Fore
SplineSet
90 1110 m 1
 264 1110 l 1
 384 444 l 1
 384 444 424 196 424 188 c 1
 426 196 530 446 530 446 c 1
 802 1110 l 1
 976 1110 l 1
 470 0 l 2
 412 -124 320 -424 16 -458 c 1
 -12 -334 l 1
 162 -300 216 -248 322 0 c 1
 90 1110 l 1
EndSplineSet
EndChar

StartChar: z
Encoding: 122 122 86
Width: 864
GlyphClass: 2
Flags: W
HStem: 0 146<193 709> 974 136<205 703>
LayerCount: 3
Fore
SplineSet
865 1110 m 1
 843 946 l 1
 507 532 l 1
 193 146 l 1
 359 146 l 1
 729 146 l 1
 709 0 l 1
 25 0 l 1
 45 164 l 1
 417 620 l 1
 703 974 l 1
 533 974 l 1
 185 974 l 1
 205 1110 l 1
 865 1110 l 1
EndSplineSet
EndChar

StartChar: bar
Encoding: 124 124 87
Width: 548
GlyphClass: 2
Flags: W
VStem: 152 420
LayerCount: 3
Fore
SplineSet
152 -110 m 1
 406 1696 l 1
 572 1696 l 1
 318 -110 l 1
 152 -110 l 1
EndSplineSet
Validated: 1
EndChar

StartChar: exclamdown
Encoding: 257 161 88
Width: 810
GlyphClass: 2
Flags: W
HStem: -16 21G<254 478.754> 1376 204<490 656>
VStem: 482 98<1093.94 1162>
LayerCount: 3
Fore
SplineSet
682 1580 m 1
 656 1376 l 1
 460 1376 l 1
 490 1580 l 1
 682 1580 l 1
482 1162 m 1
 580 1162 l 1
 514 260 l 1
 476 -16 l 1
 254 -16 l 1
 292 260 l 1
 482 1162 l 1
EndSplineSet
Validated: 1
EndChar

StartChar: cent
Encoding: 258 162 89
Width: 1050
GlyphClass: 2
Flags: W
HStem: -20 142<423.442 542 662 834.148> 1042 142<525.477 692 812 981.54>
VStem: 139.769 168.861<235.337 727.016>
LayerCount: 3
Fore
SplineSet
542 -20 m 1
 295.979 -13.0207 139.769 146.18 139.769 440.337 c 0
 139.769 483.356 143.11 529.262 150 578 c 0
 210 1006 454 1186 712 1190 c 1
 728 1298 l 1
 828 1298 l 1
 812 1184 l 1
 946 1168 1020 1122 1020 1122 c 1
 1024 978 l 1
 1024 978 938 1028 790 1042 c 1
 662 122 l 1
 808 134 914 188 914 188 c 1
 868 38 l 1
 868 38 780 -4 642 -18 c 1
 624 -136 l 1
 526 -136 l 1
 542 -20 l 1
564 122 m 1
 692 1046 l 1
 490 1038 366 900 320 578 c 0
 312.352 525.796 308.63 478.734 308.63 436.481 c 0
 308.63 224.59 402.253 133.672 564 122 c 1
EndSplineSet
Validated: 1
EndChar

StartChar: yen
Encoding: 259 165 90
Width: 1324
GlyphClass: 2
Flags: W
HStem: 0 21G<506 686.791> 1560 20G<250 456.619 1171.61 1382>
LayerCount: 3
Fore
SplineSet
786 818 m 1
 1182 1580 l 1
 1382 1580 l 1
 744 430 l 1
 684 0 l 1
 506 0 l 1
 568 430 l 1
 250 1580 l 1
 452 1580 l 1
 628 818 l 1
 664 530 l 1
 674 530 l 1
 786 818 l 1
EndSplineSet
Validated: 1
EndChar

StartChar: brokenbar
Encoding: 260 166 91
Width: 548
GlyphClass: 2
Flags: W
HStem: 0 21G<158 336.783> 1560 20G<378 553.168>
VStem: 158 398
LayerCount: 3
Fore
SplineSet
282 888 m 1
 378 1574 l 1
 556 1580 l 1
 458 888 l 1
 282 888 l 1
158 0 m 1
 256 688 l 1
 430 690 l 1
 334 0 l 1
 158 0 l 1
EndSplineSet
Validated: 1
EndChar

StartChar: copyright
Encoding: 261 169 93
Width: 1984
GlyphClass: 2
Flags: W
HStem: -18 118<677.509 1144.79> 280 120<803.828 1140.36> 1190 118<909.085 1290.66> 1490 120<864.93 1320.34>
VStem: 216.746 130.894<435.959 938.637> 574.016 137.052<495.717 938.913> 1651.78 132.86<641.055 1149.45>
LayerCount: 3
Fore
SplineSet
1644 794 m 0
 1649.2 830.407 1651.78 866.772 1651.78 902.707 c 0
 1651.78 1212.24 1460.18 1490 1100 1490 c 0
 734 1490 412 1184 356 794 c 0
 350.379 754.455 347.64 715.857 347.64 678.414 c 0
 347.64 342.801 567.738 100 906 100 c 0
 1254 100 1584 378 1644 794 c 0
1776 794 m 0
 1706 296 1280 -18 886 -18 c 0
 494.787 -18 216.746 267.389 216.746 665.871 c 0
 216.746 707.417 219.769 750.191 226 794 c 0
 292 1256 690 1610 1114 1610 c 0
 1535.03 1610 1784.64 1285.11 1784.64 914.111 c 0
 1784.64 874.487 1781.79 834.336 1776 794 c 0
1224 468 m 1
 1200 352 l 1
 1188 346 1066 280 940 280 c 0
 671.387 280 574.016 465.878 574.016 682.38 c 0
 574.016 718.962 576.796 756.418 582 794 c 0
 622 1090 800 1308 1084 1308 c 0
 1208 1308 1318 1252 1326 1246 c 1
 1318 1134 l 1
 1318 1134 1216 1190 1074 1190 c 0
 848 1190 750 1012 720 794 c 0
 714.236 752.931 711.068 713.874 711.068 677.436 c 0
 711.068 511.584 776.709 400 962 400 c 0
 1104 400 1216 464 1224 468 c 1
EndSplineSet
Validated: 1
EndChar

StartChar: guillemotleft
Encoding: 262 171 94
Width: 1879
GlyphClass: 2
Flags: W
LayerCount: 3
Fore
SplineSet
396 663 m 1
 1090 1266 l 1
 1170 1156 l 1
 588 663 l 1
 1031 170 l 1
 921 60 l 1
 396 663 l 1
890 663 m 1
 1584 1266 l 1
 1663 1156 l 1
 1082 663 l 1
 1525 170 l 1
 1414 60 l 1
 890 663 l 1
EndSplineSet
EndChar

StartChar: logicalnot
Encoding: 263 172 95
Width: 1594
GlyphClass: 2
Flags: W
HStem: 338 120<150 1246>
LayerCount: 3
Fore
SplineSet
1510 1174 m 1
 1392 338 l 1
 134 338 l 1
 150 458 l 1
 1246 458 l 1
 1346 1174 l 1
 1510 1174 l 1
EndSplineSet
Validated: 1
EndChar

StartChar: registered
Encoding: 264 174 96
Width: 1262
GlyphClass: 2
Flags: W
HStem: 584 92<484.846 851.765> 1072 74<658 706.173> 1328 74<682 843.731> 1538 94<594.271 961.104>
VStem: 210.775 94.529<854.016 1238.52> 851.407 90.446<1169.78 1317.12> 1140.65 94.66<976.176 1351.94>
LayerCount: 3
Fore
SplineSet
658 1146 m 1
 708 1146 l 2
 800 1146 840 1178 850 1246 c 0
 850.927 1252.49 851.407 1258.48 851.407 1264.01 c 0
 851.407 1318.12 805.395 1328 682 1328 c 1
 658 1146 l 1
812 1016 m 1
 898 856 l 1
 884 852 814 814 802 808 c 1
 772 878 722 1004 690 1072 c 1
 646 1072 l 1
 610 830 l 1
 518 830 l 1
 600 1402 l 1
 702 1402 l 2
 873.552 1402 941.853 1360.37 941.853 1271.02 c 0
 941.853 1262.45 941.225 1253.45 940 1244 c 0
 926 1146 854 1104 764 1082 c 1
 776 1068 800 1032 812 1016 c 1
216 1108 m 0
 256 1400 516 1632 796 1632 c 0
 1054.63 1632 1235.31 1439.59 1235.31 1184.68 c 0
 1235.31 1159.68 1233.57 1134.08 1230 1108 c 0
 1190 816 934 584 650 584 c 0
 394.616 584 210.775 777.001 210.775 1032.5 c 0
 210.775 1057.12 212.483 1082.33 216 1108 c 0
310 1106 m 0
 306.84 1083.13 305.304 1060.8 305.304 1039.11 c 0
 305.304 827.383 451.565 676 662 676 c 0
 894 676 1102 860 1136 1106 c 0
 1139.13 1128.64 1140.65 1150.76 1140.65 1172.28 c 0
 1140.65 1384.65 992.653 1538 782 1538 c 0
 550 1538 344 1352 310 1106 c 0
EndSplineSet
Validated: 1
EndChar

StartChar: macron
Encoding: 175 175 97
Width: 924
GlyphClass: 2
Flags: W
HStem: 0 144<110 744>
VStem: 92 670
LayerCount: 3
Fore
SplineSet
744 0 m 1
 92 0 l 1
 110 144 l 1
 762 144 l 1
 744 0 l 1
EndSplineSet
Validated: 1
EndChar

StartChar: plusminus
Encoding: 265 177 98
Width: 926
GlyphClass: 2
Flags: W
HStem: -56 144<104 736> 518 134<152 424 574 846>
LayerCount: 3
Fore
SplineSet
846 518 m 1
 556 518 l 1
 508 174 l 1
 374 174 l 1
 424 518 l 1
 134 518 l 1
 152 652 l 1
 442 652 l 1
 492 996 l 1
 622 996 l 1
 574 652 l 1
 866 652 l 1
 846 518 l 1
736 -56 m 1
 84 -56 l 1
 104 88 l 1
 756 88 l 1
 736 -56 l 1
EndSplineSet
Validated: 1
EndChar

StartChar: acute
Encoding: 180 180 99
Width: 1004
GlyphClass: 2
Flags: W
HStem: 354 620
VStem: 496 420
LayerCount: 3
Fore
SplineSet
566 354 m 1
 496 354 l 1
 676 974 l 1
 916 974 l 1
 566 354 l 1
EndSplineSet
Validated: 1
EndChar

StartChar: mu
Encoding: 266 181 100
Width: 1206
GlyphClass: 2
Flags: W
HStem: -32 142<366.321 636.9> -12 21G<822.238 952> 1090 20G<253.2 426 933.232 1108>
VStem: 822 130<4 105.639>
LayerCount: 3
Fore
SplineSet
60 -290 m 1xb0
 256 1110 l 1
 426 1110 l 1
 330 416 l 2
 324.314 375.817 321.43 339.873 321.43 308.005 c 0
 321.43 171.743 374.157 110 486 110 c 0xb0
 684 110 820 272 820 272 c 1
 936 1110 l 1
 1108 1110 l 1
 952 4 l 1
 822 -12 l 1x70
 824 156 l 1
 724 50 606 -32 464 -32 c 0
 306 -32 278 62 278 62 c 1
 230 -290 l 1
 60 -290 l 1xb0
EndSplineSet
Validated: 1
EndChar

StartChar: cedilla
Encoding: 184 184 101
Width: 338
GlyphClass: 2
Flags: W
HStem: -530 114<803.253 1087.64>
VStem: 924 114<-27.8738 76> 1115.18 122.93<-389.285 -227.666>
LayerCount: 3
Fore
SplineSet
1236 -310 m 0
 1216 -454 1102 -530 970 -530 c 0
 854 -530 792 -480 792 -480 c 1
 796 -368 l 1
 796 -368 898 -416 980 -416 c 0
 1082 -416 1110 -348 1114 -316 c 0
 1114.79 -310.02 1115.18 -304.352 1115.18 -298.977 c 0
 1115.18 -209.072 1006.41 -201.097 846 -186 c 1
 852 -160 924 76 924 76 c 1
 1038 76 l 1
 1038 76 974 -76 968 -98 c 1
 1067.68 -98 1238.11 -126.3 1238.11 -279.371 c 0
 1238.11 -289.071 1237.43 -299.273 1236 -310 c 0
EndSplineSet
Validated: 1
EndChar

StartChar: guillemotright
Encoding: 267 187 102
Width: 1814
GlyphClass: 2
Flags: W
HStem: -12 21G<140.913 177.352>
LayerCount: 3
Fore
SplineSet
836 654 m 1
 272 950 l 1
 304 1158 l 1
 1136 666 l 1
 1110 482 l 1
 138 -12 l 1
 168 194 l 1
 814 490 l 1
 978 568 l 1
 836 654 l 1
1376 654 m 1
 844 996 l 1
 872 1202 l 1
 1678 666 l 1
 1650 482 l 1
 696 -58 l 1
 724 150 l 1
 1354 490 l 1
 1520 568 l 1
 1376 654 l 1
EndSplineSet
Validated: 1
EndChar

StartChar: AE
Encoding: 198 198 109
Width: 1952
GlyphClass: 2
Flags: W
HStem: 0 144<1100 1714> 370 104<526 988> 776 114<1204 1758> 1436 144<1278 1890>
LayerCount: 3
Fore
SplineSet
1714 0 m 1
 934 0 l 1
 988 370 l 1
 466 370 l 1
 244 0 l 1
 50 0 l 1
 1038 1580 l 1
 1910 1580 l 1
 1890 1436 l 1
 1278 1436 l 1
 1204 890 l 1
 1774 890 l 1
 1758 776 l 1
 1188 776 l 1
 1100 144 l 1
 1734 144 l 1
 1714 0 l 1
1144 1452 m 1
 1112 1450 l 1
 970 1202 l 1
 526 474 l 1
 1000 474 l 1
 1100 1202 l 1
 1144 1452 l 1
EndSplineSet
Validated: 1
EndChar

StartChar: Eth
Encoding: 274 208 119
Width: 1514
GlyphClass: 2
Flags: W
HStem: 0 144<342 881.378> 1436 144<524 1047.12> 1796 132<702 1232>
LayerCount: 3
Fore
SplineSet
524 1436 m 1
 342 144 l 1
 676 144 l 2
 956 144 1128 322 1194 788 c 0
 1260 1256 1138 1436 858 1436 c 2
 524 1436 l 1
878 1580 m 2
 1240 1580 1462 1366 1380 788 c 0
 1298 210 1020 0 656 0 c 2
 142 0 l 1
 364 1580 l 1
 878 1580 l 2
1232 1796 m 1
 684 1796 l 1
 702 1928 l 1
 1252 1928 l 1
 1232 1796 l 1
EndSplineSet
Validated: 33
EndChar

StartChar: Thorn
Encoding: 280 222 131
Width: 1344
GlyphClass: 2
Flags: W
HStem: 0 21G<142 326.778> 504 146<414 921.803> 1300 144<526 1008.5> 1560 20G<361.19 544>
LayerCount: 3
Fore
SplineSet
364 1580 m 1
 544 1580 l 1
 526 1444 l 1
 708 1444 l 2
 1188 1444 1340 1306 1292 972 c 0
 1246 650 1026 504 544 504 c 2
 394 504 l 1
 324 0 l 1
 142 0 l 1
 364 1580 l 1
1122 972 m 0
 1154 1202 1096 1300 700 1300 c 0
 696 1300 692 1300 688 1300 c 2
 506 1300 l 1
 414 650 l 1
 566 650 l 2
 972 650 1090 740 1122 972 c 0
EndSplineSet
Validated: 33
EndChar

StartChar: germandbls
Encoding: 223 223 132
Width: 1348
GlyphClass: 2
Flags: W
HStem: -130 156<462 716.344> 0 21G<136 310.79> 774 132<558 848.856> 1436 144<592.021 930.453>
LayerCount: 3
Back
SplineSet
-74.9531 614.114 m 0x3c
 -342.016 614.4 -424.97 542.704 -422.4 360.122 c 0
 -419.84 178.176 -331.776 122.881 -180.041 122.203 c 0
 -31.4453 121.543 90.1113 208.896 163.311 282.746 c 1
 163.311 594.944 l 1
 163.311 594.944 28.0781 614.002 -74.9531 614.114 c 0x3c
350.206 714.056 m 2
 350.208 16.7773 l 1
 206.438 0.00390625 l 1x7a
 182.479 185.121 l 1
 108.545 63.4883 -18.4316 -22.5273 -201.522 -21.5625 c 0xba
 -446.464 -22.5273 -591.872 110.592 -592.526 357.032 c 0
 -593.284 642.176 -391.168 745.91 -125.189 745.91 c 0
 1.80273 745.91 163.311 704.172 163.311 704.172 c 1
 163.311 742.818 l 2
 163.84 958.464 127.367 1090.26 -105.061 1090.26 c 0
 -330.298 1090.26 -480.604 990.704 -480.604 990.704 c 1
 -481.218 1146.45 l 1
 -378.756 1192.96 -253.626 1238.82 -93.0859 1238.82 c 0
 273.53 1238.82 350.206 1011.18 350.206 714.056 c 2
EndSplineSet
Fore
SplineSet
764 1580 m 0x70
 1076 1580 1168 1418 1134 1176 c 0
 1112 1020 1036 866 872 844 c 1
 1120 822 1222 642 1188 400 c 2
 1188 396 l 2
 1134 20 836 -102 440 -130 c 1
 462 26 l 1xb0
 904 62 998 186 1030 424 c 2
 1032 432 l 2
 1064 668 910 774 584 774 c 2
 538 774 l 1
 558 906 l 1
 578 906 l 2
 878 906 958 982 986 1184 c 0
 1012 1374 932 1436 744 1436 c 0
 524 1436 486 1276 450 1018 c 2
 308 0 l 1
 136 0 l 1
 274 992 l 2
 308 1234 358 1580 764 1580 c 0x70
EndSplineSet
Validated: 33
EndChar

StartChar: thorn
Encoding: 292 254 159
Width: 1192
GlyphClass: 2
Flags: W
HStem: -488 21G<46.807 184> -20 142<429.364 738.479> 988 142<583.336 842.535>
LayerCount: 3
Fore
SplineSet
294 116 m 1
 212 -464 l 1
 44 -488 l 1
 332 1564 l 1
 496 1564 l 1
 410 948 l 1
 500 1054 624 1130 748 1130 c 0
 1054 1130 1106 818 1070 556 c 0
 1034 294 890 -20 584 -20 c 0
 462 -20 350 16 294 116 c 1
400 826 m 1
 318 250 l 1
 318 250 428 122 602 122 c 0
 818 122 884 384 908 556 c 0
 932 728 938 988 722 988 c 0
 548 988 400 826 400 826 c 1
EndSplineSet
Validated: 33
EndChar

StartChar: OE
Encoding: 333 338 227
Width: 2162
GlyphClass: 2
Flags: W
HStem: -43.4902 150<493.514 855.523> 0 144<1291 2005> 776 114<1397 2011> 1436 138<1473 2193> 1454.51 152<686.345 1053.9>
VStem: 142.998 186<289.469 930.676> 1211 186<633.164 1273.26>
LayerCount: 3
Fore
SplineSet
1397 1010.51 m 0xae
 1397 612.51 1247 -43.4902 654.998 -43.4902 c 0
 352.998 -43.4902 142.998 118.51 142.998 548.51 c 0
 142.998 946.51 292.998 1606.51 886.998 1606.51 c 0
 1181 1606.51 1397 1442.51 1397 1010.51 c 0xae
676.998 106.51 m 0
 1103 106.51 1211 670.51 1211 1014.51 c 0
 1211 1330.51 1089 1454.51 866.998 1454.51 c 0
 436.998 1454.51 328.998 900.51 328.998 554.51 c 0
 328.998 234.51 456.998 106.51 676.998 106.51 c 0
EndSplineSet
Refer: 33 69 N 1 0 0 1 981 0 2
EndChar

StartChar: florin
Encoding: 364 402 270
Width: 748
GlyphClass: 2
Flags: W
HStem: -312 144<-119.286 147.989> 1024 126<120 346 530 818> 1516 142<612.259 881.507>
LayerCount: 3
Fore
SplineSet
218 106 m 2
 346 1024 l 1
 102 1024 l 1
 120 1150 l 1
 366 1150 l 1
 374 1198 l 2
 430 1588 564 1658 728 1658 c 0
 830 1658 904 1602 904 1602 c 1
 894 1464 l 1
 894 1464 810 1516 730 1516 c 0
 622 1516 574 1474 542 1244 c 2
 530 1150 l 1
 834 1150 l 1
 818 1024 l 1
 516 1024 l 1
 394 150 l 2
 338 -240 202 -312 38 -312 c 0
 -64 -312 -140 -254 -140 -254 c 1
 -134 -116 l 1
 -134 -116 -48 -168 32 -168 c 0
 140 -168 186 -124 218 106 c 2
EndSplineSet
Validated: 1
EndChar

StartChar: uni0202
Encoding: 404 514 310
Width: 1370
GlyphClass: 2
Flags: W
HStem: 0 21<0 202.377 1039.38 1240> 382 104<396 978> 1554 20<695.055 975.405> 1870 144<710.132 1041.13>
LayerCount: 3
Fore
SplineSet
900 2014 m 0
 1096 2014 1188 1894 1224 1806 c 1
 1134 1728 l 1
 1090 1800 1014 1870 878 1870 c 0
 752 1870 654 1804 588 1728 c 1
 516 1806 l 1
 584 1902 718 2014 900 2014 c 0
EndSplineSet
Refer: 29 65 N 1 0 0 1 0 0 3
Validated: 1
EndChar

StartChar: uni0203
Encoding: 405 515 311
Width: 1092
GlyphClass: 2
Flags: W
HStem: -20 130<305.372 573.586> 0 21<747 879.835> 1012 118<507.575 846.995> 1450 144<460.77 759.944>
VStem: 68 155<195.685 662.428> 754 123<0 101.148>
LayerCount: 3
Fore
SplineSet
634 1594 m 0x3c
 814 1594 902 1472 934 1384 c 1
 846 1306 l 1
 808 1378 736 1450 612 1450 c 0
 496 1450 406 1382 344 1306 c 1
 282 1384 l 1
 346 1480 466 1594 634 1594 c 0x3c
EndSplineSet
Refer: 61 97 N 1 0 0 1 0 0 3
EndChar

StartChar: uni0206
Encoding: 406 518 312
Width: 1181
GlyphClass: 2
Flags: W
HStem: 0 144<310 1024> 776 114<416 1030> 1436 138<492 1212> 1870 144<654.971 987.017>
LayerCount: 3
Fore
SplineSet
844 2014 m 0
 1040 2014 1136 1894 1172 1806 c 1
 1082 1728 l 1
 1038 1800 960 1870 824 1870 c 0
 698 1870 598 1804 532 1728 c 1
 462 1806 l 1
 530 1902 662 2014 844 2014 c 0
EndSplineSet
Refer: 33 69 N 1 0 0 1 0 0 3
Validated: 1
EndChar

StartChar: uni0207
Encoding: 407 519 313
Width: 978
GlyphClass: 2
Flags: W
HStem: -21 131<334.716 654.305> 434 87<240 501.509> 1000 130<520.931 775.165> 1450 144<506.162 807.77>
VStem: 81 157<216.491 434 521 672.577> 805.686 133.389<731.055 970.074>
LayerCount: 3
Fore
SplineSet
681 1594 m 0
 861 1594 947 1472 979 1384 c 1
 895 1306 l 1
 857 1378 785 1450 661 1450 c 0
 545 1450 453 1382 391 1306 c 1
 329 1384 l 1
 393 1480 513 1594 681 1594 c 0
EndSplineSet
Refer: 65 101 N 1 0 0 1 0 0 3
EndChar

StartChar: uni020A
Encoding: 408 522 314
Width: 749
GlyphClass: 2
Flags: W
HStem: 0 102<44.3369 236.337 406.337 584.337> 1482 92<254.337 430.337 600.337 792.337> 1870 144<402.808 734.854>
LayerCount: 3
Fore
SplineSet
592.337 2014 m 0
 788.337 2014 884.337 1894 920.337 1806 c 1
 828.337 1728 l 1
 784.337 1800 708.337 1870 572.337 1870 c 0
 446.337 1870 344.337 1804 278.337 1728 c 1
 210.337 1806 l 1
 278.337 1902 410.337 2014 592.337 2014 c 0
EndSplineSet
Refer: 37 73 N 1 0 0 1 0 0 3
EndChar

StartChar: uni020B
Encoding: 409 523 315
Width: 467
GlyphClass: 2
Flags: W
HStem: 0 21<90.7842 255.595> 1090 20<243.974 408.784> 1252 256<310.371 455.407> 1898 144<282.46 596.412>
VStem: 90.7842 318 267.001 232<1295.23 1465.05>
LayerCount: 3
Fore
SplineSet
464.783 2042 m 0xf0
 652.783 2042 740.783 1924 774.783 1836 c 1
 686.783 1756 l 1
 646.783 1828 572.783 1898 442.783 1898 c 0
 320.783 1898 228.783 1832 164.783 1756 c 1
 96.7822 1836 l 1
 162.783 1932 290.783 2042 464.783 2042 c 0xf0
EndSplineSet
Refer: 69 105 N 1 0 0 1 0 0 3
EndChar

StartChar: uni020E
Encoding: 410 526 316
Width: 1453
GlyphClass: 2
Flags: W
HStem: -40 150<493.514 855.523> 1458 152<686.345 1053.9> 1870 144<754.307 1086.02>
VStem: 142.998 186<292.96 934.166> 1211 186<636.655 1276.75>
LayerCount: 3
Fore
SplineSet
942.998 2014 m 0
 1139 2014 1235 1894 1271 1806 c 1
 1181 1728 l 1
 1137 1800 1059 1870 922.998 1870 c 0
 796.998 1870 696.998 1804 630.998 1728 c 1
 562.998 1806 l 1
 630.998 1902 760.998 2014 942.998 2014 c 0
EndSplineSet
Refer: 43 79 N 1 0 0 1 0 0 3
EndChar

StartChar: uni020F
Encoding: 411 527 317
Width: 1104
GlyphClass: 2
Flags: W
HStem: -21 131<348.643 642.846> 998 132<470.369 762.825> 1450 144<589.162 890.096>
VStem: 86 162<220.336 704.283> 854 162<394.397 894.604>
LayerCount: 3
Fore
SplineSet
764 1594 m 0
 944 1594 1028 1472 1060 1384 c 1
 976 1306 l 1
 938 1378 868 1450 744 1450 c 0
 628 1450 536 1382 474 1306 c 1
 412 1384 l 1
 476 1480 596 1594 764 1594 c 0
EndSplineSet
Refer: 75 111 N 1 0 0 1 0 0 3
EndChar

StartChar: uni0212
Encoding: 412 530 318
Width: 1327
GlyphClass: 2
Flags: W
HStem: 0 21<108 292.834 968 1138.21> 734 128<412 845.503> 1436 138<492 1034.54> 1870 144<386.971 718.517>
VStem: 1018 168<293.871 627.948> 1134 160<1034.52 1348.27>
LayerCount: 3
Fore
SplineSet
576 2014 m 0xf0
 772 2014 868 1894 904 1806 c 1
 812 1728 l 1
 768 1800 692 1870 556 1870 c 0
 430 1870 330 1804 264 1728 c 1
 194 1806 l 1
 262 1902 394 2014 576 2014 c 0xf0
EndSplineSet
Refer: 46 82 N 1 0 0 1 0 0 3
Validated: 1
EndChar

StartChar: uni0213
Encoding: 413 531 319
Width: 725
GlyphClass: 2
Flags: W
HStem: 0 21<49 218.869> 970 160<545.788 736.091> 1090 20<206.117 331> 1450 144<354.979 657.874>
VStem: 209 122<1010.54 1110>
LayerCount: 3
Fore
SplineSet
531 1594 m 0x98
 713 1594 799 1472 831 1384 c 1
 745 1306 l 1
 707 1378 633 1450 509 1450 c 0
 391 1450 299 1382 237 1306 c 1
 173 1384 l 1
 237 1480 361 1594 531 1594 c 0x98
EndSplineSet
Refer: 78 114 N 1 0 0 1 0 0 3
EndChar

StartChar: uni0216
Encoding: 414 534 320
Width: 1428
GlyphClass: 2
Flags: W
HStem: -40 140<447.527 870.127> 1554 20<277.158 457.995 1265.13 1448> 1870 144<735.627 1067.13>
VStem: 139.995 176<234.131 873.625>
LayerCount: 3
Fore
SplineSet
925.995 2014 m 0
 1122 2014 1214 1894 1250 1806 c 1
 1160 1728 l 1
 1116 1800 1040 1870 903.995 1870 c 0
 777.995 1870 677.995 1804 611.995 1728 c 1
 541.995 1806 l 1
 609.995 1902 743.995 2014 925.995 2014 c 0
EndSplineSet
Refer: 49 85 N 1 0 0 1 0 0 3
EndChar

StartChar: uni0217
Encoding: 415 535 321
Width: 1060
GlyphClass: 2
Flags: W
HStem: -20 130<294.685 564.434> 0 21<738.988 869.871> 1090 20<180.114 348.988 856.188 1026.99> 1450 144<489.943 789.758>
VStem: 74.9883 168<167.523 506.388> 738.988 128<0 99.4548>
LayerCount: 3
Fore
SplineSet
663.988 1594 m 0x3c
 843.988 1594 929.988 1472 961.988 1384 c 1
 875.988 1306 l 1
 837.988 1378 765.988 1450 641.988 1450 c 0
 525.988 1450 433.988 1382 371.988 1306 c 1
 309.988 1384 l 1
 373.988 1480 495.988 1594 663.988 1594 c 0x3c
EndSplineSet
Refer: 81 117 N 1 0 0 1 0 0 3
EndChar

StartChar: caron
Encoding: 183 711 343
Width: 1626
GlyphClass: 2
Flags: W
HStem: 358 530<664 688>
VStem: 488 624
LayerCount: 3
Fore
SplineSet
786 358 m 21
 664 358 l 13
 488 888 l 5
 688 888 l 5
 732 452 l 5
 748 452 l 5
 914 888 l 5
 1112 888 l 5
 786 358 l 21
EndSplineSet
EndChar

StartChar: breve
Encoding: 437 728 344
Width: 698
GlyphClass: 2
Flags: W
HStem: 0 143<198.979 553.703>
VStem: 14.7246 143.14<186.615 304> 625.865 142.86<211.284 304>
LayerCount: 3
Back
SplineSet
776.356 -16.7734 m 4
 579.872 -16.7734 455.27 98.2383 397.762 198.879 c 5
 484.024 280.346 l 5
 543.928 201.274 639.776 131.783 776.356 131.783 c 4
 922.521 131.783 1015.97 206.066 1073.48 280.352 c 5
 1159.74 198.883 l 5
 1107.03 107.828 987.218 -16.7734 776.356 -16.7734 c 4
EndSplineSet
Fore
SplineSet
369.098 143 m 4
 165.098 143 148.449 238 157.865 305 c 5
 14.7246 304 l 5
 -13.3838 104 135 0 349 0 c 4
 563 0 740.616 104 768.725 304 c 5
 625.865 305 l 5
 616.449 238 573.098 143 369.098 143 c 4
EndSplineSet
EndChar

StartChar: ring
Encoding: 438 730 346
Width: 272
GlyphClass: 2
Flags: W
HStem: 340 106<190.442 339.832> 630 114<201.766 355.417>
VStem: 74 402
LayerCount: 3
Fore
SplineSet
246 340 m 0
 132 340 56 414 74 544 c 0
 90 666 190 744 304 744 c 0
 420 744 492 666 476 544 c 0
 458 412 362 340 246 340 c 0
258 446 m 0
 326 446 354 500 360 540 c 0
 366 576 352 630 284 630 c 0
 206 630 190 572 186 540 c 0
 180 502 192 446 258 446 c 0
EndSplineSet
Validated: 33
EndChar

StartChar: ogonek
Encoding: 178 731 347
Width: 384
GlyphClass: 2
Flags: W
HStem: -458 134<1173.95 1460.47>
VStem: 1012 486
LayerCount: 3
Fore
SplineSet
1498 -278 m 1
 1462 -412 l 1
 1462 -412 1400 -458 1280 -458 c 0
 1068 -456 992 -326 1012 -176 c 0
 1040 22 1216 116 1378 152 c 1
 1368 80 l 1
 1238 30 1162 -52 1148 -150 c 0
 1132 -272 1184 -324 1308 -324 c 0
 1414 -324 1498 -278 1498 -278 c 1
EndSplineSet
Validated: 33
EndChar

StartChar: tilde
Encoding: 439 732 348
Width: 608
GlyphClass: 2
Flags: W
HStem: 348 142<518.48 678.569> 468 146<261.149 415.603>
VStem: 98 146<354 458.451>
LayerCount: 3
Fore
SplineSet
322 614 m 0x60
 448 614 542 490 624 490 c 0
 672 490 686 544 694 600 c 1
 840 600 l 1
 840 598 838 596 838 594 c 0
 814 416 730 358 648 350 c 0
 640 350 632 348 624 348 c 0xa0
 494 348 378 468 314 468 c 0
 266 468 252 418 244 354 c 1
 98 354 l 1
 98 356 98 358 98 360 c 0
 126 562 224 614 322 614 c 0x60
EndSplineSet
Validated: 1
EndChar

StartChar: hungarumlaut
Encoding: 440 733 349
Width: 1358
GlyphClass: 2
Flags: W
HStem: 18 572
VStem: 556 200<506.763 590>
LayerCount: 3
Fore
SplineSet
674 18 m 1
 870 590 l 1
 1074 590 l 1
 1024 508 784 18 784 18 c 1
 674 18 l 1
412 18 m 1
 412 18 496 366 556 590 c 1
 756 590 l 1
 704 508 522 18 522 18 c 1
 412 18 l 1
EndSplineSet
Validated: 1
EndChar

StartChar: pi
Encoding: 441 960 350
Width: 1366
GlyphClass: 2
Flags: W
HStem: -22 156<870.71 1105.89> -2 162<84 208.579 1013.83 1105.87> 970 150<407.599 564 722 958 1130 1300>
DStem2: 388 512 544 474 0.337779 0.941226<-318.596 490.53> 786 370 964 376 0.275567 0.961282<-152.421 624.167>
LayerCount: 3
Fore
SplineSet
786 370 m 2xa0
 958 970 l 1
 722 970 l 1
 544 474 l 1
 372 14 218 -2 84 -2 c 1
 84 24 72 134 72 160 c 1x60
 202 160 280 222 388 512 c 2
 564 970 l 1
 368 970 l 1
 384 1022 396 1070 412 1120 c 1
 1344 1120 l 1
 1330 1070 1316 1022 1300 970 c 1
 1130 970 l 1
 964 376 l 2
 950 326 940 286 936 254 c 0
 924 170 944 134 1010 134 c 0
 1092 134 1160 166 1160 166 c 1
 1142 112 1124 60 1104 6 c 1
 1104 6 1036 -22 938 -22 c 0
 804 -22 734 54 760 246 c 0
 766 282 772 322 786 370 c 2xa0
EndSplineSet
Validated: 33
EndChar

StartChar: quotesinglbase
Encoding: 667 8218 576
Width: 456
GlyphClass: 2
Flags: W
HStem: -200 62<116.485 159.561> -12 196<142 232>
VStem: 142 200<83.648 184>
LayerCount: 3
Fore
SplineSet
114 -12 m 1
 142 184 l 1
 342 184 l 1
 342 184 344 120 332 30 c 0
 314 -108 264 -160 122 -200 c 1
 116 -188 106 -150 98 -138 c 1
 162 -116 202 -86 232 -14 c 1
 114 -12 l 1
EndSplineSet
Validated: 33
EndChar

StartChar: quotedblleft
Encoding: 668 8220 577
Width: 462
GlyphClass: 2
Flags: W
HStem: 1194 194<402 492 692 782> 1516 64<472.488 515.156 762.488 805.469>
VStem: 290 202<1194 1300.97> 582 200<1194 1300.97>
LayerCount: 3
Fore
SplineSet
808 1388 m 1
 782 1194 l 1
 582 1194 l 1
 582 1194 580 1258 592 1348 c 0
 610 1486 658 1540 800 1580 c 1
 806 1568 818 1528 826 1516 c 1
 762 1494 722 1464 692 1392 c 1
 808 1388 l 1
518 1388 m 1
 492 1194 l 1
 290 1194 l 1
 290 1194 290 1258 302 1348 c 0
 320 1486 368 1540 510 1580 c 1
 516 1568 526 1528 534 1516 c 1
 470 1494 432 1464 402 1392 c 1
 518 1388 l 1
EndSplineSet
Validated: 33
EndChar

StartChar: quotedblright
Encoding: 669 8221 578
Width: 462
GlyphClass: 2
Flags: W
HStem: 1194 62<45.7878 83.5559 314.485 357.512> 1382 198<70 160 340 430>
VStem: 70 198<1485.38 1580> 340 198<1478.62 1580>
LayerCount: 3
Fore
SplineSet
40 1382 m 1
 70 1580 l 1
 268 1580 l 1
 268 1580 270 1514 258 1424 c 0
 240 1286 194 1234 52 1194 c 1
 46 1206 32 1244 24 1256 c 1
 88 1278 130 1308 160 1380 c 1
 40 1382 l 1
312 1382 m 1
 340 1580 l 1
 538 1580 l 1
 538 1580 540 1514 528 1424 c 0
 510 1286 462 1234 320 1194 c 1
 314 1206 304 1244 296 1256 c 1
 360 1278 400 1308 430 1380 c 1
 312 1382 l 1
EndSplineSet
Validated: 33
EndChar

StartChar: quotedblbase
Encoding: 670 8222 579
Width: 462
GlyphClass: 2
Flags: W
HStem: -186 62<-149.515 -106.439 118.833 161.611> 2 196<-124 -34 146 236>
VStem: -124 200<97.648 198> 146 200<97.648 198>
LayerCount: 3
Fore
SplineSet
-152 2 m 1
 -124 198 l 1
 76 198 l 1
 76 198 78 134 66 44 c 0
 48 -94 -2 -146 -144 -186 c 1
 -150 -174 -160 -136 -168 -124 c 1
 -104 -102 -64 -72 -34 0 c 1
 -152 2 l 1
118 2 m 1
 146 198 l 1
 346 198 l 1
 346 198 348 134 336 44 c 0
 318 -94 266 -146 124 -186 c 1
 118 -174 110 -136 102 -124 c 1
 166 -102 206 -72 236 0 c 1
 118 2 l 1
EndSplineSet
Validated: 33
EndChar

StartChar: dagger
Encoding: 671 8224 580
Width: 1192
GlyphClass: 2
Flags: W
HStem: 0 21G<450 628.824> 1020 142<302 594 792 1076>
LayerCount: 3
Fore
SplineSet
1076 1020 m 1
 770 1020 l 1
 626 0 l 1
 450 0 l 1
 594 1020 l 1
 280 1020 l 1
 302 1162 l 1
 614 1162 l 1
 658 1468 l 1
 836 1468 l 1
 792 1162 l 1
 1096 1162 l 1
 1076 1020 l 1
EndSplineSet
Validated: 1
EndChar

StartChar: daggerdbl
Encoding: 672 8225 581
Width: 1192
GlyphClass: 2
Flags: W
HStem: 0 21G<450 628.876> 306 138<200 494 690 972> 1020 142<302 594 792 1076>
LayerCount: 3
Fore
SplineSet
1076 1020 m 1
 770 1020 l 1
 690 444 l 1
 994 444 l 1
 972 306 l 1
 670 306 l 1
 626 0 l 1
 450 0 l 1
 494 306 l 1
 180 306 l 1
 200 444 l 1
 512 444 l 1
 594 1020 l 1
 280 1020 l 1
 302 1162 l 1
 614 1162 l 1
 658 1468 l 1
 836 1468 l 1
 792 1162 l 1
 1096 1162 l 1
 1076 1020 l 1
EndSplineSet
Validated: 1
EndChar

StartChar: bullet
Encoding: 673 8226 582
Width: 1250
GlyphClass: 2
Flags: W
HStem: 358 670<575.646 814.354>
VStem: 370 650
LayerCount: 3
Fore
SplineSet
370 692 m 0
 396 878 562 1028 742 1028 c 0
 922 1028 1046 878 1020 692 c 0
 994 506 828 358 648 358 c 0
 468 358 344 506 370 692 c 0
EndSplineSet
Validated: 33
EndChar

StartChar: guilsinglleft
Encoding: 675 8249 584
Width: 1322
GlyphClass: 2
Flags: W
HStem: -12 21G<1103.81 1149.11>
LayerCount: 3
Fore
SplineSet
1284 950 m 1
 502 654 l 1
 260 568 l 1
 480 490 l 1
 1178 194 l 1
 1146 -12 l 1
 104 482 l 1
 132 666 l 1
 1312 1158 l 1
 1284 950 l 1
EndSplineSet
Validated: 1
EndChar

StartChar: guilsinglright
Encoding: 676 8250 585
Width: 1322
GlyphClass: 2
Flags: W
HStem: -12 21G<37.1068 81.8542>
LayerCount: 3
Fore
SplineSet
866 654 m 1
 170 950 l 1
 200 1158 l 1
 1244 666 l 1
 1216 482 l 1
 34 -12 l 1
 66 194 l 1
 844 490 l 1
 1086 568 l 1
 866 654 l 1
EndSplineSet
Validated: 1
EndChar

StartChar: afii10049
Encoding: 685 1071 594
Width: 1414
Flags: W
HStem: 0 21G<72 242.745 922 1106.81> 730 128<531.3 1024> 1436 144<557.546 1124>
LayerCount: 3
Fore
SplineSet
72 0 m 1
 126 394 l 2
 160 644 260 764 526 794 c 1
 358 798 202 926 234 1154 c 0
 290 1554 596 1580 958 1580 c 2
 1326 1580 l 1
 1104 0 l 1
 922 0 l 1
 1024 730 l 1
 824 730 l 2
 472 730 330 662 296 408 c 2
 240 0 l 1
 72 0 l 1
1042 858 m 1
 1124 1436 l 1
 940 1436 l 2
 614 1436 428 1422 392 1154 c 0
 356 896 540 858 866 858 c 2
 1042 858 l 1
EndSplineSet
Validated: 33
EndChar

StartChar: afii10028
Encoding: 692 1050 601
Width: 1264
Flags: W
HStem: 0 21<108 292.811 991.081 1206> 740 106<410 598> 1554 20<329.154 512 1160.62 1374>
LayerCount: 3
Back
SplineSet
349.84 769.168 m 5
 349.836 -0.00390625 l 5
 155.746 -0.00390625 l 5
 155.746 1643.76 l 5
 349.836 1643.76 l 5
 349.836 881.788 l 5
 572.678 881.788 l 5
 1063.89 1643.76 l 5
 1277.14 1643.76 l 5
 826.668 977.628 l 5
 697.28 817.09 l 5
 838.652 658.944 l 5
 1334.66 0 l 5
 1116.61 0 l 5
 570.286 769.168 l 5
 349.84 769.168 l 5
EndSplineSet
Fore
Refer: 39 75 N 1 0 0 1 0 0 3
EndChar

StartChar: afii10026
Encoding: 693 1048 602
Width: 1650
Flags: W
HStem: 0 21G<168 328.766 1190 1360.84> 1560 20G<387.19 558 1303.63 1582>
LayerCount: 3
Fore
SplineSet
400 456 m 1
 1320 1580 l 1
 1582 1580 l 1
 1358 0 l 1
 1190 0 l 1
 1360 1208 l 1
 1414 1472 l 1
 1270 1260 l 1
 352 188 l 1
 326 0 l 1
 168 0 l 1
 390 1580 l 1
 558 1580 l 1
 400 456 l 1
EndSplineSet
Validated: 1
EndChar

StartChar: afii10033
Encoding: 698 1055 607
Width: 1580
Flags: W
HStem: 0 21G<142 326.798 1044 1226.82> 1458 116<528 1250>
LayerCount: 3
Fore
SplineSet
362 1574 m 1
 1446 1572 l 1
 1224 0 l 1
 1044 0 l 1
 1250 1458 l 1
 528 1458 l 1
 324 0 l 1
 142 0 l 1
 362 1574 l 1
EndSplineSet
Validated: 1
EndChar

StartChar: afii10042
Encoding: 699 1064 608
Width: 1896
Flags: W
HStem: -2 114<338 774 956 1392> 1550 20G<359.201 542 975.202 1162 1595.17 1778>
LayerCount: 3
Fore
SplineSet
142 -2 m 1
 362 1570 l 1
 542 1570 l 1
 338 112 l 1
 774 112 l 1
 978 1570 l 1
 1162 1570 l 1
 956 114 l 1
 1392 114 l 1
 1598 1572 l 1
 1778 1572 l 1
 1556 0 l 1
 940 0 l 1
 940 -2 l 1
 142 -2 l 1
EndSplineSet
Validated: 1
EndChar

StartChar: afii10040
Encoding: 700 1062 609
Width: 1580
Flags: W
HStem: -2 116<338 1112> 1552 20G<359.205 542 1313.2 1498>
LayerCount: 3
Fore
SplineSet
142 -2 m 1
 362 1572 l 1
 542 1572 l 1
 338 114 l 1
 1112 114 l 1
 1316 1572 l 1
 1498 1572 l 1
 1276 0 l 1
 142 -2 l 1
EndSplineSet
Validated: 1
EndChar

StartChar: afii10043
Encoding: 701 1065 610
Width: 1896
Flags: W
HStem: -2 114<338 774 956 1392> 1550 20G<359.201 542 975.202 1162 1595.17 1778>
LayerCount: 3
Fore
SplineSet
142 -2 m 1
 362 1570 l 1
 542 1570 l 1
 338 112 l 1
 774 112 l 1
 978 1570 l 1
 1162 1570 l 1
 956 114 l 1
 1392 114 l 1
 1598 1572 l 1
 1778 1572 l 1
 1556 0 l 1
 940 0 l 1
 940 -2 l 1
 142 -2 l 1
EndSplineSet
Validated: 1
EndChar

StartChar: afii10076
Encoding: 702 1082 611
Width: 1122
Flags: W
HStem: 0 21G<112 278.857 773.176 976> 1090 20G<265.189 434>
VStem: 1096 26<851.664 884.201>
LayerCount: 3
Fore
SplineSet
1104 1110 m 1
 548 602 l 1
 660 466 l 1
 976 0 l 1
 786 0 l 1
 450 524 l 1
 338 434 l 1
 276 0 l 1
 112 0 l 1
 268 1110 l 1
 434 1110 l 1
 360 594 l 1
 912 1112 l 1
 918 1116 l 0
 934 1132 954 1138 974 1138 c 0
 1050 1138 1092 1064 1122 866 c 1
 1096 840 l 1
 1056 984 l 2
 1048 1012 1030 1030 1018 1030 c 0
 1010 1030 998 1022 1004 1014 c 0
 1104 1110 l 1
EndSplineSet
Validated: 37
EndChar

StartChar: afii10060
Encoding: 703 1035 612
Width: 1282
Flags: W
HStem: 0 21G<120 298.844 862 1044.8> 1046 144<637.702 919.746> 1436 144<230 324 500 1272>
LayerCount: 3
Back
SplineSet
317.44 989.184 m 5
 366.592 1042.43 493.568 1189.89 694.271 1189.89 c 4
 980.992 1189.89 1116.16 1038.34 1116.16 727.04 c 6
 1116.16 0 l 5
 923.648 0 l 5
 923.648 727.04 l 6
 923.648 948.224 851.968 1046.53 694.271 1046.53 c 4
 468.992 1046.53 319.488 870.4 319.488 870.4 c 5
 319.488 0 l 5
 131.072 0 l 5
 131.072 1654.78 l 5
 319.488 1691.65 l 5
 317.44 989.184 l 5
EndSplineSet
Fore
SplineSet
434 990 m 1
 490 1050 632 1190 816 1190 c 0
 1082 1190 1188 1040 1144 728 c 2
 1042 0 l 1
 862 0 l 1
 964 728 l 2
 994 952 942 1046 794 1046 c 0
 586 1046 420 872 420 872 c 1
 296 0 l 1
 120 0 l 1
 324 1436 l 1
 208 1436 l 1
 230 1580 l 1
 1292 1580 l 1
 1272 1436 l 1
 656 1436 l 1
 500 1436 l 1
 434 990 l 1
EndSplineSet
Validated: 33
EndChar

StartChar: afii10051
Encoding: 704 1026 613
Width: 1282
Flags: W
HStem: -248 144<555.242 829.751> 0 21G<120 298.844> 1046 144<637.702 919.746> 1456 124<230 326 502 1276>
LayerCount: 3
Back
SplineSet
317.44 989.184 m 5
 366.592 1042.43 493.568 1189.89 694.271 1189.89 c 4
 980.992 1189.89 1116.16 1038.34 1116.16 727.04 c 6
 1116.16 0 l 5
 923.648 0 l 5
 923.648 727.04 l 6
 923.648 948.224 851.968 1046.53 694.271 1046.53 c 4
 468.992 1046.53 319.488 870.4 319.488 870.4 c 5
 319.488 0 l 5
 131.072 0 l 5
 131.072 1654.78 l 5
 319.488 1691.65 l 5
 317.44 989.184 l 5
EndSplineSet
Fore
SplineSet
502 1456 m 1
 434 990 l 1
 490 1046 632 1190 816 1190 c 0
 1082 1190 1188 1040 1144 728 c 2
 1070 196 l 1
 1070 192 l 1
 1056 102 l 2
 1024 -128 944 -248 728 -248 c 0
 618 -248 518 -186 518 -186 c 1
 538 -50 l 1
 538 -50 624 -104 734 -104 c 0
 840 -104 864 -14 874 62 c 2
 892 192 l 1
 888 192 l 1
 964 728 l 2
 994 952 942 1046 794 1046 c 0
 586 1046 420 872 420 872 c 1
 296 0 l 1
 120 0 l 1
 326 1456 l 1
 212 1456 l 1
 230 1580 l 1
 1292 1580 l 1
 1276 1456 l 1
 502 1456 l 1
EndSplineSet
Validated: 33
EndChar

StartChar: afii10046
Encoding: 705 1068 614
Width: 1298
Flags: W
HStem: 0 144<342 788.505> 786 130<450 873.069> 1560 20G<361.19 544>
LayerCount: 3
Back
SplineSet
1114.22 474.44 m 4xf4
 1114.22 747.602 958.468 819.486 632.59 819.486 c 6
 349.844 819.486 l 5
 349.844 148.562 l 5
 596.648 148.562 l 6
 924.922 148.562 1114.22 206.07 1114.22 474.44 c 4xf4
888.974 898.564 m 5
 1039.93 881.792 1296.33 800.318 1296.33 469.646 c 4
 1296.33 117.412 1047.12 0.0078125 596.644 0.0078125 c 6
 155.75 0.0078125 l 5
 155.75 1643.77 l 5
 349.84 1642.5 l 6
 349.84 953.672 l 5
 627.792 953.672 l 6
EndSplineSet
Fore
SplineSet
992 454 m 0
 1028 716 896 786 592 786 c 2
 432 786 l 1
 342 144 l 1
 466 144 l 2
 772 144 956 196 992 454 c 0
606 916 m 2
 984 916 1212 796 1162 450 c 0
 1114 112 866 0 446 0 c 2
 142 0 l 1
 364 1580 l 1
 544 1576 l 1
 450 916 l 1
 606 916 l 2
EndSplineSet
Validated: 33
EndChar

StartChar: afii10045
Encoding: 706 1067 615
Width: 1306
Flags: W
HStem: 0 144<342 788.505> 786 130<450 873.069> 1560 20G<361.19 544 1489.22 1674>
LayerCount: 3
Fore
SplineSet
1452 0 m 1
 1272 0 l 1
 1492 1580 l 1
 1674 1580 l 1
 1452 0 l 1
992 454 m 0
 1028 716 896 786 592 786 c 2
 432 786 l 1
 342 144 l 1
 466 144 l 2
 772 144 956 196 992 454 c 0
606 916 m 2
 984 916 1212 796 1162 450 c 0
 1114 112 866 0 446 0 c 2
 142 0 l 1
 364 1580 l 1
 544 1576 l 1
 450 916 l 1
 606 916 l 2
EndSplineSet
Validated: 33
EndChar

StartChar: afii10044
Encoding: 707 1066 616
Width: 1298
Flags: W
HStem: 0 144<342 788.505> 786 130<450 873.069> 1560 20G<361.19 544>
LayerCount: 3
Fore
SplineSet
992 454 m 0
 1028 716 896 786 592 786 c 2
 432 786 l 1
 342 144 l 1
 466 144 l 2
 772 144 956 196 992 454 c 0
606 916 m 2
 984 916 1212 796 1162 450 c 0
 1114 112 866 0 446 0 c 2
 142 0 l 1
 364 1580 l 1
 544 1576 l 1
 450 916 l 1
 606 916 l 2
EndSplineSet
Validated: 33
EndChar

StartChar: afii10059
Encoding: 708 1034 617
Width: 2276
Flags: W
HStem: 0 144<1170 1659.39> 768 146<1278 1727.17> 772 114<446 1078> 1560 20G<361.19 544 1187.23 1370>
LayerCount: 3
Fore
SplineSet
2024 450 m 0xd0
 1976 112 1728 0 1308 0 c 2
 968 0 l 1
 1078 772 l 1
 430 772 l 1
 324 0 l 1
 142 0 l 1
 364 1580 l 1
 544 1580 l 1
 446 886 l 1
 1094 886 l 1xb0
 1190 1580 l 1
 1370 1574 l 1
 1278 914 l 1
 1438 912 l 2
 1856 906 2072 788 2024 450 c 0xd0
1258 768 m 1xd0
 1170 144 l 1
 1330 144 l 2
 1636 144 1820 196 1856 454 c 0
 1892 712 1724 768 1418 768 c 2
 1258 768 l 1xd0
EndSplineSet
Validated: 33
EndChar

StartChar: afii10058
Encoding: 709 1033 618
Width: 2280
Flags: W
HStem: 0 144<1222 1704.04> 768 146<1332 1779.17> 1458 116<626 1226>
LayerCount: 3
Fore
SplineSet
1424 1574 m 1
 1332 914 l 1
 1490 912 l 2
 1908 906 2124 788 2076 450 c 0
 2028 112 1782 0 1362 0 c 2
 1022 0 l 1
 1226 1458 l 1
 626 1458 l 1
 462 454 l 1
 422 158 254 -30 78 -74 c 1
 54 44 l 1
 226 152 260 266 290 478 c 1
 472 1574 l 1
 1424 1574 l 1
1310 768 m 1
 1222 144 l 1
 1382 144 l 2
 1688 144 1872 196 1908 454 c 0
 1944 712 1776 768 1470 768 c 2
 1310 768 l 1
EndSplineSet
Validated: 33
EndChar

StartChar: afii10029
Encoding: 710 1051 619
Width: 1408
Flags: W
HStem: 0 148<25.0632 300.481> 1446 124<756 1300>
LayerCount: 3
Back
SplineSet
155.648 364.548 m 5
 342.548 364.544 l 5
 342.548 160.537 l 6
 342.548 -148.566 196.383 -342.654 14.2734 -388.178 c 5
 -31.252 -268.37 l 5
 136.479 -155.75 155.648 -38.3379 155.648 184.504 c 6
 155.648 364.548 l 5
EndSplineSet
Fore
SplineSet
188 0 m 0
 80 0 22 34 22 34 c 1
 26 174 l 1
 26 174 102 148 174 148 c 0
 402 148 460 438 544 1030 c 0
 572 1228 594 1570 594 1570 c 1
 1502 1570 l 1
 1280 0 l 1
 1098 0 l 1
 1300 1446 l 1
 756 1446 l 1
 756 1446 742 1166 718 996 c 0
 602 160 474 0 188 0 c 0
EndSplineSet
Validated: 1
EndChar

StartChar: afii10037
Encoding: 711 1059 620
Width: 1126
Flags: W
HStem: -54 126<146.359 262.594> 1552 20G<208 401.867 997.413 1196>
LayerCount: 3
Fore
SplineSet
538 848 m 1
 538 848 586 602 586 594 c 1
 588 602 696 850 696 850 c 1
 1006 1572 l 1
 1196 1572 l 1
 636 404 l 2
 576 280 478 -20 150 -54 c 1
 118 72 l 1
 308 106 368 162 480 410 c 1
 208 1572 l 1
 398 1572 l 1
 538 848 l 1
EndSplineSet
Validated: 1
EndChar

StartChar: afii10096
Encoding: 712 1102 621
Width: 1190
Flags: W
HStem: -20 142<396.373 706.619> 988 142<507.278 810.957>
LayerCount: 3
Fore
SplineSet
544 122 m 0
 742 122 868 280 906 552 c 0
 944 824 864 988 666 988 c 0
 468 988 344 824 306 552 c 0
 268 280 346 122 544 122 c 0
686 1130 m 0
 1014 1130 1108 846 1068 552 c 0
 1028 258 852 -20 524 -20 c 0
 196 -20 104 258 144 552 c 0
 184 846 358 1130 686 1130 c 0
EndSplineSet
Validated: 33
EndChar

StartChar: afii10086
Encoding: 714 1092 623
Width: 1490
Flags: W
HStem: -28 126<392.719 588.871 742.787 972.913> 1008 122<503.377 731.279 882.685 1083.64>
DStem2: 564 -188 700 -188 0.139173 0.990268<18.9275 185.828 314.092 1200.33 1325.66 1571.2>
LayerCount: 3
Fore
SplineSet
700 -188 m 1
 564 -188 l 1
 590 -4 l 1
 566 -10 536 -28 504 -28 c 0
 176 -28 104 248 144 548 c 0
 184 844 338 1126 650 1130 c 0
 682 1130 730 1120 746 1106 c 1
 782 1368 l 1
 920 1368 l 1
 882 1106 l 1
 900 1120 954 1130 986 1130 c 0
 1306 1128 1372 844 1332 548 c 0
 1292 248 1134 -28 806 -28 c 0
 774 -28 750 -10 728 -4 c 1
 700 -188 l 1
824 98 m 0
 1022 98 1132 272 1170 548 c 0
 1208 824 1148 1008 950 1008 c 0
 914 1008 886 1006 866 996 c 1
 742 106 l 1
 754 100 772 98 794 98 c 0
 802 98 814 98 824 98 c 0
522 98 m 0
 532 98 542 98 550 98 c 0
 572 98 592 100 606 106 c 1
 732 996 l 1
 714 1006 686 1008 650 1008 c 0
 452 1008 344 824 306 548 c 0
 268 272 324 98 522 98 c 0
EndSplineSet
Validated: 33
EndChar

StartChar: afii10067
Encoding: 716 1074 625
Width: 1198
Flags: W
HStem: -2 124<296.004 725.786> 512 112<374.688 737.586> 988 122<404 824.199>
VStem: 404 16<988 990>
LayerCount: 3
Back
SplineSet
318.694 876.782 m 5
 318.694 952.394 l 5
 318.694 1510.34 l 5
 318.694 1510.34 428.34 1506.24 632.018 1506.24 c 4
 883.61 1506.24 958.468 1359.64 958.468 1167.95 c 4
 958.468 976.256 869.274 876.782 617.682 876.782 c 4
 414.004 876.782 318.694 876.782 318.694 876.782 c 5
318.694 751.376 m 5
 617.682 750.74 l 5
 972.312 750.74 1140.58 882.8 1140.58 1167.95 c 4
 1140.58 1453.1 986.648 1636.35 632.018 1636.35 c 5
 126.996 1634.88 l 5
 126.996 539.75 l 5
 318.694 540.672 l 5
 318.694 751.376 l 5
EndSplineSet
Fore
SplineSet
266 1110 m 1
 534 1110 l 1
 842 1110 1064 1080 1028 820 c 0
 1006 664 908 596 740 576 c 1
 902 556 1006 484 984 328 c 0
 948 68 760 -2 452 -2 c 2
 110 0 l 1
 266 1110 l 1
354 514 m 1
 296 118 l 1
 296 118 300 122 474 122 c 0
 690 122 798 156 822 328 c 0
 842 480 764 500 598 514 c 1
 578 512 556 512 534 512 c 2
 354 514 l 1
370 632 m 2
 370 626 420 624 472 624 c 0
 524 624 578 626 584 626 c 0
 770 626 844 656 866 818 c 0
 888 986 738 988 530 988 c 2
 518 988 l 2
 426 988 404 988 404 990 c 0
 420 992 l 1
 370 632 l 2
EndSplineSet
Validated: 37
EndChar

StartChar: afii10092
Encoding: 717 1098 626
Width: 1120
Flags: W
HStem: 0 122<306 713.25> 524 126<378 777.061> 1054 114<110 264>
LayerCount: 3
Fore
SplineSet
94 1054 m 1
 110 1168 l 1
 452 1168 l 1
 378 650 l 1
 490 650 l 1
 530 650 l 2
 814 650 1014 604 978 344 c 0
 940 72 762 -2 460 -2 c 2
 448 -2 l 1
 204 0 l 1
 114 0 l 1
 264 1054 l 1
 94 1054 l 1
362 524 m 1
 306 122 l 1
 466 122 l 2
 682 122 792 160 818 344 c 0
 842 522 694 524 486 524 c 2
 472 524 l 1
 362 524 l 1
EndSplineSet
Validated: 33
EndChar

StartChar: afii10093
Encoding: 718 1099 627
Width: 1548
Flags: W
HStem: -28 126<1158 1317.69> 0 122<344 757.098> 500 124<416 816.52> 1090 20G<309.189 484 1233.21 1398>
LayerCount: 3
Fore
SplineSet
1284 292 m 1xb0
 1278 246 1270 162 1268 138 c 1
 1270 120 1284 98 1298 98 c 0
 1316 98 1352 124 1376 172 c 2
 1440 290 l 1
 1468 264 l 1
 1372 48 1304 -28 1214 -28 c 0
 1102 -28 1098 126 1124 308 c 1
 1236 1110 l 1
 1398 1110 l 1
 1284 292 l 1xb0
484 1110 m 1
 416 624 l 1
 526 624 l 2
 540 624 556 624 570 624 c 0
 854 624 1052 582 1018 330 c 0
 982 70 802 -2 500 -2 c 0
 496 -2 492 -2 488 -2 c 2
 246 0 l 1
 156 0 l 1x70
 312 1110 l 1
 484 1110 l 1
398 500 m 1
 344 122 l 1
 508 122 l 2
 724 122 832 158 856 330 c 0
 878 496 734 500 534 500 c 2
 508 500 l 1
 398 500 l 1
EndSplineSet
Validated: 33
EndChar

StartChar: afii10094
Encoding: 719 1100 628
Width: 1148
Flags: W
HStem: 0 122<324 731.25> 524 126<398 792.574>
LayerCount: 3
Fore
SplineSet
468 1168 m 1
 398 650 l 1
 506 650 l 2
 520 650 534 650 548 650 c 0
 832 650 1032 606 996 344 c 0
 958 74 780 -2 478 -2 c 0
 474 -2 468 -2 464 -2 c 2
 222 0 l 1
 134 0 l 1
 296 1168 l 1
 468 1168 l 1
378 524 m 1
 324 122 l 1
 486 122 l 2
 702 122 808 160 834 344 c 0
 858 520 716 524 516 524 c 2
 488 524 l 1
 378 524 l 1
EndSplineSet
Validated: 33
EndChar

StartChar: afii10106
Encoding: 720 1113 629
Width: 1918
Flags: W
HStem: 0 122<986 1368.59> 496 124<1054 1426.63> 996 114<572 934>
LayerCount: 3
Fore
SplineSet
882 0 m 1
 794 0 l 1
 934 996 l 1
 572 996 l 1
 432 344 l 1
 432 336 l 2
 394 56 212 -12 50 -52 c 1
 70 106 l 1
 230 174 262 242 288 366 c 2
 442 1110 l 1
 1122 1110 l 1
 1054 620 l 1
 1136 620 l 2
 1150 620 1166 620 1180 620 c 0
 1464 620 1662 578 1628 328 c 0
 1592 70 1414 -2 1112 -2 c 0
 1108 -2 1104 -2 1100 -2 c 2
 882 0 l 1
1036 496 m 1
 986 122 l 1
 1120 122 l 2
 1336 122 1442 158 1466 328 c 0
 1488 492 1346 496 1146 496 c 2
 1118 496 l 1
 1036 496 l 1
EndSplineSet
Validated: 33
EndChar

StartChar: afii10107
Encoding: 721 1114 630
Width: 1992
Flags: W
HStem: 0 122<1082 1480.25> 524 126<1156 1543.9> 550 116<402 968>
LayerCount: 3
Fore
SplineSet
890 0 m 1xc0
 968 550 l 1
 386 550 l 1
 308 0 l 1
 136 0 l 1
 300 1168 l 1
 472 1168 l 1
 402 666 l 1
 986 666 l 1xa0
 1054 1168 l 1
 1228 1168 l 1
 1156 650 l 1
 1256 650 l 1
 1564 654 1782 618 1744 344 c 0
 1706 74 1528 -2 1226 -2 c 0
 1222 -2 1218 -2 1214 -2 c 2
 992 0 l 1
 890 0 l 1xc0
1136 524 m 1xc0
 1082 122 l 1
 1232 122 l 2
 1448 122 1560 160 1586 344 c 0
 1610 520 1466 524 1266 524 c 2
 1236 524 l 1
 1136 524 l 1xc0
EndSplineSet
Validated: 33
EndChar

StartChar: afii10089
Encoding: 722 1095 631
Width: 1064
Flags: W
HStem: -26 130<776 945.332> 324 142<386.428 744> 1090 20G<233.143 408 851.205 1024>
VStem: 854 170<1007.42 1110>
LayerCount: 3
Fore
SplineSet
744 326 m 1
 742 324 664 324 492 324 c 0
 244 324 142 438 182 732 c 2
 236 1110 l 1
 408 1110 l 1
 354 736 l 2
 326 528 378 466 514 466 c 2
 764 466 l 1
 854 1110 l 1
 1024 1110 l 1
 912 294 l 1
 906 250 894 164 892 142 c 1
 894 124 912 104 926 104 c 0
 944 104 982 134 1008 186 c 2
 1068 294 l 1
 1098 268 l 1
 998 48 930 -26 836 -26 c 0
 716 -26 718 132 742 306 c 1
 744 326 l 1
EndSplineSet
Validated: 33
EndChar

StartChar: afii10079
Encoding: 723 1085 632
Width: 1348
Flags: W
HStem: -26 132<969 1139.38> 0 21G<136 310.748> 524 114<398 964> 1090 20G<287.225 462 1043.2 1220>
LayerCount: 3
Fore
SplineSet
934 306 m 1xb0
 964 524 l 1
 380 524 l 1
 308 0 l 1
 136 0 l 1x70
 290 1110 l 1
 462 1110 l 1
 398 638 l 1
 980 638 l 1
 1046 1110 l 1
 1220 1110 l 1
 1106 294 l 1
 1100 250 1092 166 1090 144 c 1
 1092 126 1108 106 1122 106 c 0
 1142 106 1176 136 1204 188 c 2
 1262 296 l 1
 1292 268 l 1
 1192 46 1124 -26 1030 -26 c 0
 908 -26 910 132 934 306 c 1xb0
EndSplineSet
Validated: 33
EndChar

StartChar: afii10078
Encoding: 724 1084 633
Width: 1912
Flags: W
HStem: -28 122<1095 1250.94> 0 21G<72 229.377 534.556 717.111> 1090 20G<264.468 497.295 1053.19 1290>
LayerCount: 3
Back
SplineSet
855.43 0 m 5x90
 464.86 1198.08 l 5
 357.032 1576.67 l 5
 361.824 1274.76 l 5xb0
 345.046 0 l 5
 153.354 0 l 5xc0
 189.297 1643.77 l 5
 505.59 1643.77 l 5
 860.22 512.778 l 5
 972.844 86.2617 l 5
 1085.46 512.778 l 5
 1440.1 1643.77 l 5
 1756.39 1643.77 l 5xb0
 1792.33 0 l 5
 1600.64 0 l 5x88
 1583.87 1274.76 l 5
 1588.66 1576.67 l 5
 1480.83 1198.08 l 5
 1090.26 0 l 5
 855.43 0 l 5x90
EndSplineSet
Fore
SplineSet
538 0 m 1x60
 414 720 l 1
 380 974 l 1
 356 770 l 1
 226 0 l 1
 72 0 l 1x60
 268 1110 l 1
 494 1110 l 1
 610 406 l 1
 642 118 l 1
 752 406 l 1
 1062 1110 l 1
 1290 1110 l 1
 1216 290 l 1
 1210 242 1200 156 1198 132 c 1
 1200 116 1216 94 1230 94 c 0
 1246 94 1280 118 1302 162 c 2
 1370 286 l 1
 1396 258 l 1
 1302 48 1236 -28 1148 -28 c 0xa0
 1042 -28 1038 120 1064 308 c 1
 1108 772 l 1
 1140 974 l 1
 1036 720 l 1
 708 0 l 1
 538 0 l 1x60
EndSplineSet
Validated: 33
EndChar

StartChar: afii10088
Encoding: 725 1094 634
Width: 1406
Flags: W
HStem: -8 114<324 840> 1090 20G<287.209 462 977.211 1154>
VStem: 930 152<-168 -10.7966>
LayerCount: 3
Fore
SplineSet
134 -8 m 1
 290 1110 l 1
 462 1110 l 1
 324 106 l 1
 840 106 l 1
 980 1110 l 1
 1154 1110 l 1
 1014 110 l 1
 1106 110 l 1
 1098 52 l 2
 1086 -30 1078 -110 1082 -168 c 1
 930 -168 l 1
 924 -106 924 -68 930 -8 c 1
 134 -8 l 1
EndSplineSet
Validated: 33
EndChar

StartChar: afii10091
Encoding: 726 1097 635
Width: 1832
Flags: W
HStem: -8 114<324 690 864 1220> 1090 20G<287.209 462 829.171 1004 1357.21 1534>
VStem: 1310 150<-168 -10.7966>
LayerCount: 3
Fore
SplineSet
134 -8 m 1
 290 1110 l 1
 462 1110 l 1
 324 106 l 1
 690 106 l 1
 832 1110 l 1
 1004 1110 l 1
 864 106 l 1
 1220 106 l 1
 1360 1110 l 1
 1534 1110 l 1
 1392 110 l 1
 1484 110 l 1
 1476 52 l 2
 1464 -30 1456 -110 1460 -168 c 1
 1310 -168 l 1
 1304 -106 1302 -68 1308 -8 c 1
 134 -8 l 1
EndSplineSet
Validated: 33
EndChar

StartChar: afii10077
Encoding: 728 1083 637
Width: 1384
Flags: W
HStem: -26 132<895 1065.81> 996 114<558 956>
LayerCount: 3
Back
SplineSet
230.336 1216.51 m 5
 1148.85 1216.51 l 5
 1148.85 0 l 5
 954.758 0 l 5
 954.758 1096.7 l 5
 412.134 1096.7 l 5
 377.32 421.888 l 5
 376.832 422.122 l 5
 376.832 413.548 l 6
 376.832 104.443 225.054 -89.6445 42.9453 -135.168 c 5
 -2.58008 -15.3594 l 5
 165.15 97.2598 186.969 214.88 196.607 437.514 c 6
 230.336 1216.51 l 5
EndSplineSet
Fore
SplineSet
428 1110 m 1
 1144 1110 l 1
 1032 294 l 1
 1026 250 1018 166 1016 144 c 1
 1018 126 1034 106 1048 106 c 0
 1068 106 1100 136 1128 188 c 2
 1188 296 l 1
 1218 268 l 1
 1118 46 1050 -26 956 -26 c 0
 834 -26 836 132 860 306 c 1
 956 996 l 1
 558 996 l 1
 420 344 l 1
 420 336 l 2
 382 56 214 -12 52 -52 c 1
 72 106 l 1
 232 174 250 242 276 366 c 2
 428 1110 l 1
EndSplineSet
Validated: 33
EndChar

StartChar: afii10074
Encoding: 729 1080 638
Width: 1184
Flags: W
HStem: -28 116<880 1026.01> 0 21G<106 251> 1090 20G<259.189 406 886.501 1106>
LayerCount: 3
Fore
SplineSet
296 328 m 1x60
 902 1110 l 1
 1106 1110 l 1
 992 286 l 1
 986 236 972 148 970 124 c 1
 972 108 990 88 1004 88 c 0
 1018 88 1052 110 1072 146 c 2
 1142 278 l 1
 1166 252 l 1
 1074 46 1010 -28 928 -28 c 0xa0
 832 -28 822 112 850 308 c 1
 922 818 l 1
 958 1002 l 1
 852 846 l 1
 266 120 l 1
 248 0 l 1
 106 0 l 1
 262 1110 l 1
 406 1110 l 1
 296 328 l 1x60
EndSplineSet
Validated: 33
EndChar

StartChar: afii10090
Encoding: 730 1096 639
Width: 1836
Flags: W
HStem: 0 114<324 692 864 1220> 1090 20G<287.225 462 829.189 1004 1357.19 1534>
LayerCount: 3
Fore
SplineSet
1376 0 m 1
 136 0 l 1
 290 1110 l 1
 462 1110 l 1
 324 114 l 1
 692 114 l 1
 832 1110 l 1
 1004 1110 l 1
 864 114 l 1
 1220 114 l 1
 1360 1110 l 1
 1534 1110 l 1
 1376 0 l 1
EndSplineSet
Validated: 1
EndChar

StartChar: afii10072
Encoding: 731 1078 640
Width: 1182
Flags: W
HStem: 0 21G<-14 169.424 440 586.447 862.295 1040> 1090 20G<593.682 740 1012.53 1024>
VStem: 1230 28<855.712 889.886>
LayerCount: 3
Fore
SplineSet
584 0 m 1
 440 0 l 1
 518 472 l 1
 154 0 l 1
 -14 0 l 1
 438 552 l 1
 138 1110 l 1
 194 1000 l 0
 188 1010 182 1022 172 1022 c 0
 158 1022 124 1000 104 964 c 2
 32 832 l 1
 8 858 l 1
 98 1062 164 1138 244 1138 c 0
 274 1138 302 1126 316 1100 c 0
 310 1110 l 1
 542 644 l 1
 596 1110 l 1
 740 1110 l 1
 666 642 l 1
 1028 1110 l 1
 1024 1104 l 0
 1048 1170 1086 1198 1110 1198 c 0
 1184 1198 1236 1106 1258 868 c 1
 1230 844 l 1
 1192 992 l 2
 1184 1018 1158 1034 1146 1034 c 0
 1136 1034 1126 1020 1118 1008 c 0
 1200 1110 l 1
 742 552 l 1
 1040 0 l 1
 872 0 l 1
 642 474 l 1
 584 0 l 1
EndSplineSet
Validated: 5
EndChar

StartChar: afii10084
Encoding: 733 1090 642
Width: 1012
Flags: W
HStem: 0 21G<368 538.899> 966 144<148 506 676 1048>
DStem2: 368 0 536 0 0.139173 0.990268<23.3811 975.805>
LayerCount: 3
Fore
SplineSet
1048 966 m 1
 676 966 l 1
 536 0 l 1
 368 0 l 1
 506 966 l 1
 126 966 l 1
 148 1110 l 1
 1068 1110 l 1
 1048 966 l 1
EndSplineSet
Validated: 1
EndChar

StartChar: afii10085
Encoding: 735 1091 644
Width: 900
Flags: W
HStem: -458 124<12.7628 120.41> 1090 20<90 267.604 793.807 976>
VStem: 90 174<1041.41 1110>
LayerCount: 3
Back
SplineSet
450.478 462.458 m 5
 450.478 462.458 539.128 206.07 541.526 196.486 c 5
 541.526 206.07 620.6 464.856 620.6 464.856 c 5
 843.442 1217.25 l 5
 1049.51 1217.25 l 5
 625.392 0 l 6
 579.868 -129.393 515.17 -440.892 167.729 -476.836 c 5
 117.408 -347.444 l 5
 316.29 -311.506 369.008 -253.994 452.876 4.78711 c 5
 -14.377 1217.25 l 5
 189.297 1217.25 l 5
 450.478 462.458 l 5
EndSplineSet
Fore
Refer: 85 121 N 1 0 0 1 0 0 3
EndChar

StartChar: afii10069
Encoding: 736 1076 645
Width: 1396
Flags: W
HStem: -2 114<382 818> 996 114<558 956>
LayerCount: 3
Fore
SplineSet
424 1110 m 1
 1144 1110 l 1
 966 -158 l 1
 794 -158 l 1
 818 -2 l 1
 336 -2 l 1
 262 -134 138 -178 22 -208 c 1
 44 -52 l 1
 204 16 224 84 248 210 c 2
 424 1110 l 1
382 112 m 1
 834 112 l 1
 956 996 l 1
 558 996 l 1
 400 200 l 1
 400 192 l 2
 396 164 388 136 382 112 c 1
EndSplineSet
Validated: 1
EndChar

StartChar: afii10097
Encoding: 737 1103 646
Width: 1338
Flags: W
HStem: -28 118<45.0056 154 699 855.018> 504 106<524.704 694> 1004 106<397.178 764>
VStem: -30 32<225.716 263.648>
LayerCount: 3
Back
SplineSet
57.9531 0 m 5
 57.9531 303.21 l 6
 57.9531 496.486 123.561 588.69 331.02 611.74 c 5
 198.031 615.288 57.9531 712.81 57.9531 888.354 c 4
 57.9531 1196.88 300.876 1216.38 588.128 1216.38 c 6
 897.358 1216.38 l 5
 897.358 0 l 5
 723.012 0 l 5
 723.012 555.946 l 5
 596.47 555.946 l 6
 316.308 555.946 215.238 508.894 215.238 313.848 c 6
 215.238 0 l 5
 57.9531 0 l 5
723.012 661.386 m 5
 723.012 1106.45 l 5
 610.654 1106.45 l 6
 351.774 1106.45 206.374 1095.81 206.374 888.356 c 4
 206.374 689.76 357.09 661.392 615.972 661.388 c 6
 723.012 661.386 l 5
EndSplineSet
Fore
SplineSet
708 610 m 1
 764 1004 l 1
 678 1004 l 2
 456 1004 332 990 306 806 c 0
 282 628 406 610 628 610 c 2
 708 610 l 1
694 504 m 1
 618 504 580 506 522 512 c 1
 238 38 l 1
 212 -6 174 -28 134 -28 c 0
 48 -28 4 46 -30 252 c 1
 2 278 l 1
 36 154 l 2
 46 116 74 90 90 90 c 0
 102 90 114 108 122 122 c 1
 374 528 l 1
 374 530 l 1
 198 568 140 652 162 808 c 0
 200 1090 416 1110 666 1110 c 2
 934 1110 l 1
 820 288 l 1
 814 240 802 156 800 132 c 1
 802 116 818 94 832 94 c 0
 848 94 884 118 906 162 c 2
 970 282 l 1
 998 256 l 1
 904 46 840 -28 752 -28 c 0
 646 -28 640 118 666 304 c 1
 694 504 l 1
EndSplineSet
Validated: 33
EndChar

StartChar: afii10068
Encoding: 742 1075 651
Width: 1416
Flags: W
HStem: 0 21G<136 310.771> 996 114<446 906>
DStem2: 136 0 308 0 0.139173 0.990268<23.9378 1029.45>
LayerCount: 3
Fore
SplineSet
922 1110 m 1
 906 996 l 1
 446 996 l 1
 308 0 l 1
 136 0 l 1
 290 1110 l 1
 922 1110 l 1
EndSplineSet
Validated: 1
EndChar

StartChar: afii10066
Encoding: 743 1073 652
Width: 1068
Flags: W
HStem: -18 130<364.686 650.42> 960 134<480.888 754.793>
LayerCount: 3
Back
SplineSet
242.894 617.268 m 1
 242.894 236.544 349.39 120.422 561.152 120.422 c 0
 775.168 120.422 876.544 263.578 876.544 599.244 c 0
 876.544 862.822 770.664 999.218 558.898 999.218 c 0
 347.136 999.218 240.64 813.262 242.894 617.268 c 1
389.94 1245.8 m 0
 297.576 1200.74 257.024 1067.83 239.002 880.846 c 1
 302.08 1040.79 398.954 1116.98 545.384 1132.75 c 0
 831.488 1164.29 1038.75 957.44 1038.75 601.498 c 0
 1038.75 202.752 876.544 -22.5273 547.634 -22.5273 c 0
 216.472 -22.5273 65.5352 232.04 65.5352 651.058 c 0
 65.5352 948.43 130.664 1244.77 286.106 1346.15 c 4
 464.078 1461.04 716.392 1463.3 849.304 1544.4 c 5
 903.578 1396.74 l 1
 806.708 1320.14 545.384 1317.89 389.94 1245.8 c 0
EndSplineSet
Fore
SplineSet
642 1094 m 0
 944 1094 1024 816 986 534 c 0
 948 252 784 -18 482 -18 c 0
 180 -18 98 252 136 534 c 1
 136 534 140 588 150 662 c 0
 164 760 188 898 232 998 c 0
 326 1220 494 1270 702 1364 c 2
 950 1474 l 1
 976 1336 l 1
 976 1336 778 1244 668 1206 c 0
 532 1158 390 1128 310 880 c 1
 416 1038 532 1094 642 1094 c 0
500 112 m 0
 682 112 802 268 838 534 c 0
 874 800 802 960 620 960 c 0
 438 960 320 800 284 534 c 0
 248 268 318 112 500 112 c 0
EndSplineSet
Validated: 33
EndChar

StartChar: afii10038
Encoding: 755 1060 664
Width: 2262
Flags: W
HStem: -40 150<540.833 918.601 1151.9 1535.94> 1458 152<713.446 1099.83 1333.03 1715.09>
LayerCount: 3
Fore
SplineSet
954 174 m 1
 1126 1396 l 1
 1068 1440 998 1458 910 1458 c 0
 640 1458 454 1272 386 784 c 0
 318 296 456 110 720 110 c 0
 808 110 884 130 954 174 c 1
1148 1558 m 1
 1168 1696 l 1
 1334 1696 l 1
 1314 1556 l 1
 1378 1592 1456 1610 1550 1610 c 0
 1894 1610 2134 1388 2050 784 c 0
 1966 180 1666 -40 1318 -40 c 0
 1224 -40 1150 -26 1096 10 c 1
 1080 -110 l 1
 914 -110 l 1
 932 10 l 1
 868 -24 792 -40 698 -40 c 0
 350 -40 114 180 198 784 c 0
 282 1388 588 1610 932 1610 c 0
 1026 1610 1094 1592 1148 1558 c 1
1290 1394 m 1
 1120 176 l 1
 1178 130 1252 110 1340 110 c 0
 1604 110 1796 296 1864 784 c 0
 1932 1272 1798 1458 1528 1458 c 0
 1438 1458 1360 1440 1290 1394 c 1
EndSplineSet
Validated: 33
EndChar

StartChar: afii10041
Encoding: 756 1063 665
Width: 1256
Flags: W
HStem: 0 21G<886 1066.82> 582 142<425.759 968> 1552 20G<273.197 456 1105.22 1286>
LayerCount: 3
Fore
SplineSet
1286 1572 m 1
 1064 0 l 1
 886 0 l 1
 968 586 l 1
 964 586 672 582 518 582 c 0
 284 582 156 720 202 1044 c 2
 276 1572 l 1
 456 1572 l 1
 380 1044 l 2
 350 820 402 724 550 724 c 2
 990 724 l 1
 1108 1572 l 1
 1286 1572 l 1
EndSplineSet
Validated: 33
EndChar

StartChar: afii10048
Encoding: 757 1070 666
Width: 2162
Flags: W
HStem: -40 150<1070.71 1445.07> 0 21G<142 326.775> 764 114<446 722> 1458 152<1239.55 1625.09> 1560 20G<361.19 544>
LayerCount: 3
Fore
SplineSet
1438 1458 m 0xb0
 1168 1458 982 1272 914 784 c 0
 846 296 986 110 1250 110 c 0
 1514 110 1706 296 1774 784 c 0
 1842 1272 1708 1458 1438 1458 c 0xb0
742 878 m 1
 844 1412 1132 1610 1460 1610 c 0
 1804 1610 2044 1388 1960 784 c 0
 1876 180 1574 -40 1226 -40 c 0xb0
 884 -40 644 174 722 764 c 1
 430 764 l 1
 324 0 l 1
 142 0 l 1
 364 1580 l 1
 544 1580 l 1x68
 446 878 l 1
 742 878 l 1
EndSplineSet
Validated: 33
EndChar

StartChar: afii10018
Encoding: 758 1041 667
Width: 1414
Flags: W
HStem: 0 144<342 826.041> 768 146<450 899.523> 1436 144<524 1190>
LayerCount: 3
Fore
SplineSet
364 1580 m 1
 1208 1580 l 1
 1190 1436 l 1
 524 1436 l 1
 450 914 l 1
 610 912 l 2
 1028 906 1246 788 1198 450 c 0
 1150 112 904 0 484 0 c 2
 142 0 l 1
 364 1580 l 1
430 768 m 1
 342 144 l 1
 502 144 l 2
 808 144 992 196 1028 454 c 0
 1064 712 896 768 590 768 c 2
 430 768 l 1
EndSplineSet
Validated: 33
EndChar

StartChar: afii10020
Encoding: 759 1043 668
Width: 1574
Flags: W
HStem: -2 21G<142 324.822> 1458 114<528 1300>
LayerCount: 3
Fore
SplineSet
1300 1458 m 1
 528 1458 l 1
 322 -2 l 1
 142 -2 l 1
 362 1572 l 1
 1314 1570 l 1
 1300 1458 l 1
EndSplineSet
Validated: 1
EndChar

StartChar: afii10073
Encoding: 761 1079 670
Width: 1240
Flags: W
HStem: 2 140<178.9 582.773> 508 116<416 608.75> 972 138<319.862 694.549>
LayerCount: 3
Fore
SplineSet
512 972 m 0
 380 966 260 912 260 912 c 1
 280 1048 l 1
 338 1072 392 1108 524 1110 c 0
 526 1110 530 1110 532 1110 c 0
 742 1110 904 1040 872 806 c 0
 854 666 756 584 658 562 c 1
 748 538 818 446 800 310 c 0
 768 72 566 4 366 2 c 0
 362 2 360 2 356 2 c 0
 238 2 190 36 140 60 c 1
 158 196 l 1
 158 196 264 142 394 142 c 0
 536 142 630 180 648 304 c 0
 648 306 648 304 648 306 c 0
 668 460 606 508 400 508 c 1
 416 624 l 1
 418 624 l 2
 624 624 700 662 720 814 c 0
 738 948 666 972 550 972 c 0
 538 972 526 972 512 972 c 0
EndSplineSet
Validated: 33
EndChar

StartChar: afii10024
Encoding: 762 1046 671
Width: 1352
Flags: W
HStem: 0 21G<202 378.78 917.695 1126> 590 150<482 624> 1154 178<1112.84 1276.37>
LayerCount: 3
Fore
SplineSet
458 590 m 1
 376 0 l 1
 202 0 l 1
 390 1324 l 1
 564 1324 l 1
 482 740 l 1
 648 740 l 1
 946 1146 l 2
 1038 1272 1110 1332 1194 1332 c 0
 1254 1332 1308 1300 1308 1300 c 1
 1270 1142 l 1
 1270 1142 1240 1154 1212 1154 c 0
 1158 1154 1120 1128 1062 1054 c 2
 860 786 l 1
 742 662 l 1
 824 540 l 1
 1126 0 l 1
 928 0 l 1
 624 590 l 1
 458 590 l 1
EndSplineSet
Validated: 1
EndChar

StartChar: afii10025
Encoding: 763 1047 672
Width: 1390
Flags: W
HStem: -40 150<327.486 852.805> 690 188<582.472 951> 1458 152<529.906 1032.67>
VStem: 1142 172<1033.3 1363.62>
LayerCount: 3
Back
SplineSet
503.808 718.848 m 5
 503.808 718.848 503.792 758.99 503.808 817.152 c 4
 503.624 871.562 507.886 915.458 507.904 915.458 c 6
 839.966 915.276 l 5
 999.498 966.804 1067 1097.8 1053.92 1232.75 c 4
 1039.36 1383.01 974.848 1519.62 643.442 1519.29 c 4
 406.22 1519.05 217.088 1430.28 217.088 1430.28 c 5
 217.088 1586.38 l 5
 217.088 1586.38 394.24 1677.44 676.986 1677.44 c 4
 1060.37 1677.44 1208.32 1490.94 1236.73 1253.93 c 4
 1258.91 1068.85 1182.3 914.858 1047.36 817.152 c 5
 1182.3 719.448 1258.91 565.456 1236.73 380.376 c 4
 1208.32 143.359 1060.37 -43.1309 676.986 -43.1309 c 4
 394.24 -43.1309 217.088 47.9238 217.088 47.9238 c 5
 217.088 204.022 l 5
 217.088 204.022 406.22 115.25 643.442 115.016 c 4
 974.848 114.689 1039.36 251.296 1053.92 401.55 c 4
 1067 536.5 999.5 667.5 839.968 719.028 c 5
 503.808 718.848 l 5
EndSplineSet
Fore
SplineSet
562 690 m 1
 574 784 l 2
 582 838 592 878 592 878 c 1
 900 878 l 1
 1044 924 1124 1038 1140 1156 c 0
 1142 1166 1142 1174 1142 1184 c 0
 1148 1328 1108 1458 798 1458 c 0
 576 1458 392 1372 392 1372 c 1
 412 1524 l 1
 412 1524 590 1610 852 1610 c 0
 1208 1610 1320 1432 1314 1204 c 0
 1314 1184 1312 1160 1310 1140 c 0
 1288 982 1196 834 1018 784 c 1
 1182 724 1232 582 1210 428 c 0
 1208 408 1204 386 1198 364 c 0
 1138 136 976 -40 620 -40 c 0
 358 -40 204 46 204 46 c 1
 226 196 l 1
 226 196 386 110 608 110 c 0
 918 110 998 242 1030 386 c 0
 1032 396 1034 404 1036 414 c 0
 1052 532 1006 644 874 690 c 1
 562 690 l 1
EndSplineSet
Validated: 33
EndChar

StartChar: question
Encoding: 63 63 673
Width: 1136
Flags: W
HStem: -28 208<278.217 420.222> 1354 162<406.93 847.356>
LayerCount: 3
Fore
SplineSet
1090 1150 m 0
 1038 790 512 580 512 580 c 1
 466 304 l 1
 306 304 l 1
 354 674 l 1
 354 674 866 872 904 1144 c 0
 924 1288 862 1354 664 1354 c 0
 662 1354 658 1354 654 1354 c 0
 508 1354 340 1308 340 1308 c 1
 344 1322 362 1446 366 1460 c 1
 366 1460 540 1516 694 1516 c 0
 1034 1516 1118 1350 1090 1150 c 0
252 74 m 0
 260 134 310 180 362 180 c 0
 418 180 454 134 446 74 c 0
 438 18 390 -28 334 -28 c 0
 282 -28 244 18 252 74 c 0
EndSplineSet
Validated: 33
EndChar

StartChar: dotlessi
Encoding: 764 305 674
Width: 467
Flags: W
HStem: 0 21G<91.4258 256.237> 1090 20G<244.615 409.426>
VStem: 91.4258 318
LayerCount: 3
Fore
SplineSet
91.4258 0 m 1
 247.426 1110 l 1
 409.426 1110 l 5
 253.426 0 l 5
 91.4258 0 l 1
EndSplineSet
EndChar

StartChar: oslash
Encoding: 248 248 675
Width: 1104
Flags: W
HStem: -21 131<348.643 642.846> 998 132<470.369 762.825>
VStem: 86 162<220.336 704.283> 854 162<394.397 894.604>
LayerCount: 3
Fore
SplineSet
216 -145 m 1
 853 1259.99 l 1
 921 1225.99 l 1
 288 -181 l 1
 216 -145 l 1
EndSplineSet
Refer: 75 111 N 1 0 0 1 0 0 2
EndChar

StartChar: sterling
Encoding: 765 163 676
Width: 980
Flags: W
HStem: 1190 132<516.748 864.974>
VStem: 319 137<399.117 576>
LayerCount: 3
Fore
SplineSet
319 577 m 5
 297 418 231 301 230 299 c 5
 119 116 l 5
 106 0 l 5
 851 0 l 5
 868 122 l 5
 267 122 l 5
 267 122 417 300 456 576 c 5
 878 576 l 5
 891 672 l 5
 453 672 l 5
 454 670 388 819 408 959 c 4
 430 1116 529 1190 682 1190 c 4
 838 1190 989 1075 989 1075 c 5
 1050 1189 l 5
 1050 1186 935 1322 661 1322 c 4
 469 1322 276 1166 246 956 c 4
 226 811 308 662 309 667 c 5
 148 667 l 5
 136 576 l 5
 319 577 l 5
EndSplineSet
EndChar

StartChar: section
Encoding: 167 167 677
Width: 966
Flags: W
HStem: -99 146<287.081 635.606> 1421 145<492.98 840.182>
LayerCount: 3
Fore
SplineSet
123 17 m 5
 198 155 l 5
 266 83 380 47 454 47 c 4
 585 47 702 91 720 220 c 4
 735 330 667 368 577 402 c 6
 436 456 l 6
 227 536 199 625 219 768 c 4
 230 848 296 969 487 992 c 5
 295 1077 274 1164 291 1282 c 4
 307 1396 415 1566 682 1566 c 4
 827 1566 967 1486 1002 1449 c 5
 929 1313 l 5
 860 1379 768 1421 671 1421 c 4
 500 1421 446 1352 435 1272 c 4
 427 1215 448 1182 561 1136 c 6
 697 1080 l 6
 944 979 967 878 948 743 c 4
 932 627 830 530 685 519 c 5
 878 442 891 321 876 216 c 4
 842 -27 621 -99 445 -99 c 4
 319 -99 172 -34 123 17 c 5
557 597 m 4
 704 597 787 652 801 748 c 4
 822 895 679 903 600 903 c 4
 439 903 374 846 360 750 c 4
 345 641 421 597 557 597 c 4
EndSplineSet
EndChar

StartChar: ae
Encoding: 230 230 678
Width: 1650
Flags: W
HStem: -23 149<345.942 629.595 1070.51 1400.62> 535 115<1007 1521> 558 125<421.292 820.133> 992 142<463.907 821.02 1163.02 1473.85>
LayerCount: 3
Fore
SplineSet
836 633 m 1xb0
 842 678 l 2
 875 913 854 992 670 992 c 0
 515 992 372 908 343 887 c 1
 300 1002 l 1
 389 1078 571 1134 682 1134 c 0
 862 1134 962 1080 983 920 c 1
 1068 1070 1219 1134 1355 1134 c 0
 1607 1134 1709 933 1668 640 c 0
 1663 606 1656 572 1647 535 c 1
 991 535 l 1xd0
 958 299 993 126 1231 126 c 0
 1328 126 1421 163 1509 235 c 1
 1545 99 l 1
 1436 16 1276 -23 1199 -23 c 0
 1023 -23 909 59 856 201 c 1
 767 90 612 -23 439 -23 c 0
 225 -23 114 96 146 323 c 2
 146 327 l 2
 179 559 354 683 583 683 c 0
 662 683 779 662 836 633 c 1xb0
499 119 m 0
 606 119 703 188 783 260 c 1
 822 537 l 1
 751 551 687 558 628 558 c 0xb0
 404 558 336 471 318 340 c 0
 295 179 354 119 499 119 c 0
1525 683 m 2
 1564 959 1429 1002 1335 1002 c 0
 1226 1002 1049 946 1007 650 c 1
 1521 650 l 1xd0
 1525 683 l 2
EndSplineSet
EndChar

StartChar: eth
Encoding: 766 240 679
Width: 1106
Flags: W
HStem: -20 143<406.312 695.798> 992 142<514.955 814.02> 1558 20G<1120.17 1180.65>
LayerCount: 3
Fore
SplineSet
587 1367 m 1
 1176 1578 l 1
 1199 1479 l 1
 609 1268 l 1
 587 1367 l 1
1071 656 m 1
 998 136 770 -20 514 -20 c 0
 212 -20 132 254 175 556 c 0
 220 876 394 1134 655 1134 c 0
 804 1134 910 1039 947 974 c 1
 919 1207 789 1470 609 1631 c 1
 696 1743 l 1
 911 1588 1151 1223 1071 656 c 1
905 633 m 1
 945 921 779 992 675 992 c 0
 544 992 390 939 337 559 c 0
 304 323 333 123 531 123 c 0
 725 123 851 250 905 633 c 1
EndSplineSet
EndChar

StartChar: Oslash
Encoding: 216 216 680
Width: 1557
Flags: W
HStem: -40 150<493.514 855.523> 1458 152<686.345 1053.9>
VStem: 142.998 186<292.96 934.166> 1211 186<636.655 1276.75>
LayerCount: 3
Fore
SplineSet
349 -113 m 1
 1174 1710 l 1
 1275 1668 l 1
 450 -159 l 1
 349 -113 l 1
EndSplineSet
Refer: 43 79 N 1 0 0 1 0 0 2
EndChar

StartChar: multiply
Encoding: 215 215 681
Width: 1167
Flags: W
LayerCount: 3
Fore
SplineSet
284 863 m 1
 393 965 l 1
 643 648 l 1
 982 965 l 1
 1062 863 l 1
 723 546 l 1
 973 229 l 1
 864 127 l 1
 614 444 l 1
 275 127 l 1
 195 229 l 1
 534 546 l 1
 284 863 l 1
EndSplineSet
EndChar

StartChar: paragraph
Encoding: 767 182 682
Width: 1261
Flags: W
LayerCount: 3
Fore
SplineSet
880 1577 m 1
 613 1577 377 1529 338 1250 c 4
 300 983 511 905 744 905 c 1
 617 0 l 1
 793 0 l 1
 994 1428 l 1
 1120 1428 l 1
 919 0 l 1
 1092 0 l 1
 1314 1578 l 1
 880 1577 l 1
EndSplineSet
EndChar

StartChar: degree
Encoding: 176 176 684
Width: 479
Flags: W
HStem: 716 67<260.248 422.021> 1059 68<290.233 451.379>
VStem: 163 384
LayerCount: 3
Fore
SplineSet
376 1059 m 0
 301 1059 242 994 232 921 c 0
 222 848 263 783 338 783 c 0
 411 783 468 847 478 921 c 0
 489 997 449 1059 376 1059 c 0
387 1127 m 4
 500 1127 564 1039 547 921 c 0
 531 805 442 716 329 716 c 0
 212 716 147 807 163 921 c 0
 179 1035 270 1127 387 1127 c 4
EndSplineSet
EndChar

StartChar: braceleft
Encoding: 123 123 685
Width: 658
Flags: W
HStem: -210 169<457.03 584> 1330 169<637.846 801>
LayerCount: 3
Fore
SplineSet
532 1002 m 4
 576 1308 657 1330 801 1330 c 5
 824 1499 l 1
 631 1498 434 1427 378 1027 c 0
 347 805 282 739 209 739 c 1
 182 550 l 1
 255 550 302 486 271 262 c 0
 215 -138 392 -209 584 -210 c 1
 609 -41 l 1
 465 -41 390 -19 433 287 c 0
 466 520 383 615 313 645 c 1
 391 673 496 754 532 1002 c 4
EndSplineSet
EndChar

StartChar: braceright
Encoding: 125 125 686
Width: 660
Flags: W
HStem: -210 169<147 300.295> 1330 169<388 501.096>
VStem: 122 620
LayerCount: 3
Fore
SplineSet
517 1002 m 4
 564 1308 495 1330 361 1330 c 5
 388 1499 l 1
 567 1498 731 1427 668 1027 c 0
 633 805 674 739 742 739 c 1
 713 550 l 1
 645 550 583 486 548 262 c 0
 485 -138 301 -209 122 -210 c 1
 147 -41 l 1
 281 -41 357 -19 405 287 c 0
 441 520 545 615 619 645 c 1
 554 673 479 754 517 1002 c 4
EndSplineSet
EndChar

StartChar: quotedbl
Encoding: 34 34 687
Width: 500
Flags: W
HStem: 1058 517<208 292 523 607>
VStem: 191 544
LayerCount: 3
Fore
SplineSet
518 1534 m 1
 523 1575 l 1
 735 1575 l 1
 730 1534 l 0
 607 1058 l 5
 507 1058 l 5
 518 1534 l 1
202 1534 m 1
 208 1575 l 1
 420 1575 l 1
 414 1534 l 0
 292 1058 l 5
 191 1058 l 5
 202 1534 l 1
EndSplineSet
EndChar

StartChar: Lslash
Encoding: 769 321 688
Width: 1094
Flags: W
HStem: 0 144<290 964> 774 130<126 654> 1554 20<309.154 492>
LayerCount: 3
Fore
SplineSet
654 774 m 5
 108 774 l 5
 126 904 l 5
 672 904 l 5
 654 774 l 5
EndSplineSet
Refer: 40 76 N 1 0 0 1 0 0 2
EndChar

StartChar: lslash
Encoding: 770 322 689
Width: 520
Flags: W
HStem: 0 21<107 274.839> 774 130<126 654>
VStem: 107 404.33 108 564
LayerCount: 3
Fore
SplineSet
654 774 m 5xd0
 108 774 l 5
 126 904 l 5
 672 904 l 5
 654 774 l 5xd0
EndSplineSet
Refer: 72 108 N 1 0 0 1 0 0 2
EndChar

StartChar: less
Encoding: 60 60 690
Width: 1386
Flags: W
LayerCount: 3
Fore
SplineSet
396 663 m 1
 1090 1266 l 1
 1170 1156 l 1
 588 663 l 1
 1031 170 l 5
 921 60 l 1
 396 663 l 1
EndSplineSet
EndChar

StartChar: greater
Encoding: 62 62 691
Width: 1386
Flags: W
LayerCount: 3
Fore
SplineSet
1100 663 m 1
 576 1266 l 1
 465 1156 l 1
 909 663 l 1
 327 170 l 5
 406 60 l 1
 1100 663 l 1
EndSplineSet
EndChar

StartChar: equal
Encoding: 61 61 692
Width: 797
Flags: W
HStem: 280 131<143 672> 508 131<175 704>
VStem: 125 597
LayerCount: 3
Fore
SplineSet
704 508 m 5
 157 508 l 5
 175 639 l 5
 722 639 l 5
 704 508 l 5
672 280 m 1
 125 280 l 1
 143 411 l 1
 690 411 l 1
 672 280 l 1
EndSplineSet
EndChar

StartChar: Hbar
Encoding: 771 294 693
Width: 1466
Flags: W
HStem: 0 21<108 292.827 1062 1246.82> 764 114<414 1172> 1169 92.0098<177 1514> 1554 20<329.154 512 1281.18 1466>
LayerCount: 3
Fore
SplineSet
1514 1169 m 1
 165 1169 l 1
 177 1261.01 l 1
 1528 1261.01 l 1
 1514 1169 l 1
EndSplineSet
Refer: 36 72 N 1 0 0 1 0 0 2
EndChar

StartChar: uni00AD
Encoding: 173 173 695
Width: 796
Flags: W
HStem: 508 130<176 704>
VStem: 158 564
LayerCount: 3
Fore
SplineSet
704 508 m 1
 158 508 l 1
 176 638 l 1
 722 638 l 1
 704 508 l 1
EndSplineSet
EndChar

StartChar: dcroat
Encoding: 240 273 696
Width: 1265
Flags: W
HStem: -20 130<323.868 585.055> 0 21<776 895.869> 998 132<446.592 724.077> 1348 131<675 1265>
VStem: 86 160<195.556 698.509> 776 117<0 99.9286>
LayerCount: 3
Fore
SplineSet
1265 1348 m 5x3c
 675 1348 l 5
 675 1479 l 5
 1265 1479 l 5
 1265 1348 l 5x3c
EndSplineSet
Refer: 64 100 N 1 0 0 1 0 0 2
EndChar

StartChar: Eng
Encoding: 189 330 697
Width: 1419
Flags: W
HStem: -468 147<868.544 1081.15> 0 21G<132 292.814> 1559 20G<351.188 606.783 1358.18 1519>
LayerCount: 3
Fore
SplineSet
549 1257 m 1
 496 1464 l 1
 290 0 l 1
 132 0 l 1
 354 1579 l 1
 598 1579 l 1
 1114 404 l 1
 1166 199 l 1
 1224 613 l 1
 1225 613 l 1
 1361 1579 l 1
 1519 1579 l 1
 1383 613 l 1
 1309 82 l 1
 1283 -102 l 2
 1246 -367 1176 -468 985 -468 c 0
 887 -468 772 -394 764 -388 c 2
 724 -358 l 1
 804 -235 l 1
 836 -256 l 1
 905 -304 960 -321 1002 -321 c 0
 1063 -321 1098 -290 1117 -154 c 2
 1128 -73 l 1
 549 1257 l 1
EndSplineSet
EndChar

StartChar: eng
Encoding: 191 331 698
Width: 1105
Flags: W
HStem: -377 147<567.499 768.087> 992 140<625.881 870.525>
VStem: 283 124<1012.01 1114>
LayerCount: 3
Fore
SplineSet
802 -59 m 6
 783 -195 750 -230 694 -230 c 0
 655 -230 605 -214 542 -168 c 1
 512 -148 l 1
 438 -267 l 1
 474 -297 l 2
 482 -303 587 -377 676 -377 c 0
 857 -377 941 -268 977 -13 c 6
 1076 688 l 2
 1129 1068 943 1132 813 1132 c 0
 657 1132 479 1022 402 929 c 1
 407 1114 l 1
 283 1114 l 1
 125 -10 l 1
 292 -10 l 1
 410 832 l 1
 444 865 623 992 758 992 c 0
 907 992 932 863 907 685 c 2
 802 -59 l 6
EndSplineSet
EndChar

StartChar: tbar
Encoding: 188 359 699
Width: 789
Flags: W
HStem: -16 147<435.375 644.115> 720 131<203 758> 1010 104<240 382 566 802> 1582 20G<576.538 632.172>
VStem: 185 631
LayerCount: 3
Fore
SplineSet
758 720 m 5
 185 720 l 5
 203 851 l 1
 776 851 l 1
 758 720 l 5
484 -16 m 0
 306 -16 252 80 287 331 c 2
 382 1010 l 1
 226 1010 l 1
 240 1114 l 1
 422 1114 l 1
 483 1550 l 1
 635 1602 l 1
 566 1114 l 1
 816 1114 l 1
 802 1010 l 1
 551 1010 l 1
 433 170 l 1
 445 150 470 131 512 131 c 0
 551 131 605 147 681 192 c 1
 716 211 l 1
 757 94 l 1
 712 64 l 2
 702 58 575 -16 484 -16 c 0
EndSplineSet
EndChar

StartChar: kgreenlandic
Encoding: 162 312 701
Width: 984
Flags: W
HStem: 0 21G<126 297.826 792.869 994>
LayerCount: 3
Fore
SplineSet
1130 1169 m 1
 583 642 l 5
 994 0 l 1
 805 0 l 1
 472 549 l 5
 359 453 l 5
 295 0 l 1
 126 0 l 1
 291 1168 l 1
 459 1168 l 1
 383 621 l 5
 938 1169 l 1
 1130 1169 l 1
EndSplineSet
EndChar

StartChar: Tbar
Encoding: 172 358 702
Width: 1135
Flags: W
HStem: 0 21<360.997 541.81> 764 131<269 859> 1436 138<154.997 564.997 740.997 1165>
LayerCount: 3
Fore
SplineSet
859 764 m 5
 269 764 l 5
 269 895 l 5
 859 895 l 5
 859 764 l 5
EndSplineSet
Refer: 48 84 N 1 0 0 1 0 0 2
EndChar

StartChar: Dcroat
Encoding: 208 272 703
Width: 1514
Flags: HW
HStem: 0 143<350 916.062> 1436 143<350 919.815> 1796 131<467 1057>
VStem: 156 194<143 1436> 1167 201<442.352 1138.53>
LayerCount: 3
Fore
SplineSet
524 1436 m 1
 342 144 l 1
 676 144 l 2
 956 144 1128 322 1194 788 c 0
 1260 1256 1138 1436 858 1436 c 2
 524 1436 l 1
878 1580 m 2
 1240 1580 1462 1366 1380 788 c 0
 1298 210 1020 0 656 0 c 2
 142 0 l 1
 364 1580 l 1
 878 1580 l 2
656 760 m 5
 108 760 l 5
 126 892 l 5
 676 892 l 5
 656 760 l 5
EndSplineSet
EndChar

StartChar: divide
Encoding: 247 247 704
Width: 864
Flags: HW
LayerCount: 3
Fore
SplineSet
706 508 m 1xf0
 159 508 l 1
 177 639 l 1
 724 639 l 1
 706 508 l 1xf0
EndSplineSet
Refer: 14 46 N 1 0 0 1 169 232 2
Refer: 14 46 N 1 0 0 1 239 717 2
EndChar
